<?xml version="1.0" encoding="UTF-8" standalone="no"?>
<!-- Created with Inkscape (http://www.inkscape.org/) -->

<svg
   width="297mm"
   height="210mm"
   viewBox="0 0 297 210"
   version="1.1"
   id="svg5"
   inkscape:version="1.2.2 (732a01da63, 2022-12-09)"
   sodipodi:docname="jump_STRIKE.svg"
   xmlns:inkscape="http://www.inkscape.org/namespaces/inkscape"
   xmlns:sodipodi="http://sodipodi.sourceforge.net/DTD/sodipodi-0.dtd"
   xmlns="http://www.w3.org/2000/svg"
   xmlns:svg="http://www.w3.org/2000/svg">
  <sodipodi:namedview
     id="namedview7"
     pagecolor="#ffffff"
     bordercolor="#111111"
     borderopacity="1"
     inkscape:showpageshadow="0"
     inkscape:pageopacity="0"
     inkscape:pagecheckerboard="1"
     inkscape:deskcolor="#ffffff"
     inkscape:document-units="mm"
     showgrid="false"
     inkscape:zoom="0.63248016"
     inkscape:cx="561.28243"
     inkscape:cy="396.85039"
     inkscape:window-width="1366"
     inkscape:window-height="705"
     inkscape:window-x="-8"
     inkscape:window-y="-8"
     inkscape:window-maximized="1"
     inkscape:current-layer="layer4"
     borderlayer="false"
     showborder="true" />
  <defs
     id="defs2">
    <pattern
       id="EMFhbasepattern"
       patternUnits="userSpaceOnUse"
       width="6"
       height="6"
       x="0"
       y="0" />
    <pattern
       id="EMFhbasepattern-4"
       patternUnits="userSpaceOnUse"
       width="6"
       height="6"
       x="0"
       y="0" />
    <inkscape:path-effect
       effect="simplify"
       id="path-effect21202"
       is_visible="true"
       lpeversion="1"
       steps="1"
       threshold="0.00961538"
       smooth_angles="360"
       helper_size="0"
       simplify_individual_paths="false"
       simplify_just_coalesce="false" />
    <inkscape:path-effect
       effect="simplify"
       id="path-effect22213"
       is_visible="true"
       lpeversion="1"
       steps="1"
       threshold="0.00961538"
       smooth_angles="360"
       helper_size="0"
       simplify_individual_paths="false"
       simplify_just_coalesce="false" />
    <inkscape:path-effect
       effect="simplify"
       id="path-effect21202-4"
       is_visible="true"
       lpeversion="1"
       steps="1"
       threshold="0.00961538"
       smooth_angles="360"
       helper_size="0"
       simplify_individual_paths="false"
       simplify_just_coalesce="false" />
    <inkscape:path-effect
       effect="simplify"
       id="path-effect22213-0"
       is_visible="true"
       lpeversion="1"
       steps="1"
       threshold="0.00961538"
       smooth_angles="360"
       helper_size="0"
       simplify_individual_paths="false"
       simplify_just_coalesce="false" />
    <inkscape:path-effect
       effect="simplify"
       id="path-effect21202-8"
       is_visible="true"
       lpeversion="1"
       steps="1"
       threshold="0.00961538"
       smooth_angles="360"
       helper_size="0"
       simplify_individual_paths="false"
       simplify_just_coalesce="false" />
    <inkscape:path-effect
       effect="simplify"
       id="path-effect22213-7"
       is_visible="true"
       lpeversion="1"
       steps="1"
       threshold="0.00961538"
       smooth_angles="360"
       helper_size="0"
       simplify_individual_paths="false"
       simplify_just_coalesce="false" />
    <inkscape:path-effect
       effect="simplify"
       id="path-effect21202-1"
       is_visible="true"
       lpeversion="1"
       steps="1"
       threshold="0.00961538"
       smooth_angles="360"
       helper_size="0"
       simplify_individual_paths="false"
       simplify_just_coalesce="false" />
    <inkscape:path-effect
       effect="simplify"
       id="path-effect22213-8"
       is_visible="true"
       lpeversion="1"
       steps="1"
       threshold="0.00961538"
       smooth_angles="360"
       helper_size="0"
       simplify_individual_paths="false"
       simplify_just_coalesce="false" />
    <inkscape:path-effect
       effect="simplify"
       id="path-effect21202-9"
       is_visible="true"
       lpeversion="1"
       steps="1"
       threshold="0.00961538"
       smooth_angles="360"
       helper_size="0"
       simplify_individual_paths="false"
       simplify_just_coalesce="false" />
    <inkscape:path-effect
       effect="simplify"
       id="path-effect22213-2"
       is_visible="true"
       lpeversion="1"
       steps="1"
       threshold="0.00961538"
       smooth_angles="360"
       helper_size="0"
       simplify_individual_paths="false"
       simplify_just_coalesce="false" />
  </defs>
  <g
     inkscape:groupmode="layer"
     id="layer4"
     inkscape:label="tudo"
     transform="matrix(0.37692456,0,0,0.37692456,-6.3453052,62.905042)">
    <g
       inkscape:groupmode="layer"
       id="layer3-7"
       inkscape:label="jump1"
       transform="translate(614.15036,36.37947)">
      <g
         inkscape:groupmode="layer"
         id="layer10-3"
         inkscape:label="pernas"
         transform="rotate(12.594839,38.210919,139.76575)"
         inkscape:transform-center-x="12.780255"
         inkscape:transform-center-y="62.796551"
         style="display:inline">
        <path
           style="display:inline;opacity:1;fill:none;fill-opacity:1;stroke:#1a1a1a;stroke-width:13;stroke-dasharray:none;stroke-opacity:1"
           d="m 102.03738,155.70865 c -0.74438,14.04182 15.39811,19.07541 25.97625,17.05489 10.81119,-2.06503 26.17503,14.3589 13.80381,19.78924 -9.18876,4.0334 -22.08241,1.8759 -27.59358,12.53271 -3.35547,6.48838 -3.52886,14.05997 -3.2379,21.1962"
           id="path21200-9"
           sodipodi:nodetypes="csc"
           inkscape:original-d="m 102.03738,155.70865 c 0.75786,27.9087 43.44097,6.5756 43.21399,29.83338 -0.18874,19.33851 -36.61857,-5.12199 -34.26541,40.73966"
           inkscape:path-effect="#path-effect21202-9" />
        <path
           style="display:inline;opacity:1;fill:#1a1a1a;fill-opacity:1;stroke:none;stroke-width:13;stroke-dasharray:none;stroke-opacity:1"
           d="m 137.06935,211.15826 c 0,0 -6.87747,-1.77035 -3.29753,14.71322 3.57994,16.48357 5.44018,15.59733 5.44018,15.59733 l 12.20795,-2.66873 -1.45097,-4.81687 c 0,0 6.55154,3.59189 15.78914,1.57249 9.23762,-2.01939 18.61497,-5.44631 18.61497,-5.44631 0,0 -14.8692,-1.99087 -24.18344,-6.45106 -6.65964,-3.18902 -10.75233,-5.15816 -10.75233,-5.15816 z"
           id="path21990-2"
           sodipodi:nodetypes="czccczcscc" />
        <path
           style="display:inline;opacity:1;fill:none;fill-opacity:1;stroke:#1a1a1a;stroke-width:13;stroke-dasharray:none;stroke-opacity:1"
           d="m 108.19766,152.80125 c 9.83267,13.43834 28.24428,11.27067 42.78219,11.98786 12.47286,0.61532 23.22914,15.4474 15.09676,26.91199 -7.02292,9.90054 -22.98323,12.17947 -26.37697,24.10778 -0.51486,1.80963 -0.1799,3.72838 0.63527,5.37263"
           id="path22211-5"
           sodipodi:nodetypes="csc"
           inkscape:original-d="m 108.19766,152.80125 c 12.2873,19.26548 51.60976,0.79957 60.16023,25.30193 7.46227,21.38404 -35.49557,27.75774 -28.02298,43.07833"
           inkscape:path-effect="#path-effect22213-2" />
        <path
           style="display:inline;opacity:1;fill:#1a1a1a;fill-opacity:1;stroke:none;stroke-width:11.3323;stroke-dasharray:none;stroke-opacity:1"
           d="m 107.18846,248.43174 c 0,0 -6.56514,-15.11432 -1.98596,-32.1526 2.51362,-9.35274 5.21306,9.78031 5.21306,9.78031 0,0 -0.79777,-15.76316 4.06498,-6.98447 2.96288,5.34885 5.72523,9.62132 13.78655,12.44663 5.05178,1.77053 27.11479,5.08545 27.11479,5.08545 0,0 -17.87538,9.60808 -25.16737,7.00721 l -8.36017,-2.98187 1.29822,4.99531 z"
           id="path22676-7"
           sodipodi:nodetypes="cscsscsccc"
           inkscape:transform-center-x="-17.015285"
           inkscape:transform-center-y="6.5748578" />
      </g>
      <g
         inkscape:groupmode="layer"
         id="layer2-6"
         inkscape:label="cabelo"
         style="display:inline;opacity:1;fill:#666666;fill-opacity:1"
         transform="matrix(1.0351001,-0.10036599,0.09174108,0.94614936,-3.7806365,25.889524)">
        <path
           style="display:inline;fill:#666666;fill-opacity:1;stroke-width:0.266109"
           d="m 118.50787,65.671194 c 0,0 -7.59817,-0.810854 -9.20336,7.315649 -1.6052,8.126507 0.20439,9.238982 0.20439,9.238982 l 5.73531,17.954925 c 0,0 -1.44713,3.10475 3.09257,6.89113 4.53969,3.78637 20.42509,5.29418 20.42509,5.29418 0,0 -10.18387,-0.50583 5.60307,-1.37822 21.86761,-1.2084 28.56697,-14.548573 28.56697,-14.548573 0,0 -18.18594,3.572223 -10.07997,1.327888 13.26307,-3.672207 15.67934,-21.197286 15.67934,-21.197286 0,0 -21.21193,9.425898 -11.18047,3.92565 10.03146,-5.500241 9.68494,-34.980222 9.68494,-34.980222 0,0 -8.34714,15.05412 -18.08029,15.234608 -6.08469,0.112832 -14.30314,-4.485035 -24.1553,-4.659242 -9.85217,-0.174209 -15.46055,5.749993 -16.29229,9.580531 z"
           id="path1815-8-52"
           sodipodi:nodetypes="csccscscscscssc" />
        <path
           style="display:inline;opacity:1;fill:#666666;fill-opacity:1;stroke-width:0.278957"
           d="m 118.22156,63.017767 c 0,0 -2.63622,-16.683729 -7.66514,-12.049887 -2.99392,3.370871 7.66514,12.049887 7.66514,12.049887 z"
           id="path1811-6"
           sodipodi:nodetypes="ccc"
           inkscape:transform-center-x="4.0935158"
           inkscape:transform-center-y="0.94737523" />
        <path
           style="display:inline;opacity:1;fill:#666666;fill-opacity:1;stroke-width:0.284153"
           d="m 116.6032,63.389864 c 0,0 -9.50974,-4.064415 -9.40306,0.241534 0.15951,6.43898 9.40306,-0.241534 9.40306,-0.241534 z"
           id="path1813-4"
           sodipodi:nodetypes="csc" />
      </g>
      <path
         style="fill:#ececec;fill-opacity:1;stroke-width:0.264583"
         d="m 60.63221,155.86538 c 0,0 -2.268829,-0.71648 -4.392838,1.95402 -2.124009,2.6705 -1.267163,13.35248 -1.267163,13.35248 0,0 1.013732,3.44125 4.658338,3.63666 3.644604,0.1954 11.356205,0.24968 14.107761,-1.16156 2.751558,-1.41124 1.399915,-15.2848 1.399915,-15.2848 z"
         id="path2256-2" />
      <path
         style="fill:#808080;fill-opacity:1;stroke-width:0.264583"
         d="m 87.580572,167.85005 c 0,0 -5.213477,8.16347 -8.664993,10.47573 -3.451513,2.31225 9.895951,3.68007 16.750707,3.46296 6.854754,-0.21712 18.826444,-5.1673 18.826444,-5.1673 l -4.19975,-6.81737 6.32376,6.20945 c 0,0 2.55846,-1.44381 7.72366,-1.62836 5.16521,-0.18454 -7.47023,-2.3991 -10.27006,-6.06832 -2.79983,-3.66922 -27.286272,-0.93359 -27.286272,-0.93359 z"
         id="path2198-3" />
      <path
         style="display:inline;fill:#ececec;fill-opacity:1;stroke-width:0.263066"
         d="m 144.46668,77.858834 c -10.61626,0.9875 -21.12313,5.06265 -21.12313,5.06265 l -1.26328,12.541764 c -1.936,-1.12884 -4.26756,-1.62179 -6.60156,-1.39572 -5.60292,0.54302 -9.75542,5.00218 -9.27463,9.959572 0.48057,4.95741 5.41242,8.53573 11.01529,7.99222 1.41847,-0.13945 2.79512,-0.54097 4.04109,-1.17804 1.50268,2.58987 2.98795,4.2458 5.94469,5.2288 0,0 -2.97922,3.17387 -5.1679,4.50214 -2.18867,1.32827 -7.96413,3.46749 -7.96413,3.46749 9.3285,2.25026 -2.18634,11.65393 11.71328,9.39123 0,0 5.43937,-4.06972 7.65174,-5.77941 2.21238,-1.7097 5.84752,-5.82372 5.84752,-5.82372 27.25913,5.69851 29.55464,-13.83856 26.77151,-32.640312 C 164.5089,78.727954 154.43953,76.931184 144.46668,77.858834 Z"
         id="path7707-5"
         sodipodi:nodetypes="sccccccczcczcss" />
      <path
         style="fill:#b3b3b3;fill-opacity:1;stroke-width:0.264583"
         d="m 101.3578,129.56328 c 0,0 9.85135,-15.64909 18.41014,-8.64157 8.5588,7.00753 6.53263,9.7833 6.53263,9.7833 0,0 0.0545,-3.82348 4.60356,-2.76203 0.75083,0.17519 3.23328,-0.93551 3.23328,-0.93551 0,0 3.03924,3.5509 0.0582,7.44746 -2.98103,3.89656 -6.95184,8.49493 -10.46852,8.06547 -3.51667,-0.42946 -8.81497,7.21701 -7.06828,12.22388 1.74669,5.00687 5.97369,9.49001 3.92424,12.65335 -2.04946,3.16334 -8.18617,4.62979 -17.37377,4.76596 -9.187603,0.13617 -12.389873,-0.13617 -16.407267,-4.14796 -4.017391,-4.01178 -5.205143,-8.3797 -2.410434,-11.15547 2.794707,-2.77578 2.282344,-2.00066 2.282344,-2.00066 0,0 -0.896636,-20.58264 14.683857,-25.29622 z"
         id="path1419-7"
         sodipodi:nodetypes="cscscsssssssccc" />
      <path
         style="fill:#808080;fill-opacity:1;stroke-width:0.264583"
         d="m 89.74725,121.89309 c 0,0 8.884626,2.95998 12.03127,8.13995 3.14664,5.17996 6.7046,4.88397 10.28313,1.57249 3.57853,-3.31148 3.18777,-9.08344 0.20566,-12.41342 -2.98211,-3.32998 -25.193677,-16.52039 -31.56922,-12.22842 -6.375543,4.29197 -20.957026,37.11075 -21.491749,44.6402 -0.534723,7.52945 1.789266,8.21395 6.190446,9.26844 4.401182,1.0545 10.817857,1.16549 14.910545,-4.51397 4.092687,-5.67946 9.439918,-34.46527 9.439918,-34.46527 z"
         id="path2194-2" />
      <path
         style="fill:#808080;fill-opacity:1;stroke-width:0.264583"
         d="m 119.65672,120.83565 c 0,0 1.29018,-1.6372 3.6167,-2.65053 2.32651,-1.01334 2.26773,-0.48024 2.26773,-0.48024 0,0 -2.53222,1.72708 -0.58775,4.81996 1.94448,3.09287 5.10854,6.50296 9.16891,4.48951 4.06038,-2.01345 -2.79181,7.64407 -3.5265,7.49868 -0.73469,-0.14539 0.4604,-6.30471 0.4604,-6.30471 0,0 -2.43916,9.1861 -4.17303,9.23016 -1.73386,0.0441 -0.71999,-6.74969 -0.71999,-6.74969 0,0 1.49763,-1.34175 -2.77712,-6.3752 -1.25692,-1.48 -3.72935,-3.47794 -3.72935,-3.47794 z"
         id="path2196-6"
         sodipodi:nodetypes="cscssscccsc" />
      <g
         inkscape:groupmode="layer"
         id="layer5-1"
         inkscape:label="franja"
         style="display:inline"
         transform="matrix(1.0351001,-0.10036599,0.09174108,0.94614936,-5.2723734,25.433293)">
        <path
           style="opacity:1;fill:#666666;fill-opacity:1;stroke-width:0.268955"
           d="m 112.08773,84.510732 c 0,0 5.65743,2.634894 6.21619,6.152479 0.55876,3.517583 4.90414,1.185267 7.11296,-3.803041 3.81663,-8.619291 -0.33801,-13.415998 -0.33801,-13.415998 0,0 -0.29335,-6.495016 -7.23593,-0.73777 -6.94258,5.757245 -7.57037,10.677837 -7.57037,10.677837 z"
           id="path9016-2"
           sodipodi:nodetypes="csscscc" />
        <path
           style="opacity:1;fill:#666666;fill-opacity:1;stroke-width:0.264583"
           d="m 124.02051,67.663961 c 0,0 -4.19316,9.961238 15.19668,13.011629 19.38985,3.050392 27.01634,-0.582234 27.01634,-0.582234 0,0 -3.37705,-9.151173 -5.23442,-9.999207 -1.85737,-0.848034 -33.13722,-4.214856 -33.13722,-4.214856 z"
           id="path9842-69" />
        <path
           style="opacity:1;fill:#4d4d4d;fill-opacity:1;stroke-width:0.264583"
           d="m 130.19768,68.537311 c 8.59738,-4.505974 13.38205,1.918116 18.58573,2.577548 8.50274,1.077504 23.66936,-7.567502 23.66936,-7.567502 0,0 -12.01465,30.125347 -30.73094,25.785776 C 127.66261,86.073352 121.6003,73.043284 130.19768,68.537311 Z"
           id="path9432-69"
           sodipodi:nodetypes="zscsz"
           inkscape:label="path9432" />
      </g>
      <rect
         style="fill:#1a1a1a;fill-opacity:1;stroke-width:0.263066"
         id="rect10692-7-9"
         width="4.126565"
         height="11.658805"
         x="163.69052"
         y="68.524986"
         ry="1.8859754"
         transform="rotate(8.4899655,-1.7273147e-7,-8.0305994e-6)" />
      <rect
         style="fill:#1a1a1a;fill-opacity:1;stroke-width:0.263066"
         id="rect10692-0-1-0"
         width="4.126565"
         height="11.658805"
         x="149.08415"
         y="106.99599"
         ry="1.8859754"
         transform="rotate(-5.5382342,-1.2398397e-6,1.224446e-5)"
         inkscape:transform-center-x="-0.1790084"
         inkscape:transform-center-y="-1.3150179" />
    </g>
    <g
       inkscape:groupmode="layer"
       id="layer3"
       inkscape:label="jump1"
       transform="translate(-32.937553,35.532322)">
      <g
         inkscape:groupmode="layer"
         id="layer10"
         inkscape:label="pernas"
         transform="rotate(12.594839,38.210919,139.76575)"
         inkscape:transform-center-x="12.780255"
         inkscape:transform-center-y="62.796551"
         style="display:inline">
        <path
           style="display:inline;opacity:1;fill:none;fill-opacity:1;stroke:#1a1a1a;stroke-width:13;stroke-dasharray:none;stroke-opacity:1"
           d="m 102.03738,155.70865 c -0.74438,14.04182 15.39811,19.07541 25.97625,17.05489 10.81119,-2.06503 26.17503,14.3589 13.80381,19.78924 -9.18876,4.0334 -22.08241,1.8759 -27.59358,12.53271 -3.35547,6.48838 -3.52886,14.05997 -3.2379,21.1962"
           id="path21200"
           sodipodi:nodetypes="csc"
           inkscape:original-d="m 102.03738,155.70865 c 0.75786,27.9087 43.44097,6.5756 43.21399,29.83338 -0.18874,19.33851 -36.61857,-5.12199 -34.26541,40.73966"
           inkscape:path-effect="#path-effect21202" />
        <path
           style="display:inline;opacity:1;fill:#1a1a1a;fill-opacity:1;stroke:none;stroke-width:13;stroke-dasharray:none;stroke-opacity:1"
           d="m 137.06935,211.15826 c 0,0 -6.87747,-1.77035 -3.29753,14.71322 3.57994,16.48357 5.44018,15.59733 5.44018,15.59733 l 12.20795,-2.66873 -1.45097,-4.81687 c 0,0 6.55154,3.59189 15.78914,1.57249 9.23762,-2.01939 18.61497,-5.44631 18.61497,-5.44631 0,0 -14.8692,-1.99087 -24.18344,-6.45106 -6.65964,-3.18902 -10.75233,-5.15816 -10.75233,-5.15816 z"
           id="path21990"
           sodipodi:nodetypes="czccczcscc" />
        <path
           style="display:inline;opacity:1;fill:none;fill-opacity:1;stroke:#1a1a1a;stroke-width:13;stroke-dasharray:none;stroke-opacity:1"
           d="m 108.19766,152.80125 c 9.83267,13.43834 28.24428,11.27067 42.78219,11.98786 12.47286,0.61532 23.22914,15.4474 15.09676,26.91199 -7.02292,9.90054 -22.98323,12.17947 -26.37697,24.10778 -0.51486,1.80963 -0.1799,3.72838 0.63527,5.37263"
           id="path22211"
           sodipodi:nodetypes="csc"
           inkscape:original-d="m 108.19766,152.80125 c 12.2873,19.26548 51.60976,0.79957 60.16023,25.30193 7.46227,21.38404 -35.49557,27.75774 -28.02298,43.07833"
           inkscape:path-effect="#path-effect22213" />
        <path
           style="display:inline;opacity:1;fill:#1a1a1a;fill-opacity:1;stroke:none;stroke-width:11.3323;stroke-dasharray:none;stroke-opacity:1"
           d="m 107.18846,248.43174 c 0,0 -6.56514,-15.11432 -1.98596,-32.1526 2.51362,-9.35274 5.21306,9.78031 5.21306,9.78031 0,0 -0.79777,-15.76316 4.06498,-6.98447 2.96288,5.34885 5.72523,9.62132 13.78655,12.44663 5.05178,1.77053 27.11479,5.08545 27.11479,5.08545 0,0 -17.87538,9.60808 -25.16737,7.00721 l -8.36017,-2.98187 1.29822,4.99531 z"
           id="path22676"
           sodipodi:nodetypes="cscsscsccc"
           inkscape:transform-center-x="-17.015285"
           inkscape:transform-center-y="6.5748578" />
      </g>
      <g
         inkscape:groupmode="layer"
         id="layer2"
         inkscape:label="cabelo"
         style="display:inline;opacity:1;fill:#666666;fill-opacity:1"
         transform="matrix(1.0351001,-0.10036599,0.09174108,0.94614936,-3.7806365,25.889524)">
        <path
           style="display:inline;fill:#666666;fill-opacity:1;stroke-width:0.266109"
           d="m 118.50787,65.671194 c 0,0 -7.59817,-0.810854 -9.20336,7.315649 -1.6052,8.126507 0.20439,9.238982 0.20439,9.238982 l 5.73531,17.954925 c 0,0 -1.44713,3.10475 3.09257,6.89113 4.53969,3.78637 20.42509,5.29418 20.42509,5.29418 0,0 -10.18387,-0.50583 5.60307,-1.37822 21.86761,-1.2084 28.56697,-14.548573 28.56697,-14.548573 0,0 -18.18594,3.572223 -10.07997,1.327888 13.26307,-3.672207 15.67934,-21.197286 15.67934,-21.197286 0,0 -21.21193,9.425898 -11.18047,3.92565 10.03146,-5.500241 9.68494,-34.980222 9.68494,-34.980222 0,0 -8.34714,15.05412 -18.08029,15.234608 -6.08469,0.112832 -14.30314,-4.485035 -24.1553,-4.659242 -9.85217,-0.174209 -15.46055,5.749993 -16.29229,9.580531 z"
           id="path1815-8"
           sodipodi:nodetypes="csccscscscscssc" />
        <path
           style="display:inline;opacity:1;fill:#666666;fill-opacity:1;stroke-width:0.278957"
           d="m 118.22156,63.017767 c 0,0 -2.63622,-16.683729 -7.66514,-12.049887 -2.99392,3.370871 7.66514,12.049887 7.66514,12.049887 z"
           id="path1811"
           sodipodi:nodetypes="ccc"
           inkscape:transform-center-x="4.0935158"
           inkscape:transform-center-y="0.94737523" />
        <path
           style="display:inline;opacity:1;fill:#666666;fill-opacity:1;stroke-width:0.284153"
           d="m 116.6032,63.389864 c 0,0 -9.50974,-4.064415 -9.40306,0.241534 0.15951,6.43898 9.40306,-0.241534 9.40306,-0.241534 z"
           id="path1813"
           sodipodi:nodetypes="csc" />
      </g>
      <path
         style="fill:#ececec;fill-opacity:1;stroke-width:0.264583"
         d="m 60.63221,155.86538 c 0,0 -2.268829,-0.71648 -4.392838,1.95402 -2.124009,2.6705 -1.267163,13.35248 -1.267163,13.35248 0,0 1.013732,3.44125 4.658338,3.63666 3.644604,0.1954 11.356205,0.24968 14.107761,-1.16156 2.751558,-1.41124 1.399915,-15.2848 1.399915,-15.2848 z"
         id="path2256" />
      <path
         style="fill:#808080;fill-opacity:1;stroke-width:0.264583"
         d="m 87.580572,167.85005 c 0,0 -5.213477,8.16347 -8.664993,10.47573 -3.451513,2.31225 9.895951,3.68007 16.750707,3.46296 6.854754,-0.21712 18.826444,-5.1673 18.826444,-5.1673 l -4.19975,-6.81737 6.32376,6.20945 c 0,0 2.55846,-1.44381 7.72366,-1.62836 5.16521,-0.18454 -7.47023,-2.3991 -10.27006,-6.06832 -2.79983,-3.66922 -27.286272,-0.93359 -27.286272,-0.93359 z"
         id="path2198" />
      <path
         style="display:inline;fill:#ececec;fill-opacity:1;stroke-width:0.263066"
         d="m 144.46668,77.858834 c -10.61626,0.9875 -21.12313,5.06265 -21.12313,5.06265 l -1.26328,12.541764 c -1.936,-1.12884 -4.26756,-1.62179 -6.60156,-1.39572 -5.60292,0.54302 -9.75542,5.00218 -9.27463,9.959572 0.48057,4.95741 5.41242,8.53573 11.01529,7.99222 1.41847,-0.13945 2.79512,-0.54097 4.04109,-1.17804 1.50268,2.58987 2.98795,4.2458 5.94469,5.2288 0,0 -2.97922,3.17387 -5.1679,4.50214 -2.18867,1.32827 -7.96413,3.46749 -7.96413,3.46749 9.3285,2.25026 -2.18634,11.65393 11.71328,9.39123 0,0 5.43937,-4.06972 7.65174,-5.77941 2.21238,-1.7097 5.84752,-5.82372 5.84752,-5.82372 27.25913,5.69851 29.55464,-13.83856 26.77151,-32.640312 C 164.5089,78.727954 154.43953,76.931184 144.46668,77.858834 Z"
         id="path7707"
         sodipodi:nodetypes="sccccccczcczcss" />
      <path
         style="fill:#b3b3b3;fill-opacity:1;stroke-width:0.264583"
         d="m 101.3578,129.56328 c 0,0 9.85135,-15.64909 18.41014,-8.64157 8.5588,7.00753 6.53263,9.7833 6.53263,9.7833 0,0 0.0545,-3.82348 4.60356,-2.76203 0.75083,0.17519 3.23328,-0.93551 3.23328,-0.93551 0,0 3.03924,3.5509 0.0582,7.44746 -2.98103,3.89656 -6.95184,8.49493 -10.46852,8.06547 -3.51667,-0.42946 -8.81497,7.21701 -7.06828,12.22388 1.74669,5.00687 5.97369,9.49001 3.92424,12.65335 -2.04946,3.16334 -8.18617,4.62979 -17.37377,4.76596 -9.187603,0.13617 -12.389873,-0.13617 -16.407267,-4.14796 -4.017391,-4.01178 -5.205143,-8.3797 -2.410434,-11.15547 2.794707,-2.77578 2.282344,-2.00066 2.282344,-2.00066 0,0 -0.896636,-20.58264 14.683857,-25.29622 z"
         id="path1419"
         sodipodi:nodetypes="cscscsssssssccc" />
      <path
         style="fill:#808080;fill-opacity:1;stroke-width:0.264583"
         d="m 89.74725,121.89309 c 0,0 8.884626,2.95998 12.03127,8.13995 3.14664,5.17996 6.7046,4.88397 10.28313,1.57249 3.57853,-3.31148 3.18777,-9.08344 0.20566,-12.41342 -2.98211,-3.32998 -25.193677,-16.52039 -31.56922,-12.22842 -6.375543,4.29197 -20.957026,37.11075 -21.491749,44.6402 -0.534723,7.52945 1.789266,8.21395 6.190446,9.26844 4.401182,1.0545 10.817857,1.16549 14.910545,-4.51397 4.092687,-5.67946 9.439918,-34.46527 9.439918,-34.46527 z"
         id="path2194" />
      <path
         style="fill:#808080;fill-opacity:1;stroke-width:0.264583"
         d="m 119.65672,120.83565 c 0,0 1.29018,-1.6372 3.6167,-2.65053 2.32651,-1.01334 2.26773,-0.48024 2.26773,-0.48024 0,0 -2.53222,1.72708 -0.58775,4.81996 1.94448,3.09287 5.10854,6.50296 9.16891,4.48951 4.06038,-2.01345 -2.79181,7.64407 -3.5265,7.49868 -0.73469,-0.14539 0.4604,-6.30471 0.4604,-6.30471 0,0 -2.43916,9.1861 -4.17303,9.23016 -1.73386,0.0441 -0.71999,-6.74969 -0.71999,-6.74969 0,0 1.49763,-1.34175 -2.77712,-6.3752 -1.25692,-1.48 -3.72935,-3.47794 -3.72935,-3.47794 z"
         id="path2196"
         sodipodi:nodetypes="cscssscccsc" />
      <g
         inkscape:groupmode="layer"
         id="layer5"
         inkscape:label="franja"
         style="display:inline"
         transform="matrix(1.0351001,-0.10036599,0.09174108,0.94614936,-5.2723734,25.433293)">
        <path
           style="opacity:1;fill:#666666;fill-opacity:1;stroke-width:0.268955"
           d="m 112.08773,84.510732 c 0,0 5.65743,2.634894 6.21619,6.152479 0.55876,3.517583 4.90414,1.185267 7.11296,-3.803041 3.81663,-8.619291 -0.33801,-13.415998 -0.33801,-13.415998 0,0 -0.29335,-6.495016 -7.23593,-0.73777 -6.94258,5.757245 -7.57037,10.677837 -7.57037,10.677837 z"
           id="path9016"
           sodipodi:nodetypes="csscscc" />
        <path
           style="opacity:1;fill:#666666;fill-opacity:1;stroke-width:0.264583"
           d="m 124.02051,67.663961 c 0,0 -4.19316,9.961238 15.19668,13.011629 19.38985,3.050392 27.01634,-0.582234 27.01634,-0.582234 0,0 -3.37705,-9.151173 -5.23442,-9.999207 -1.85737,-0.848034 -33.13722,-4.214856 -33.13722,-4.214856 z"
           id="path9842" />
        <path
           style="opacity:1;fill:#4d4d4d;fill-opacity:1;stroke-width:0.264583"
           d="m 130.19768,68.537311 c 8.59738,-4.505974 13.38205,1.918116 18.58573,2.577548 8.50274,1.077504 23.66936,-7.567502 23.66936,-7.567502 0,0 -12.01465,30.125347 -30.73094,25.785776 C 127.66261,86.073352 121.6003,73.043284 130.19768,68.537311 Z"
           id="path9432"
           sodipodi:nodetypes="zscsz"
           inkscape:label="path9432" />
      </g>
      <rect
         style="fill:#1a1a1a;fill-opacity:1;stroke-width:0.263066"
         id="rect10692-7"
         width="4.126565"
         height="11.658805"
         x="163.69052"
         y="68.524986"
         ry="1.8859754"
         transform="rotate(8.4899655,-1.7273147e-7,-8.0305994e-6)" />
      <rect
         style="fill:#1a1a1a;fill-opacity:1;stroke-width:0.263066"
         id="rect10692-0-1"
         width="4.126565"
         height="11.658805"
         x="149.08415"
         y="106.99599"
         ry="1.8859754"
         transform="rotate(-5.5382342,-1.2398397e-6,1.224446e-5)"
         inkscape:transform-center-x="-0.1790084"
         inkscape:transform-center-y="-1.3150179" />
    </g>
    <g
       inkscape:label="jump4"
       inkscape:groupmode="layer"
       id="layer1"
       transform="translate(434.41173,5.8927717)">
      <path
         style="display:inline;opacity:1;fill:none;fill-opacity:1;stroke:#1a1a1a;stroke-width:13;stroke-dasharray:none;stroke-opacity:1"
         d="m 128.86439,84.678671 c 11.45284,19.509449 22.06632,39.341119 27.72246,61.597539 8.19967,32.265 13.97053,65.13683 24.04358,96.93371"
         id="path21200-1"
         sodipodi:nodetypes="csc"
         inkscape:original-d="m 128.86439,84.678671 c 19.72056,35.819119 17.42215,25.728709 27.72246,61.597539 6.39477,22.26853 9.16827,46.96048 24.04358,96.93371"
         inkscape:path-effect="#path-effect21202-1"
         transform="rotate(12.594839,109.43778,135.31891)"
         inkscape:label="perna" />
      <path
         style="display:inline;opacity:1;fill:#1a1a1a;fill-opacity:1;stroke:none;stroke-width:13;stroke-dasharray:none;stroke-opacity:1"
         d="m 172.59959,189.10831 c 0,0 -5.46635,-4.53351 -9.25561,11.9032 -3.78926,16.43672 -1.72872,16.42815 -1.72872,16.42815 l 12.18066,2.79065 0.74113,-4.97577 c 0,0 4.39493,6.04226 13.61188,8.1539 9.21697,2.11167 19.16042,3.00964 19.16042,3.00964 0,0 -12.60137,-8.14014 -19.12516,-16.14567 -4.66449,-5.72392 -7.52708,-9.24999 -7.52708,-9.24999 z"
         id="path21990-8"
         sodipodi:nodetypes="czccczcscc"
         inkscape:transform-center-x="-13.289232"
         inkscape:transform-center-y="16.389955"
         inkscape:label="bota2" />
      <path
         style="display:inline;opacity:1;fill:none;fill-opacity:1;stroke:#1a1a1a;stroke-width:13;stroke-dasharray:none;stroke-opacity:1"
         d="m 128.35232,100.37307 c 4.58624,11.94931 21.19565,25.09531 29.6605,8.9282 5.27191,-10.068877 23.49204,-29.337945 29.56687,-11.033596 7.9365,23.913836 4.41958,50.177866 -1.6499,74.071376 -0.78412,3.08682 -1.64632,6.15392 -2.59166,9.19529"
         id="path22211-0"
         sodipodi:nodetypes="csc"
         inkscape:original-d="m 128.35232,100.37307 c 28.07303,47.49242 32.71654,-21.12344 54.91531,-7.681313 10.66444,6.45769 12.18423,49.872343 0.0705,88.842583"
         inkscape:path-effect="#path-effect22213-8"
         transform="rotate(12.594839,109.43778,135.31891)"
         inkscape:label="perna" />
      <path
         style="display:inline;opacity:1;fill:#1a1a1a;fill-opacity:1;stroke:none;stroke-width:11.3323;stroke-dasharray:none;stroke-opacity:1"
         d="m 141.42992,265.99305 c 0,0 1.97727,-6.07933 8.48282,-22.47902 3.57105,-9.00219 4.05541,10.31427 4.05541,10.31427 0,0 3.38887,-22.42042 5.15696,-12.57625 1.65895,9.23648 1.72143,13.64926 6.68887,20.7927 4.0738,5.85834 18.62567,25.06338 18.62567,25.06338 -4.96255,-0.19839 -15.25699,-1.93095 -19.74382,-8.24014 l -9.91267,-10.21519 -1.44901,5.01478 z"
         id="path22676-1"
         sodipodi:nodetypes="cscsscsccc"
         inkscape:transform-center-x="-18.676558"
         inkscape:transform-center-y="10.8616"
         inkscape:label="bota1" />
      <path
         style="opacity:1;fill:#808080;fill-opacity:1;stroke-width:0.264583"
         d="m 122.28741,110.33116 c 0,0 -4.91745,3.02119 -8.01898,2.44298 -3.10154,-0.57823 2.82834,7.50238 19.38055,6.43268 16.55221,-1.06971 11.79546,-0.9107 11.79546,-0.9107 0,0 -5.56026,-7.28555 -1.92842,-13.22675 3.63185,-5.941199 8.11541,10.98616 8.11541,10.98616 0,0 21.48264,-14.62537 20.07157,-26.554703 -0.16073,-1.358815 -1.89628,2.370699 -10.38129,2.385153 -13.44546,0.0229 -39.0343,18.44518 -39.0343,18.44518 z"
         id="path7196"
         inkscape:label="roupa"
         transform="translate(-1.1875e-6)"
         sodipodi:nodetypes="csscscssc" />
      <path
         style="opacity:1;fill:#b3b3b3;fill-opacity:1;stroke-width:0.264583"
         d="m 117.01465,55.921605 c 0,0 -1.32988,-5.024319 1.31377,-4.864817 2.64365,0.159501 5.9724,4.835816 6.62525,6.909345 0.65285,2.073526 6.30286,0.449505 6.30286,0.449505 l 6.34315,2.385283 5.51298,-1.841527 c 0,0 0.89465,0.304504 2.1923,-0.232002 1.29765,-0.536507 -0.2015,-2.704288 1.14451,-4.176057 1.346,-1.471771 4.14112,-0.01406 4.14112,-0.01406 0,0 -3.92438,3.623202 -0.82937,9.517531 3.095,5.894332 6.50351,5.610446 6.50351,5.610446 0,0 0.83108,14.105503 6.73094,18.078558 5.89985,3.973052 -30.7647,33.16192 -41.48439,23.75854 -10.71969,-9.40337 -5.28731,-10.60689 -5.40015,-18.407995 -0.11283,-7.801108 1.36044,-18.932895 1.36044,-18.932895 0,0 0.20577,0.189511 0.76755,-0.0672 1.43734,-0.656816 1.07442,-4.850374 1.04218,-8.381172 -0.58545,-3.914539 -1.24223,-8.76772 -2.26665,-9.791483 z"
         id="path5569"
         sodipodi:nodetypes="csscccsscscssscsccc"
         inkscape:label="colete"
         transform="translate(-1.1875e-6)" />
      <path
         style="opacity:1;fill:#808080;fill-opacity:1;stroke-width:0.264583"
         d="m 114.24656,70.16222 c 0,0 4.9306,9.251111 5.24802,0.133247 0.31742,-9.117864 -2.72982,-16.674841 -4.88828,-20.006 -2.15846,-3.331163 -11.32134,-23.241987 -11.57528,-32.112394 -0.25394,-8.8704051 5.98868,-31.692503 3.17421,-43.380119 -2.81447,-11.687616 -2.30659,-19.073276 -9.607273,-16.141855 -7.300679,2.931422 -11.490634,29.142901 -10.982761,40.1262138 0.507873,10.9833144 7.173711,37.9016992 7.173711,37.9016992 0,0 5.03641,17.51239 8.803143,22.956457 3.76672,5.444069 12.65451,10.522751 12.65451,10.522751 z"
         id="path4867"
         inkscape:label="rightarm"
         transform="translate(-1.1875e-6)" />
      <path
         style="opacity:1;fill:#808080;fill-opacity:1;stroke-width:0.264583"
         d="m 151.21551,54.107439 c 0,0 -4.9306,2.722033 -1.98917,9.232074 2.94143,6.510041 6.39074,6.624251 6.39074,6.624251 0,0 17.28886,-9.822166 16.84447,-37.213828 -0.44439,-27.3916611 -4.84597,-63.462261 -10.00934,-65.270606 -5.16339,-1.808344 -6.77879,-0.831369 -10.15747,3.768971 -3.37868,4.60034 7.46997,33.1783628 8.2741,45.7416 0.80414,12.563236 -4.78247,34.032718 -9.35333,37.117538 z"
         id="path4869"
         sodipodi:nodetypes="cscsszsc"
         inkscape:label="leftarm"
         transform="translate(-1.1875e-6)" />
      <path
         id="path1815-8-4"
         style="display:inline;opacity:1;fill:#666666;fill-opacity:1;stroke-width:0.266109"
         d="m 132.41383,-51.773199 c -2.3952,12.76003 -9.08366,23.985167 -15.42376,31.005552 -6.9963,7.363054 -9.58164,12.8976585 -10.26469,16.3161367 -0.51635,23.5164763 1.68574,8.40642 1.68574,8.40642 l 5.73551,17.9549713 c 0,0 3.0762,-0.29307 3.09258,6.891456 -0.70834,12.196523 18.87655,19.64619 35.1832,4.965989 1.22659,-2.398572 2.24778,-4.817829 3.08599,-7.245923 0.61223,1.038048 1.58848,0.511526 3.3205,-3.256353 5.45482,-11.866498 1.31828,-34.386146 1.31828,-34.386146 l -2.06566,8.7906024 C 154.88431,-27.055695 140.20995,-47.06944 140.20995,-47.06944 c 0,0 -0.70262,17.465813 -3.08463,25.362734 -2.93928,-8.504344 -4.33951,-26.336697 -4.71149,-30.066493 z"
         transform="matrix(1.0351001,-0.10036599,0.09174108,0.94614936,-3.7806377,25.889524)"
         inkscape:label="cabelo" />
      <path
         style="display:inline;opacity:1;fill:#666666;fill-opacity:1;stroke-width:0.277358"
         d="m 112.7586,-20.270214 c 0,0 -7.34277,14.3219555 -0.51542,13.9456983 4.41439,-0.6890007 0.51542,-13.9456983 0.51542,-13.9456983 z"
         id="path1811-1"
         sodipodi:nodetypes="ccc"
         inkscape:transform-center-x="-3.1648788"
         inkscape:transform-center-y="1.5749906"
         inkscape:label="gotinha2" />
      <path
         style="display:inline;opacity:1;fill:#666666;fill-opacity:1;stroke-width:0.282524"
         d="m 119.03022,-24.727265 c 0,0 -5.99098,8.765927 -1.97792,9.579391 6.001,1.21644 1.97792,-9.579391 1.97792,-9.579391 z"
         id="path1813-93"
         sodipodi:nodetypes="csc"
         inkscape:transform-center-y="0.076537282"
         inkscape:label="gotinha"
         inkscape:transform-center-x="-0.087062802" />
      <path
         style="display:inline;opacity:1;fill:#ececec;fill-opacity:1;stroke-width:0.263066"
         d="m 138.86151,5.4453613 c -10.61626,0.9875 -21.12313,5.0626497 -21.12313,5.0626497 l -1.26328,12.541765 c -1.936,-1.12884 -4.26756,-1.62179 -6.60156,-1.39572 -5.60292,0.54302 -9.75542,5.00218 -9.27463,9.959572 0.48057,4.95741 5.41242,8.53573 11.01529,7.99222 1.41847,-0.13945 2.79512,-0.54097 4.04109,-1.17804 1.50268,2.58987 6.1408,9.971437 16.80246,11.767116 0,0 0.24449,5.960107 -0.0143,8.727684 -0.25882,2.767576 1.50231,1.207211 1.50231,1.207211 9.3285,2.25026 4.00752,-2.043183 7.93316,2.408178 0,0 1.12555,-1.820562 0.74898,-4.660395 -0.37657,-2.839833 -0.32703,-7.791133 -0.32703,-7.791133 C 159.37137,45.849802 163.23513,35.575778 160.452,16.774026 158.90373,6.3144813 148.83436,4.5177113 138.86151,5.4453613 Z"
         id="path7707-2"
         sodipodi:nodetypes="sccccccczcczcss"
         inkscape:label="cabeça" />
      <path
         style="display:inline;opacity:1;fill:#666666;fill-opacity:1;stroke-width:0.267413"
         d="m 110.11218,22.041888 c 0,0 6.38903,0.26279 8.11479,3.185151 1.72577,2.922359 5.16904,-0.749235 5.64126,-5.996939 0.81595,-9.067507 -4.83774,-11.805112 -4.83774,-11.805112 0,0 -2.46825,-5.6674535 -7.28697,2.0045028 -4.81873,7.6719552 -3.66687,12.5317762 -3.66687,12.5317762 z"
         id="path9016-4"
         sodipodi:nodetypes="csscscc"
         inkscape:transform-center-x="0.42818201"
         inkscape:transform-center-y="0.080241777"
         inkscape:label="costeleta" />
      <path
         style="display:inline;opacity:1;fill:#4d4d4d;fill-opacity:1;stroke-width:0.268765"
         d="m 123.05405,0.99775268 c 9.65118,-7.20701138 10.78326,5.51226662 21.65971,2.86512022 11.48059,-2.7941842 12.19454,-13.4805977 12.19454,-13.4805977 0,0 7.60248,20.2887408 -11.96076,28.1441238 C 130.99838,24.127516 113.40287,8.2047641 123.05405,0.99775268 Z"
         id="path9432-3"
         sodipodi:nodetypes="zscsz"
         inkscape:label="franja" />
      <rect
         style="display:inline;opacity:1;fill:#1a1a1a;fill-opacity:1;stroke-width:0.38874"
         id="rect10692-7-3"
         width="4.2813487"
         height="24.538639"
         x="149.0885"
         y="-24.439764"
         ry="3.9694695"
         transform="matrix(0.95328484,0.30207285,-0.07014495,0.99753681,0,0)" />
      <rect
         style="display:inline;opacity:1;fill:#1a1a1a;fill-opacity:1;stroke-width:0.379691"
         id="rect10692-0-1-7"
         width="4.1884193"
         height="23.928993"
         x="150.86693"
         y="49.325756"
         ry="3.8708508"
         transform="matrix(0.98063306,-0.19585403,0.04702207,0.99889385,0,0)"
         inkscape:transform-center-x="-0.17900086"
         inkscape:transform-center-y="-2.7086525" />
      <path
         id="path5011"
         style="opacity:1;fill:#808080;fill-opacity:1;stroke-width:0.264583"
         d="m 142.39633,55.2263 c -0.23894,0.582415 -1.67862,3.632538 -5.04758,3.49609 -3.56481,-0.14438 -4.69343,-3.262904 -4.78828,-3.521134 l -0.29725,-10e-4 c 0,0 -0.53411,-0.107651 -1.25255,1.25769 -0.71845,1.365341 -0.30726,14.751758 1.61923,15.353034 3.02679,0.944694 6.47277,-9.023715 6.47277,-9.023715 0,0 3.68707,8.028389 5.65016,6.927014 1.96308,-1.101377 -0.35693,-12.391853 -1.10366,-13.680597 -0.43752,-0.755083 -1.0851,-0.825128 -1.24339,-0.829737 z"
         sodipodi:nodetypes="csccsscsscc"
         inkscape:label="gola" />
      <path
         style="opacity:1;fill:#ececec;fill-opacity:1;stroke-width:0.264583"
         d="m 153.70448,-28.802567 c 0,0 -4.98174,-1.879211 -9.11176,-8.181796 -4.13002,-6.302584 -1.09277,-5.536445 -1.09277,-5.536445 0,0 1.63916,-1.199803 4.53178,1.806934 2.89261,3.006738 1.98143,-3.086195 0.26193,-7.581846 -1.7195,-4.495652 -5.6218,-9.703584 -2.48813,-10.484179 3.13368,-0.780596 9.12027,4.159863 11.64328,9.522842 2.52301,5.36298 2.86048,19.644984 2.86048,19.644984 z"
         id="path7200"
         sodipodi:nodetypes="cscsssscc" />
      <path
         style="opacity:1;fill:#ececec;fill-opacity:1;stroke-width:0.264583"
         d="m 94.887873,-37.678225 c 0,0 -5.444442,-8.210707 -2.605212,-16.082848 2.599664,-7.207911 6.008395,-10.625424 7.840379,-10.741066 1.832,-0.115644 6.70562,-1.529741 7.73411,0.826501 1.02849,2.356241 -1.28644,12.810616 -1.80068,15.961909 2.98963,-2.783108 5.47798,-3.520254 7.54886,-1.629722 2.26589,2.110499 -12.28941,12.922852 -12.28941,12.922852 z"
         id="path7202"
         sodipodi:nodetypes="cssscccc" />
    </g>
    <g
       inkscape:label="jump3"
       inkscape:groupmode="layer"
       id="layer1-7"
       transform="translate(296.0175,-10.550406)">
      <path
         style="display:inline;opacity:1;fill:none;fill-opacity:1;stroke:#1a1a1a;stroke-width:13.167;stroke-dasharray:none;stroke-opacity:1"
         d="m 138.04289,82.521378 c -2.82738,21.972372 9.79769,41.177882 18.97545,59.974002 8.8008,18.02411 -9.41713,40.56083 -29.60612,35.34641 -16.11005,-4.16091 -28.855513,-16.40702 -38.568151,-29.37691"
         id="path21200-6"
         sodipodi:nodetypes="csc"
         inkscape:original-d="m 138.04289,82.521378 c -3.80989,45.140562 38.17215,59.919702 13.12826,89.046222 -12.89548,14.99768 -40.81872,6.13173 -62.327081,-23.10272"
         inkscape:path-effect="#path-effect21202-8" />
      <path
         style="display:inline;opacity:1;fill:#1a1a1a;fill-opacity:1;stroke:none;stroke-width:12.697;stroke-dasharray:none;stroke-opacity:1"
         d="m 206.18021,180.19463 c 0,0 -1.75102,-6.27403 -15.25782,3.63704 -13.5068,9.91105 -11.76842,11.02516 -11.76842,11.02516 l 8.49228,8.65532 3.74737,-3.22104 c 0,0 -0.0974,6.79034 6.32865,13.33971 6.42601,6.54939 14.22501,12.60985 14.22501,12.60985 0,0 -5.48741,-12.78026 -5.94786,-22.15801 -0.32921,-6.70504 -0.5229,-10.82962 -0.5229,-10.82962 z"
         id="path21990-4"
         sodipodi:nodetypes="czccczcscc"
         inkscape:transform-center-x="7.9889159"
         inkscape:transform-center-y="21.530499" />
      <path
         style="display:inline;opacity:1;fill:none;fill-opacity:1;stroke:#1a1a1a;stroke-width:12.697;stroke-dasharray:none;stroke-opacity:1"
         d="m 127.53344,108.30517 c 3.21883,18.12068 22.90425,19.7888 37.77861,12.75564 13.29786,-6.28773 34.67814,-16.95512 43.97654,1.14036 10.77018,20.95969 3.19311,47.15841 -10.6398,64.77726"
         id="path22211-1"
         sodipodi:nodetypes="csc"
         inkscape:original-d="m 127.53344,108.30517 c 14.70529,43.25704 53.8281,-8.403331 75.1378,6.28693 13.51898,9.31957 18.94845,42.84115 -4.02245,72.38633"
         inkscape:path-effect="#path-effect22213-7" />
      <path
         style="display:inline;opacity:1;fill:#1a1a1a;fill-opacity:1;stroke:none;stroke-width:11.4779;stroke-dasharray:none;stroke-opacity:1"
         d="m 79.238606,129.97691 c 0,0 14.255527,8.46498 20.703807,25.32408 3.539617,9.25438 -9.999497,-4.88835 -9.999497,-4.88835 0,0 4.899117,15.90053 -1.836248,8.31448 -4.117727,-4.63781 -7.594005,-4.51161 -15.747652,-1.92019 -5.109643,1.62399 -17.491721,18.91618 -17.491721,18.91618 0,0 1.338418,-25.40062 8.740785,-27.70743 l 8.486725,-2.64474 -4.011461,-3.33 z"
         id="path22676-6"
         sodipodi:nodetypes="cscsscsccc"
         inkscape:transform-center-x="17.391195"
         inkscape:transform-center-y="-1.4533639" />
      <path
         style="display:inline;fill:#666666;fill-opacity:1;stroke-width:0.264583"
         d="m 123.04901,4.180355 c 0,0 -7.89383,-0.84804 -9.63863,6.86022 -1.74481,7.70824 0.12664,8.78411 0.12664,8.78411 l 5.79724,17.12523 c 0,0 -1.53374,2.93647 3.15191,6.58176 4.68564,3.64528 21.19093,5.24009 21.19093,5.24009 0,0 -10.55325,-0.0253 5.83947,-1.25307 16.39272,-1.22775 25.27153,-14.69504 25.27153,-14.69504 0,0 -13.56445,6.46784 -5.92389,2.31627 7.64055,-4.15157 15.74545,-22.12483 15.74545,-22.12483 0,0 -26.39721,10.29033 -15.91431,5.16415 10.4829,-5.12618 17.70035,-15.8035022 17.70035,-15.8035022 0,0 -6.09177,0.7540622 -17.15158,-0.2838278 -11.05981,-1.0379 -18.68629,-5.29072 -28.92999,-5.55653 -10.24369,-0.2658 -16.36458,4.01233996 -17.26512,7.64497 z"
         id="path1815"
         inkscape:label="cabelo"
         sodipodi:nodetypes="csccscscscscssc" />
      <path
         style="display:inline;opacity:1;fill:#ececec;fill-opacity:1;stroke-width:0.263066"
         d="m 142.29053,3.7769308 c -10.61626,0.9875 -21.12313,5.06265 -21.12313,5.06265 l -1.26328,12.5417642 c -1.936,-1.12884 -4.26756,-1.62179 -6.60156,-1.39572 -5.60292,0.54302 -9.75542,5.00218 -9.27463,9.959572 0.48057,4.95741 5.41242,8.53573 11.01529,7.99222 1.41847,-0.13945 2.79512,-0.54097 4.04109,-1.17804 1.50268,2.58987 6.45687,10.770232 17.11853,12.565911 0,0 0.19139,2.215522 -0.233,3.367456 -0.42439,1.151934 -3.94121,8.105894 -3.94121,8.105894 9.3285,2.25026 2.03129,6.365832 10.74165,2.16912 0,0 1.04994,-3.387366 2.01794,-6.944761 0.968,-3.557394 1.03194,-7.18074 1.03194,-7.18074 14.77273,0.262761 20.84399,-14.93491 18.06086,-33.736662 C 162.33275,4.6460508 152.26338,2.8492808 142.29053,3.7769308 Z"
         id="path7707-7"
         sodipodi:nodetypes="sccccccczcczcss"
         transform="translate(-1.1875e-6)"
         inkscape:label="cabeça" />
      <path
         style="display:inline;opacity:1;fill:#666666;fill-opacity:1;stroke-width:0.267413"
         d="m 115.72015,20.404236 c 0,0 6.09773,1.92519 6.99881,5.19727 0.90108,3.272078 5.18502,0.629231 7.01373,-4.312144 3.15985,-8.538197 -1.58067,-12.6596134 -1.58067,-12.6596134 0,0 -0.89951,-6.1158127 -7.5576,0.028201 -6.65808,6.1440124 -6.85649,10.8626364 -6.85649,10.8626364 z"
         id="path9016-1"
         sodipodi:nodetypes="csscscc"
         inkscape:label="costeleta" />
      <path
         style="display:inline;fill:#666666;fill-opacity:1;stroke-width:0.264583"
         d="m 126.73053,2.2654783 c 0,0 -4.19316,9.9612397 15.19669,13.0116297 19.38985,3.05039 27.01634,-0.58224 27.01634,-0.58224 0,0 -3.37705,-9.1511697 -5.23442,-9.9991997 -1.85737,-0.84804 -33.13722,-4.21486003 -33.13722,-4.21486003 z"
         id="path9842-64" />
      <path
         style="display:inline;fill:#4d4d4d;fill-opacity:1;stroke-width:0.264583"
         d="m 131.71099,3.446395 c 8.59738,-4.50598 13.82294,6.21922 18.98179,7.21462 9.53053,1.83891 20.4574,0.113362 20.4574,0.113362 0,0 -9.19875,17.807408 -27.91504,13.467838 -14.05923,-3.25978 -20.12154,-16.28985 -11.52415,-20.79582 z"
         id="path9432-67"
         sodipodi:nodetypes="zscsz"
         inkscape:label="path9432" />
      <rect
         style="fill:#1a1a1a;fill-opacity:1;stroke-width:0.264583"
         id="rect10692"
         width="3.968024"
         height="12.264852"
         x="143.7429"
         y="31.869967"
         ry="1.984012" />
      <rect
         style="fill:#1a1a1a;fill-opacity:1;stroke-width:0.264583"
         id="rect10692-0"
         width="3.968024"
         height="12.264852"
         x="150.99316"
         y="31.40769"
         ry="1.984012" />
      <path
         style="opacity:1;fill:#ececec;fill-opacity:1;stroke-width:0.264583"
         d="m 68.995428,110.75035 c 0,0 -2.268829,-0.71648 -4.392838,1.95402 -2.124009,2.6705 -1.267163,13.35248 -1.267163,13.35248 0,0 1.013732,3.44125 4.658338,3.63666 3.644604,0.1954 11.356205,0.24968 14.107761,-1.16156 2.751558,-1.41124 1.399915,-15.2848 1.399915,-15.2848 z"
         id="path2256-1"
         transform="translate(-1.1875e-6)" />
      <path
         style="opacity:1;fill:#808080;fill-opacity:1;stroke-width:0.264583"
         d="m 110.28649,105.26941 c 0,0 -2.72088,11.14365 -6.6426,14.87644 -3.921717,3.73278 39.78013,10.66127 40.19001,6.987 l 1.76324,-15.80621 c 0,0 3.529,6.62348 6.09539,12.56566 0.93126,2.15622 9.74349,-11.64956 9.74349,-11.64956 0,0 -1.44404,-0.64264 -8.60346,-11.02059 -7.15941,-10.377956 -42.54607,4.04726 -42.54607,4.04726 z"
         id="path4420-2"
         sodipodi:nodetypes="csscscsc"
         transform="translate(-1.1875e-6)" />
      <path
         style="opacity:1;fill:#b3b3b3;fill-opacity:1;stroke-width:0.264583"
         d="m 116.57329,77.053325 c 0,0 -12.02944,0.195164 -6.60534,-14.333744 5.42409,-14.528906 13.75997,-9.72225 15.26899,-8.357521 1.50902,1.364729 2.78765,3.819802 2.78765,3.819802 l 4.67634,0.330841 c 0,0 4.93913,7.080949 8.31412,5.172676 3.375,-1.908275 4.3421,-10.398744 4.3421,-10.398744 0,0 4.91785,-1.734796 6.05088,6.397056 1.13304,8.13185 -1.08482,10.820784 -1.08482,10.820784 0,0 -0.3616,13.813303 3.08571,18.757468 3.44731,4.944166 2.62767,10.625619 -0.89196,14.377107 -3.51964,3.7515 -8.09998,16.58898 -30.61601,10.66899 -22.516017,-5.91998 -19.43031,-16.892562 -15.45264,-20.23204 3.97767,-3.339481 7.52141,-3.209372 7.52141,-3.209372 z"
         id="path3653-0"
         sodipodi:nodetypes="cszccscscsssscc" />
      <path
         style="opacity:1;fill:#808080;fill-opacity:1;stroke-width:0.264583"
         d="m 83.937441,75.357217 c 0,0 23.493529,-5.670624 28.930339,-2.030285 5.03613,3.372051 6.10192,1.696284 9.68045,-1.615196 3.57853,-3.31148 3.18777,-9.08344 0.20566,-12.41342 -2.98211,-3.32998 -41.490066,-3.162469 -47.865609,1.129501 -6.375543,4.29197 -12.230259,37.717928 -12.764982,45.247383 -0.534723,7.52945 1.789266,8.21395 6.190446,9.26844 4.401182,1.0545 10.817857,1.16549 14.910545,-4.51397 4.092687,-5.67946 0.713151,-35.072453 0.713151,-35.072453 z"
         id="path2194-3"
         sodipodi:nodetypes="csssssssc"
         transform="translate(-1.1875e-6)" />
      <path
         style="display:inline;opacity:1;fill:#808080;fill-opacity:1;stroke-width:0.264583"
         d="m 129.16873,58.140683 c 0,0 1.46849,-2.414106 3.79501,-3.427436 2.32651,-1.01334 2.6861,-1.276967 2.6861,-1.276967 0,0 -1.1359,2.024617 2.01956,3.865792 2.95202,1.722469 5.62767,1.898624 7.37989,-2.281128 1.44356,-3.443477 1.35041,13.447075 0.61572,13.301685 -0.73469,-0.14539 -3.43993,-5.885273 -3.43993,-5.885273 0,0 -2.34637,9.640667 -2.89894,9.754899 -1.73386,0.0441 -4.5202,-6.955194 -4.5202,-6.955194 0,0 -0.60307,-1.928189 -1.72955,-4.395344 -0.80648,-1.766306 -3.90766,-2.701034 -3.90766,-2.701034 z"
         id="path2196-1"
         sodipodi:nodetypes="cscssscccsc" />
      <path
         style="display:inline;fill:#666666;fill-opacity:1;stroke-width:0.264583"
         d="m 122.13828,2.2322541 c 0,0 1.11812,-0.9702584 2.3634,-2.38907933 2.31479,-2.63664067 5.06937,-6.82218207 1.90277,-9.20621467 -4.87037,-3.6667621 -4.26632,11.5951515 -4.26632,11.5951515 z"
         id="path1811-8"
         sodipodi:nodetypes="cssc"
         inkscape:transform-center-x="-0.0016582243"
         inkscape:transform-center-y="0.11142881" />
      <path
         style="display:inline;fill:#666666;fill-opacity:1;stroke-width:0.264583"
         d="m 120.75437,2.3358656 c 0,0 -8.44174,-7.971301 -8.95592,-2.01889568 -0.51418,5.95240538 8.95592,2.01889568 8.95592,2.01889568 z"
         id="path1813-9" />
    </g>
    <g
       inkscape:label="jump2"
       inkscape:groupmode="layer"
       id="layer1-2"
       transform="translate(120.64506,14.859545)">
      <path
         style="display:inline;opacity:1;fill:none;fill-opacity:1;stroke:#1a1a1a;stroke-width:13;stroke-dasharray:none;stroke-opacity:1"
         d="m 137.03941,97.561945 c 1.938,21.599645 18.46433,36.963025 31.27194,52.865455 11.92469,14.80617 0.16372,39.49387 -19.32959,40.01614 -17.21054,0.46111 -33.17044,-8.78494 -45.99381,-19.46339"
         id="path21200-2"
         sodipodi:nodetypes="csc"
         inkscape:original-d="m 137.03941,97.561945 c 5.86542,43.738675 50.01133,48.624295 31.73481,81.775415 -9.41086,17.07001 -38.56862,14.73678 -65.78627,-8.35721"
         inkscape:path-effect="#path-effect21202-4"
         transform="rotate(12.594839,109.43778,135.31891)" />
      <path
         style="display:inline;opacity:1;fill:#1a1a1a;fill-opacity:1;stroke:none;stroke-width:13;stroke-dasharray:none;stroke-opacity:1"
         d="m 209.63726,170.75464 c 0,0 -3.13343,-6.37302 -13.31513,7.07529 -10.1817,13.44831 -8.29796,14.28343 -8.29796,14.28343 l 9.97319,7.52938 2.71178,-4.23719 c 0,0 1.53856,7.31144 9.08515,13.00883 7.5466,5.69741 16.25258,10.58457 16.25258,10.58457 0,0 -8.16869,-12.58289 -10.84668,-22.55669 -1.91475,-7.13123 -3.08439,-11.5198 -3.08439,-11.5198 z"
         id="path21990-0"
         sodipodi:nodetypes="czccczcscc"
         inkscape:transform-center-x="7.6117775"
         inkscape:transform-center-y="23.688668"
         transform="rotate(12.594839,109.43778,135.31891)" />
      <path
         style="display:inline;opacity:1;fill:none;fill-opacity:1;stroke:#1a1a1a;stroke-width:13;stroke-dasharray:none;stroke-opacity:1"
         d="m 119.25926,109.90222 c 5.8975,17.30855 25.42589,17.88279 38.18921,5.84759 10.51523,-9.91536 28.86074,-24.748833 41.16579,-7.91215 14.90446,20.39339 14.44486,49.00529 5.64732,71.76589"
         id="path22211-9"
         sodipodi:nodetypes="csc"
         inkscape:original-d="m 119.25926,109.90222 c 24.05183,43.39257 48.03674,-20.20657 71.37625,-8.86006 14.8067,7.19828 27.89762,42.06445 13.62607,78.56139"
         inkscape:path-effect="#path-effect22213-0"
         transform="rotate(12.594839,109.43778,135.31891)" />
      <path
         style="display:inline;opacity:1;fill:#1a1a1a;fill-opacity:1;stroke:none;stroke-width:11.3323;stroke-dasharray:none;stroke-opacity:1"
         d="m 89.67911,155.50322 c 0,0 15.72227,4.935 25.6013,19.55268 5.42285,8.02401 -10.80547,-2.46417 -10.80547,-2.46417 0,0 8.16226,14.04464 -0.0278,8.30386 -5.007074,-3.50968 -8.375827,-2.63105 -15.789777,1.61164 -4.646092,2.65879 -13.068172,21.79774 -13.068172,21.79774 0,0 -4.087179,-24.436 2.653381,-28.2442 l 7.72797,-4.36606 -4.625526,-2.28977 z"
         id="path22676-4"
         sodipodi:nodetypes="cscsscsccc"
         inkscape:transform-center-x="17.406207"
         inkscape:transform-center-y="-1.4155206"
         transform="rotate(12.594839,109.43778,135.31891)" />
      <path
         style="display:inline;opacity:1;fill:#666666;fill-opacity:1;stroke-width:0.266109"
         d="m 117.4101,-12.599547 c 0,0 -7.59817,-0.810854 -9.20336,7.315649 -1.6052,8.126507 0.20439,9.238982 0.20439,9.238982 l 5.73531,17.954925 c 0,0 -1.44713,3.10475 3.09257,6.89113 16.70523,14.43945 14.81754,-2.15256 26.02816,3.91596 16.07745,9.2015 25.27283,6.85226 25.27283,6.85226 0,0 -14.74955,-22.309058 -9.19671,-15.46983 20.31123,26.78635 17.46563,24.80702 17.09365,21.07722 0,0 -1.73829,-44.79721302 -18.57925,-62.697585 -4.36475,-4.639321 -14.30314,-4.485035 -24.1553,-4.659242 -9.85217,-0.174209 -15.46055,5.749993 -16.29229,9.580531 z"
         id="path1815-8-5"
         sodipodi:nodetypes="cscccccccssc"
         transform="matrix(1.0351001,-0.10036599,0.09174108,0.94614936,-3.7806377,25.889524)" />
      <path
         style="display:inline;opacity:1;fill:#666666;fill-opacity:1;stroke-width:0.278957"
         d="m 116.51024,-16.545962 c 0,0 -9.98617,-12.934798 -12.18274,-6.154938 -1.02477,4.564431 12.18274,6.154938 12.18274,6.154938 z"
         id="path1811-5"
         sodipodi:nodetypes="ccc"
         inkscape:transform-center-x="2.6387229"
         inkscape:transform-center-y="2.1424049"
         transform="matrix(1.0351001,-0.10036599,0.09174108,0.94614936,-3.7806377,25.889524)" />
      <path
         style="display:inline;opacity:1;fill:#666666;fill-opacity:1;stroke-width:0.284153"
         d="m 115.47011,-15.087902 c 0,0 -9.6499,-3.647666 -9.38686,0.650241 0.39333,6.4269545 9.38686,-0.650241 9.38686,-0.650241 z"
         id="path1813-7"
         sodipodi:nodetypes="csc"
         inkscape:transform-center-y="0.91076732"
         transform="matrix(1.0351001,-0.10036599,0.09174108,0.94614936,-3.7806377,25.889524)" />
      <path
         style="display:inline;opacity:1;fill:#ececec;fill-opacity:1;stroke-width:0.263066"
         d="m 142.29053,3.7769308 c -10.61626,0.9875 -21.12313,5.06265 -21.12313,5.06265 l -1.26328,12.5417642 c -1.936,-1.12884 -4.26756,-1.62179 -6.60156,-1.39572 -5.60292,0.54302 -9.75542,5.00218 -9.27463,9.959572 0.48057,4.95741 5.41242,8.53573 11.01529,7.99222 1.41847,-0.13945 2.79512,-0.54097 4.04109,-1.17804 1.50268,2.58987 6.45687,10.770232 17.11853,12.565911 0,0 0.19139,2.215522 -0.233,3.367456 -0.42439,1.151934 -3.94121,8.105894 -3.94121,8.105894 9.3285,2.25026 2.03129,6.365832 10.74165,2.16912 0,0 1.04994,-3.387366 2.01794,-6.944761 0.968,-3.557394 1.03194,-7.18074 1.03194,-7.18074 14.77273,0.262761 20.84399,-14.93491 18.06086,-33.736662 C 162.33275,4.6460508 152.26338,2.8492808 142.29053,3.7769308 Z"
         id="path7707-9"
         sodipodi:nodetypes="sccccccczcczcss"
         transform="translate(-1.1875e-6)" />
      <path
         style="display:inline;opacity:1;fill:#666666;fill-opacity:1;stroke-width:0.268955"
         d="m 114.2923,6.8194898 c 0,0 5.65743,2.634894 6.21619,6.1524792 0.55876,3.517583 4.90414,1.185267 7.11296,-3.8030412 3.81663,-8.61929099 -0.33801,-13.415998 -0.33801,-13.415998 0,0 -0.29335,-6.4950158 -7.23593,-0.73777 -6.94258,5.75724501 -7.57037,10.677837 -7.57037,10.677837 z"
         id="path9016-9"
         sodipodi:nodetypes="csscscc"
         transform="matrix(1.0351001,-0.10036599,0.09174108,0.94614936,-5.2723744,25.433292)" />
      <path
         style="display:inline;opacity:1;fill:#666666;fill-opacity:1;stroke-width:0.35883"
         d="m 126.0504,-8.1109703 c 0,0 -4.92415,19.0682753 13.94055,22.9398853 18.8647,3.871611 26.66891,-3.662436 26.66891,-3.662436 0,0 -2.60015,-16.8295857 -4.36302,-18.2421869 -1.76286,-1.4126013 -32.31913,-4.7456551 -32.31913,-4.7456551 z"
         id="path9842-6"
         transform="matrix(1.0351001,-0.10036599,0.09174108,0.94614936,-5.2723744,25.433292)" />
      <path
         style="display:inline;opacity:1;fill:#4d4d4d;fill-opacity:1;stroke-width:0.264583"
         d="m 129.09991,-9.73343 c 8.59738,-4.505974 14.37261,-0.828192 18.58573,2.577548 13.6956,11.071043 24.8564,40.528191 24.8564,40.528191 0,0 -14.0718,-12.882919 -32.78809,-17.22249 C 125.69473,12.890038 120.50253,-5.227457 129.09991,-9.73343 Z"
         id="path9432-6"
         sodipodi:nodetypes="zscsz"
         inkscape:label="path9432"
         transform="matrix(1.0351001,-0.10036599,0.09174108,0.94614936,-5.2723744,25.433292)" />
      <path
         style="opacity:1;fill:#ececec;fill-opacity:1;stroke-width:0.264583"
         d="m 68.995428,110.75035 c 0,0 -2.268829,-0.71648 -4.392838,1.95402 -2.124009,2.6705 -1.267163,13.35248 -1.267163,13.35248 0,0 1.013732,3.44125 4.658338,3.63666 3.644604,0.1954 11.356205,0.24968 14.107761,-1.16156 2.751558,-1.41124 1.399915,-15.2848 1.399915,-15.2848 z"
         id="path2256-5"
         transform="translate(-1.1875e-6)" />
      <rect
         style="fill:#1a1a1a;fill-opacity:1;stroke-width:0.263066"
         id="rect10692-7-5"
         width="4.126565"
         height="11.658805"
         x="145.45436"
         y="-2.8600376"
         ry="1.8859754"
         transform="rotate(8.4899655)" />
      <rect
         style="fill:#1a1a1a;fill-opacity:1;stroke-width:0.263066"
         id="rect10692-0-1-4"
         width="4.126565"
         height="11.658805"
         x="148.69556"
         y="33.319477"
         ry="1.8859754"
         transform="rotate(-5.5382343)"
         inkscape:transform-center-x="-0.1790084"
         inkscape:transform-center-y="-1.3150179" />
      <path
         style="opacity:1;fill:#808080;fill-opacity:1;stroke-width:0.264583"
         d="m 110.28649,105.26941 c 0,0 -2.72088,11.14365 -6.6426,14.87644 -3.921717,3.73278 39.78013,10.66127 40.19001,6.987 l 1.76324,-15.80621 c 0,0 3.529,6.62348 6.09539,12.56566 0.93126,2.15622 9.74349,-11.64956 9.74349,-11.64956 0,0 -1.44404,-0.64264 -8.60346,-11.02059 -7.15941,-10.377956 -42.54607,4.04726 -42.54607,4.04726 z"
         id="path4420"
         sodipodi:nodetypes="csscscsc"
         transform="translate(-1.1875e-6)" />
      <path
         style="opacity:1;fill:#b3b3b3;fill-opacity:1;stroke-width:0.264583"
         d="m 116.57329,77.053325 c 0,0 -12.02944,0.195164 -6.60534,-14.333744 5.42409,-14.528906 13.75997,-9.72225 15.26899,-8.357521 1.50902,1.364729 2.78765,3.819802 2.78765,3.819802 l 4.67634,0.330841 c 0,0 4.93913,7.080949 8.31412,5.172676 3.375,-1.908275 4.3421,-10.398744 4.3421,-10.398744 0,0 4.91785,-1.734796 6.05088,6.397056 1.13304,8.13185 -1.08482,10.820784 -1.08482,10.820784 0,0 -0.3616,13.813303 3.08571,18.757468 3.44731,4.944166 2.62767,10.625619 -0.89196,14.377107 -3.51964,3.7515 -8.09998,16.58898 -30.61601,10.66899 -22.516017,-5.91998 -19.43031,-16.892562 -15.45264,-20.23204 3.97767,-3.339481 7.52141,-3.209372 7.52141,-3.209372 z"
         id="path3653"
         sodipodi:nodetypes="cszccscscsssscc" />
      <path
         style="opacity:1;fill:#808080;fill-opacity:1;stroke-width:0.264583"
         d="m 83.937441,75.357217 c 0,0 23.493529,-5.670624 28.930339,-2.030285 5.03613,3.372051 6.10192,1.696284 9.68045,-1.615196 3.57853,-3.31148 3.18777,-9.08344 0.20566,-12.41342 -2.98211,-3.32998 -41.490066,-3.162469 -47.865609,1.129501 -6.375543,4.29197 -12.230259,37.717928 -12.764982,45.247383 -0.534723,7.52945 1.789266,8.21395 6.190446,9.26844 4.401182,1.0545 10.817857,1.16549 14.910545,-4.51397 4.092687,-5.67946 0.713151,-35.072453 0.713151,-35.072453 z"
         id="path2194-7"
         sodipodi:nodetypes="csssssssc"
         transform="translate(-1.1875e-6)" />
      <path
         style="display:inline;opacity:1;fill:#808080;fill-opacity:1;stroke-width:0.264583"
         d="m 129.16873,58.140683 c 0,0 1.46849,-2.414106 3.79501,-3.427436 2.32651,-1.01334 2.6861,-1.276967 2.6861,-1.276967 0,0 -1.1359,2.024617 2.01956,3.865792 2.95202,1.722469 5.62767,1.898624 7.37989,-2.281128 1.44356,-3.443477 1.35041,13.447075 0.61572,13.301685 -0.73469,-0.14539 -3.43993,-5.885273 -3.43993,-5.885273 0,0 -2.34637,9.640667 -2.89894,9.754899 -1.73386,0.0441 -4.5202,-6.955194 -4.5202,-6.955194 0,0 -0.60307,-1.928189 -1.72955,-4.395344 -0.80648,-1.766306 -3.90766,-2.701034 -3.90766,-2.701034 z"
         id="path2196-4"
         sodipodi:nodetypes="cscssscccsc" />
    </g>
  </g>
</svg>
