<?xml version="1.0" encoding="UTF-8" standalone="no"?>
<!-- Created with Inkscape (http://www.inkscape.org/) -->

<svg
   width="297mm"
   height="210mm"
   viewBox="0 0 297 210"
   version="1.1"
   id="svg14799"
   xml:space="preserve"
   inkscape:version="1.2.2 (732a01da63, 2022-12-09)"
   sodipodi:docname="laz_idle.svg"
   xmlns:inkscape="http://www.inkscape.org/namespaces/inkscape"
   xmlns:sodipodi="http://sodipodi.sourceforge.net/DTD/sodipodi-0.dtd"
   xmlns="http://www.w3.org/2000/svg"
   xmlns:svg="http://www.w3.org/2000/svg"><sodipodi:namedview
     id="namedview14801"
     pagecolor="#ffffff"
     bordercolor="#111111"
     borderopacity="1"
     inkscape:showpageshadow="0"
     inkscape:pageopacity="0"
     inkscape:pagecheckerboard="1"
     inkscape:deskcolor="#d1d1d1"
     inkscape:document-units="mm"
     showgrid="false"
     inkscape:zoom="0.46769781"
     inkscape:cx="472.52733"
     inkscape:cy="470.3892"
     inkscape:window-width="1366"
     inkscape:window-height="705"
     inkscape:window-x="-8"
     inkscape:window-y="-8"
     inkscape:window-maximized="1"
     inkscape:current-layer="layer1" /><defs
     id="defs14796"><inkscape:path-effect
       effect="simplify"
       id="path-effect21202"
       is_visible="true"
       lpeversion="1"
       steps="1"
       threshold="0.00961538"
       smooth_angles="360"
       helper_size="0"
       simplify_individual_paths="false"
       simplify_just_coalesce="false" /><inkscape:path-effect
       effect="simplify"
       id="path-effect22213"
       is_visible="true"
       lpeversion="1"
       steps="1"
       threshold="0.00961538"
       smooth_angles="360"
       helper_size="0"
       simplify_individual_paths="false"
       simplify_just_coalesce="false" /><pattern
       id="EMFhbasepattern"
       patternUnits="userSpaceOnUse"
       width="6"
       height="6"
       x="0"
       y="0" /><inkscape:path-effect
       effect="simplify"
       id="path-effect21202-5"
       is_visible="true"
       lpeversion="1"
       steps="1"
       threshold="0.00961538"
       smooth_angles="360"
       helper_size="0"
       simplify_individual_paths="false"
       simplify_just_coalesce="false" /><inkscape:path-effect
       effect="simplify"
       id="path-effect22213-3"
       is_visible="true"
       lpeversion="1"
       steps="1"
       threshold="0.00961538"
       smooth_angles="360"
       helper_size="0"
       simplify_individual_paths="false"
       simplify_just_coalesce="false" /><pattern
       id="EMFhbasepattern-2"
       patternUnits="userSpaceOnUse"
       width="6"
       height="6"
       x="0"
       y="0" /><inkscape:path-effect
       effect="simplify"
       id="path-effect21202-6"
       is_visible="true"
       lpeversion="1"
       steps="1"
       threshold="0.00961538"
       smooth_angles="360"
       helper_size="0"
       simplify_individual_paths="false"
       simplify_just_coalesce="false" /><inkscape:path-effect
       effect="simplify"
       id="path-effect22213-0"
       is_visible="true"
       lpeversion="1"
       steps="1"
       threshold="0.00961538"
       smooth_angles="360"
       helper_size="0"
       simplify_individual_paths="false"
       simplify_just_coalesce="false" /><pattern
       id="EMFhbasepattern-1"
       patternUnits="userSpaceOnUse"
       width="6"
       height="6"
       x="0"
       y="0" /><inkscape:path-effect
       effect="simplify"
       id="path-effect21202-7"
       is_visible="true"
       lpeversion="1"
       steps="1"
       threshold="0.00961538"
       smooth_angles="360"
       helper_size="0"
       simplify_individual_paths="false"
       simplify_just_coalesce="false" /><inkscape:path-effect
       effect="simplify"
       id="path-effect22213-5"
       is_visible="true"
       lpeversion="1"
       steps="1"
       threshold="0.00961538"
       smooth_angles="360"
       helper_size="0"
       simplify_individual_paths="false"
       simplify_just_coalesce="false" /><pattern
       id="EMFhbasepattern-7"
       patternUnits="userSpaceOnUse"
       width="6"
       height="6"
       x="0"
       y="0" /></defs><g
     inkscape:label="Camada 1"
     inkscape:groupmode="layer"
     id="layer1"
     transform="matrix(0.71861225,0,0,0.71861225,104.92298,10.817531)"><g
       inkscape:label="idle"
       id="layer1-5"
       transform="translate(-229.22079,-22.297292)"><path
         style="fill:#ececec;fill-opacity:1;stroke-width:0.264583"
         d="m 100.79141,161.93428 c 0,0 -1.855109,10.99594 -1.698889,16.56417 0.156218,5.56823 4.139809,14.91303 5.467679,14.98329 1.32786,0.0703 2.73384,1.45793 1.97226,-2.00246 -0.76156,-3.46038 -1.8551,-7.76391 -1.71841,-12.13769 0.1367,-4.37378 -0.2148,-8.41383 0.66394,-8.94079 0.87873,-0.52696 0.83968,3.61847 2.36281,6.34111 1.52314,2.72264 4.80375,-3.93465 2.92911,-9.7488 -1.87463,-5.81415 -1.09353,-12.22552 -5.2724,-10.08254 -4.17886,2.14298 -4.7061,5.02371 -4.7061,5.02371 z"
         id="path8060"
         inkscape:label="mãoe" /><path
         style="fill:#ececec;fill-opacity:1;stroke-width:0.264583"
         d="m 153.30062,154.59194 c 0,0 -2.71431,3.56577 -2.4214,7.13155 0.29291,3.56578 1.4255,7.79904 0.87874,11.54047 -0.54677,3.74143 -1.62078,12.01474 1.074,13.43753 2.69479,1.4228 4.74517,-6.11276 5.21382,-9.1867 0.46866,-3.07395 3.08534,-3.46038 2.89006,-7.60582 -0.19527,-4.14544 -1.36692,-12.24309 -3.51493,-13.57806 -2.14802,-1.33497 -4.12029,-1.73897 -4.12029,-1.73897 z"
         id="path8062"
         inkscape:label="mãod" /><path
         style="display:inline;opacity:1;fill:none;fill-opacity:1;stroke:#1a1a1a;stroke-width:13;stroke-dasharray:none;stroke-opacity:1"
         d="m 171.58683,98.566007 c 6.23844,51.427553 14.71681,102.535033 22.50603,153.739733"
         id="path21200"
         sodipodi:nodetypes="cc"
         inkscape:original-d="m 171.58683,98.566007 c 7.55113,60.805373 14.57171,101.124723 22.50603,153.739733"
         inkscape:path-effect="#path-effect21202"
         transform="rotate(12.594839,20.959668,-102.99388)"
         inkscape:label="perna" /><path
         style="display:inline;opacity:1;fill:#1a1a1a;fill-opacity:1;stroke:none;stroke-width:13;stroke-dasharray:none;stroke-opacity:1"
         d="m 137.8534,246.14366 c 0,0 -0.33257,17.40312 -1.17618,26.82577 -0.84363,9.42269 0.19217,17.07721 0.19217,17.07721 l 13.01919,0.36025 -0.0122,-5.03065 c 0,0 5.24998,5.31621 14.67919,6.0242 9.42923,0.70801 20.865,-1.37408 20.865,-1.37408 0,0 -15.14795,-4.68049 -22.79671,-11.61913 -5.46883,-4.9611 -8.82704,-8.01888 -8.82704,-8.01888 z"
         id="path21990"
         sodipodi:nodetypes="czccczcscc"
         inkscape:label="bota1" /><path
         style="display:inline;opacity:1;fill:none;fill-opacity:1;stroke:#1a1a1a;stroke-width:13;stroke-dasharray:none;stroke-opacity:1"
         d="m 187.46277,101.36958 c 6.19197,24.60463 13.41802,48.8647 19.72622,73.49241 5.08794,19.86373 11.3579,39.40498 17.19223,59.05675"
         id="path22211"
         inkscape:path-effect="#path-effect22213"
         inkscape:original-d="m 187.46277,101.36958 c 6.9756,28.03464 11.93305,37.12051 18.98062,70.23281 2.24485,10.54721 8.88426,32.30669 17.93783,62.31635"
         sodipodi:nodetypes="csc"
         inkscape:label="perna2"
         transform="rotate(12.594839,20.959668,-102.99388)" /><path
         style="fill:#808080;fill-opacity:1;stroke-width:0.246809"
         d="m 146.07546,128.2508 c 1.92278,6.13569 2.24213,24.30442 2.24213,24.30442 0,0 4.82543,10.21576 10.65819,7.87738 5.83276,-2.33836 4.14305,-11.58954 4.4355,-20.78225 0.29245,-9.19272 -6.67762,-17.74237 -8.65978,-26.99354 -1.98217,-9.25118 1.55973,-21.93684 -5.49157,-27.227398 -7.05131,-5.290561 -6.87259,7.599698 -6.87259,7.599698 0,0 1.32735,27.68905 3.68812,35.22169 z"
         id="path7969" /><path
         style="fill:#808080;fill-opacity:1;stroke-width:0.264583"
         d="m 115.88747,126.53526 c 0,0 -7.11023,10.42962 -4.98934,10.02217 0.10759,-0.0207 17.40643,5.90532 17.40643,5.90532 2.44227,-0.17782 3.95772,-14.69581 3.95772,-14.69581 0,0 0.56019,16.39389 3.45127,16.80485 0,0 9.05433,-3.77032 14.23651,-5.92219 1.58464,-0.65801 -2.88857,-4.52178 -4.40788,-11.05138 -1.51931,-6.52959 -29.65471,-1.06296 -29.65471,-1.06296 z"
         id="path7868"
         inkscape:label="roupa"
         sodipodi:nodetypes="csscsssc" /><path
         style="fill:#b3b3b3;fill-opacity:1;stroke-width:0.286195"
         d="m 113.55214,82.238132 c 0,0 -0.54396,-3.957402 2.42853,-4.330225 3.39024,-0.425224 4.50695,3.354767 4.50695,3.354767 l 18.48979,1.356557 c 0,0 3.70246,-3.24236 7.56469,-0.932942 4.04724,2.420053 1.4726,6.709119 0.66014,10.679426 0.51938,5.445232 3.30749,20.734775 3.30749,20.734775 0,0 2.57655,0.49088 2.80809,7.386 0.23154,6.89512 -0.90449,9.84364 -3.92454,10.65688 -3.02005,0.81323 -24.57456,1.76229 -30.42763,-0.12701 -5.85308,-1.8893 -7.5049,-3.93699 -7.65727,-8.92606 -0.3799,-12.43912 3.53897,-10.40334 3.53897,-10.40334 0,0 1.80011,-10.25405 1.61322,-14.243141 -0.18689,-3.989098 -2.90843,-15.205687 -2.90843,-15.205687 z"
         id="path7865"
         sodipodi:nodetypes="csccsccsssscsc"
         inkscape:label="colete" /><path
         style="display:inline;opacity:1;fill:#666666;fill-opacity:1;stroke-width:0.264583"
         d="m 99.138375,24.782204 c 0,0 0.110337,-1.476288 -0.0048,-3.360556 -0.213877,-3.502048 -1.20651,-8.413375 -5.133533,-7.875388 -6.039947,0.827449 5.138333,11.235944 5.138333,11.235944 z"
         id="path1811-7"
         sodipodi:nodetypes="cssc"
         inkscape:transform-center-x="1.0903215"
         inkscape:transform-center-y="0.75443982"
         transform="translate(13.518943,4.828889)"
         inkscape:label="gotinha" /><path
         style="display:inline;opacity:1;fill:#666666;fill-opacity:1;stroke-width:0.264583"
         d="m 100.17187,27.340876 c 0,0 -7.893834,-0.848034 -9.638636,6.860217 -1.744806,7.708249 0.126637,8.784114 0.126637,8.784114 l 5.797257,17.125227 c 0,0 -1.533742,2.936476 3.151904,6.58176 4.685648,3.64528 21.190928,5.240091 21.190928,5.240091 0,0 -10.55325,-0.02532 5.83947,-1.253067 16.39272,-1.227751 25.27153,-14.69504 25.27153,-14.69504 0,0 -13.56445,6.467843 -5.92389,2.316274 7.64055,-4.151572 15.74545,-22.124831 15.74545,-22.124831 0,0 -26.39721,10.290325 -15.91431,5.164148 10.4829,-5.126178 18.23603,-20.960367 18.23603,-20.960367 0,0 -6.62745,5.910924 -17.68726,4.873032 -11.05981,-1.037893 -18.68629,-5.29072 -28.92999,-5.556522 -10.24369,-0.265802 -16.36457,4.01234 -17.26512,7.644964 z"
         id="path1815"
         transform="translate(13.518943,4.828889)"
         inkscape:label="cabelo" /><path
         style="display:inline;opacity:1;fill:#666666;fill-opacity:1;stroke-width:0.264583"
         d="m 97.762725,25.318155 c 0,0 -9.653252,-6.451305 -9.16722,-0.496535 0.486029,5.95477 9.16722,0.496535 9.16722,0.496535 z"
         id="path1813-4"
         transform="translate(13.518943,4.828889)"
         inkscape:label="gotinha2" /><path
         id="path7707-4"
         style="display:inline;opacity:1;fill:#ececec;fill-opacity:1;stroke-width:0.264583"
         d="m 122.32164,28.206848 c -10.25238,-0.04385 -20.68659,3.156397 -20.68659,3.156397 l -2.372983,13.003857 c -1.748167,-1.378532 -3.933939,-2.131397 -6.18877,-2.131653 -5.412905,-2.65e-4 -9.801049,4.247207 -9.800952,9.48676 -9.6e-5,5.239553 4.388048,9.487024 9.800952,9.486759 1.370555,-0.0022 2.725395,-0.282642 3.977019,-0.823205 1.197863,2.864343 5.125874,9.479537 16.289444,11.299568 l 0.10128,10.319267 11.03137,1.974557 -0.28215,-12.042676 c 12.85047,-1.420326 18.663,-9.706365 17.74413,-29.675708 -0.51117,-11.109067 -9.98173,-14.012728 -19.61275,-14.053923 z"
         sodipodi:nodetypes="sccccccccccss"
         inkscape:label="cabeça"
         transform="translate(13.518943,4.828889)" /><path
         style="display:inline;opacity:1;fill:#666666;fill-opacity:1;stroke-width:0.268955"
         d="m 91.419144,43.779847 c 0,0 5.657432,2.634894 6.216191,6.152479 0.558758,3.517583 4.904135,1.185267 7.112965,-3.803041 3.81662,-8.619291 -0.33802,-13.415998 -0.33802,-13.415998 0,0 -0.29335,-6.495016 -7.235927,-0.73777 -6.942578,5.757245 -7.570375,10.677837 -7.570375,10.677837 z"
         id="path9016-0"
         sodipodi:nodetypes="csscscc"
         transform="translate(13.518943,4.828889)"
         inkscape:label="costeleta" /><path
         style="display:inline;opacity:1;fill:#666666;fill-opacity:1;stroke-width:0.264583"
         d="m 103.35192,26.933076 c 0,0 -4.193161,9.961238 15.19668,13.011629 19.38985,3.050392 27.01634,-0.582234 27.01634,-0.582234 0,0 -3.37705,-9.151173 -5.23442,-9.999207 -1.85737,-0.848034 -33.13722,-4.214856 -33.13722,-4.214856 z"
         id="path9842-8"
         transform="translate(13.518943,4.828889)"
         inkscape:label="preench" /><path
         style="display:inline;opacity:1;fill:#4d4d4d;fill-opacity:1;stroke-width:0.264583"
         d="m 109.5291,27.806426 c 8.59737,-4.505974 13.82293,6.21922 18.98178,7.214619 9.53053,1.838915 19.00993,-3.126336 19.00993,-3.126336 0,0 -7.75128,21.04711 -26.46757,16.707539 C 106.99402,45.342467 100.93171,32.312399 109.5291,27.806426 Z"
         id="path9432-3"
         sodipodi:nodetypes="zscsz"
         inkscape:label="franja"
         transform="translate(13.518943,4.828889)" /><path
         style="fill:#808080;fill-opacity:1;stroke-width:0.264583"
         d="m 118.615,91.083457 c 0,0 0.19159,-13.818571 -7.36753,-8.147002 -7.55911,5.671566 -3.76214,19.270795 -5.88705,29.188205 -2.12491,9.91741 -9.596933,19.08278 -9.283421,28.93752 0.31351,9.85474 -1.49789,19.77216 4.754921,22.27892 6.25281,2.50678 11.42575,-8.44468 11.42575,-8.44468 0,0 0.34235,-19.47718 2.4036,-26.05474 2.53079,-8.07512 3.95373,-37.758223 3.95373,-37.758223 z"
         id="path7940" /><path
         style="display:inline;fill:#808080;fill-opacity:1;stroke:none;stroke-width:0.244665;stroke-opacity:1"
         d="m 126.89306,79.478332 -1.32788,0.107913 c 0,0 -0.9165,0.227952 -1.63571,0.639483 -1.19583,0.684254 -1.77258,1.162743 -1.77258,1.162743 0,0 4.65264,13.340438 8.85362,14.088351 4.20099,0.747923 4.66243,-7.096945 4.66243,-7.096945 0,0 1.82882,4.798755 3.66938,5.45996 1.84058,0.661205 3.73768,-9.170005 2.96493,-10.644166 -0.77276,-1.474161 -1.6527,-2.583737 -3.38651,-3.002692 -1.11049,-0.268341 -1.13475,-0.404828 -1.13475,-0.404828 -1.30818,5.293844 -10.91037,3.313923 -10.89293,-0.309819 z"
         id="path17708"
         sodipodi:nodetypes="ccscscssscc" /><path
         style="fill:#1a1a1a;fill-opacity:1;stroke-width:0.264583"
         d="m 106.83745,268.74321 c -0.62317,10.55278 -6.2881,17.15255 -4.15123,19.51546 2.13686,2.36291 16.35993,4.11368 16.35993,4.11368 0,0 6.90057,-1.45692 7.43139,-3.75864 0.53081,-2.30169 -5.52591,-5.35021 -6.81892,-15.41401 -1.293,-10.06382 -12.198,-15.00927 -12.82117,-4.45649 z"
         id="path8004"
         sodipodi:nodetypes="zscssz" /><rect
         style="fill:#1a1a1a;fill-opacity:1;stroke-width:0.263066"
         id="rect10692"
         width="4.126565"
         height="11.658805"
         x="135.30917"
         y="53.847813"
         ry="1.8859754"
         transform="rotate(-0.91416517)" /><rect
         style="fill:#1a1a1a;fill-opacity:1;stroke-width:0.263066"
         id="rect10692-0"
         width="4.126565"
         height="11.658805"
         x="143.67879"
         y="53.954128"
         ry="1.8859754"
         transform="rotate(-0.91416517)" /></g><g
       inkscape:label="idle"
       id="layer1-4"
       transform="translate(-130.52989,-22.297292)"><path
         style="fill:#ececec;fill-opacity:1;stroke-width:0.264583"
         d="m 100.79141,161.93428 c 0,0 -1.855109,10.99594 -1.698889,16.56417 0.156218,5.56823 4.139809,14.91303 5.467679,14.98329 1.32786,0.0703 2.73384,1.45793 1.97226,-2.00246 -0.76156,-3.46038 -1.8551,-7.76391 -1.71841,-12.13769 0.1367,-4.37378 -0.2148,-8.41383 0.66394,-8.94079 0.87873,-0.52696 0.83968,3.61847 2.36281,6.34111 1.52314,2.72264 4.80375,-3.93465 2.92911,-9.7488 -1.87463,-5.81415 -1.09353,-12.22552 -5.2724,-10.08254 -4.17886,2.14298 -4.7061,5.02371 -4.7061,5.02371 z"
         id="path8060-2"
         inkscape:label="mãoe" /><path
         style="fill:#ececec;fill-opacity:1;stroke-width:0.264583"
         d="m 153.30062,154.59194 c 0,0 -2.71431,3.56577 -2.4214,7.13155 0.29291,3.56578 1.4255,7.79904 0.87874,11.54047 -0.54677,3.74143 -1.62078,12.01474 1.074,13.43753 2.69479,1.4228 4.74517,-6.11276 5.21382,-9.1867 0.46866,-3.07395 3.08534,-3.46038 2.89006,-7.60582 -0.19527,-4.14544 -1.36692,-12.24309 -3.51493,-13.57806 -2.14802,-1.33497 -4.12029,-1.73897 -4.12029,-1.73897 z"
         id="path8062-6"
         inkscape:label="mãod" /><path
         style="display:inline;opacity:1;fill:none;fill-opacity:1;stroke:#1a1a1a;stroke-width:13;stroke-dasharray:none;stroke-opacity:1"
         d="m 171.58683,98.566007 c 6.23844,51.427553 14.71681,102.535033 22.50603,153.739733"
         id="path21200-9"
         sodipodi:nodetypes="cc"
         inkscape:original-d="m 171.58683,98.566007 c 7.55113,60.805373 14.57171,101.124723 22.50603,153.739733"
         inkscape:path-effect="#path-effect21202-5"
         transform="rotate(12.594839,20.959668,-102.99388)"
         inkscape:label="perna" /><path
         style="display:inline;opacity:1;fill:#1a1a1a;fill-opacity:1;stroke:none;stroke-width:13;stroke-dasharray:none;stroke-opacity:1"
         d="m 137.8534,246.14366 c 0,0 -0.33257,17.40312 -1.17618,26.82577 -0.84363,9.42269 0.19217,17.07721 0.19217,17.07721 l 13.01919,0.36025 -0.0122,-5.03065 c 0,0 5.24998,5.31621 14.67919,6.0242 9.42923,0.70801 20.865,-1.37408 20.865,-1.37408 0,0 -15.14795,-4.68049 -22.79671,-11.61913 -5.46883,-4.9611 -8.82704,-8.01888 -8.82704,-8.01888 z"
         id="path21990-9"
         sodipodi:nodetypes="czccczcscc"
         inkscape:label="bota1" /><path
         style="display:inline;opacity:1;fill:none;fill-opacity:1;stroke:#1a1a1a;stroke-width:13;stroke-dasharray:none;stroke-opacity:1"
         d="m 187.46277,101.36958 c 6.19197,24.60463 13.41802,48.8647 19.72622,73.49241 5.08794,19.86373 11.3579,39.40498 17.19223,59.05675"
         id="path22211-1"
         inkscape:path-effect="#path-effect22213-3"
         inkscape:original-d="m 187.46277,101.36958 c 6.9756,28.03464 11.93305,37.12051 18.98062,70.23281 2.24485,10.54721 8.88426,32.30669 17.93783,62.31635"
         sodipodi:nodetypes="csc"
         inkscape:label="perna2"
         transform="rotate(12.594839,20.959668,-102.99388)" /><path
         style="fill:#808080;fill-opacity:1;stroke-width:0.246809"
         d="m 146.07546,128.2508 c 1.92278,6.13569 2.24213,24.30442 2.24213,24.30442 0,0 4.82543,10.21576 10.65819,7.87738 5.83276,-2.33836 4.14305,-11.58954 4.4355,-20.78225 0.29245,-9.19272 -6.67762,-17.74237 -8.65978,-26.99354 -1.98217,-9.25118 1.55973,-21.93684 -5.49157,-27.227398 -7.05131,-5.290561 -6.87259,7.599698 -6.87259,7.599698 0,0 1.32735,27.68905 3.68812,35.22169 z"
         id="path7969-9" /><path
         style="fill:#808080;fill-opacity:1;stroke-width:0.264583"
         d="m 115.88747,126.53526 c 0,0 -7.11023,10.42962 -4.98934,10.02217 0.10759,-0.0207 17.40643,5.90532 17.40643,5.90532 2.44227,-0.17782 3.95772,-14.69581 3.95772,-14.69581 0,0 0.56019,16.39389 3.45127,16.80485 0,0 9.05433,-3.77032 14.23651,-5.92219 1.58464,-0.65801 -2.88857,-4.52178 -4.40788,-11.05138 -1.51931,-6.52959 -29.65471,-1.06296 -29.65471,-1.06296 z"
         id="path7868-4"
         inkscape:label="roupa"
         sodipodi:nodetypes="csscsssc" /><path
         style="fill:#b3b3b3;fill-opacity:1;stroke-width:0.286195"
         d="m 113.55214,82.238132 c 0,0 -0.54396,-3.957402 2.42853,-4.330225 3.39024,-0.425224 4.50695,3.354767 4.50695,3.354767 l 18.48979,1.356557 c 0,0 3.70246,-3.24236 7.56469,-0.932942 4.04724,2.420053 1.4726,6.709119 0.66014,10.679426 0.51938,5.445232 3.30749,20.734775 3.30749,20.734775 0,0 2.57655,0.49088 2.80809,7.386 0.23154,6.89512 -0.90449,9.84364 -3.92454,10.65688 -3.02005,0.81323 -24.57456,1.76229 -30.42763,-0.12701 -5.85308,-1.8893 -7.5049,-3.93699 -7.65727,-8.92606 -0.3799,-12.43912 3.53897,-10.40334 3.53897,-10.40334 0,0 1.80011,-10.25405 1.61322,-14.243141 -0.18689,-3.989098 -2.90843,-15.205687 -2.90843,-15.205687 z"
         id="path7865-7"
         sodipodi:nodetypes="csccsccsssscsc"
         inkscape:label="colete" /><path
         style="display:inline;opacity:1;fill:#666666;fill-opacity:1;stroke-width:0.264583"
         d="m 99.138375,24.782204 c 0,0 0.110337,-1.476288 -0.0048,-3.360556 -0.213877,-3.502048 -1.20651,-8.413375 -5.133533,-7.875388 -6.039947,0.827449 5.138333,11.235944 5.138333,11.235944 z"
         id="path1811-7-4"
         sodipodi:nodetypes="cssc"
         inkscape:transform-center-x="1.0903215"
         inkscape:transform-center-y="0.75443982"
         transform="translate(13.518943,4.828889)"
         inkscape:label="gotinha" /><path
         style="display:inline;opacity:1;fill:#666666;fill-opacity:1;stroke-width:0.264583"
         d="m 100.17187,27.340876 c 0,0 -7.893834,-0.848034 -9.638636,6.860217 -1.744806,7.708249 0.126637,8.784114 0.126637,8.784114 l 5.797257,17.125227 c 0,0 -1.533742,2.936476 3.151904,6.58176 4.685648,3.64528 21.190928,5.240091 21.190928,5.240091 0,0 -10.55325,-0.02532 5.83947,-1.253067 16.39272,-1.227751 25.27153,-14.69504 25.27153,-14.69504 0,0 -13.56445,6.467843 -5.92389,2.316274 7.64055,-4.151572 15.74545,-22.124831 15.74545,-22.124831 0,0 -26.39721,10.290325 -15.91431,5.164148 10.4829,-5.126178 18.23603,-20.960367 18.23603,-20.960367 0,0 -6.62745,5.910924 -17.68726,4.873032 -11.05981,-1.037893 -18.68629,-5.29072 -28.92999,-5.556522 -10.24369,-0.265802 -16.36457,4.01234 -17.26512,7.644964 z"
         id="path1815-1"
         transform="translate(13.518943,4.828889)"
         inkscape:label="cabelo" /><path
         style="display:inline;opacity:1;fill:#666666;fill-opacity:1;stroke-width:0.264583"
         d="m 97.762725,25.318155 c 0,0 -9.653252,-6.451305 -9.16722,-0.496535 0.486029,5.95477 9.16722,0.496535 9.16722,0.496535 z"
         id="path1813-4-5"
         transform="translate(13.518943,4.828889)"
         inkscape:label="gotinha2" /><path
         id="path7707-4-2"
         style="display:inline;opacity:1;fill:#ececec;fill-opacity:1;stroke-width:0.264583"
         d="m 122.32164,28.206848 c -10.25238,-0.04385 -20.68659,3.156397 -20.68659,3.156397 l -2.372983,13.003857 c -1.748167,-1.378532 -3.933939,-2.131397 -6.18877,-2.131653 -5.412905,-2.65e-4 -9.801049,4.247207 -9.800952,9.48676 -9.6e-5,5.239553 4.388048,9.487024 9.800952,9.486759 1.370555,-0.0022 2.725395,-0.282642 3.977019,-0.823205 1.197863,2.864343 5.125874,9.479537 16.289444,11.299568 l 0.10128,10.319267 11.03137,1.974557 -0.28215,-12.042676 c 12.85047,-1.420326 18.663,-9.706365 17.74413,-29.675708 -0.51117,-11.109067 -9.98173,-14.012728 -19.61275,-14.053923 z"
         sodipodi:nodetypes="sccccccccccss"
         inkscape:label="cabeça"
         transform="translate(13.518943,4.828889)" /><path
         style="display:inline;opacity:1;fill:#666666;fill-opacity:1;stroke-width:0.268955"
         d="m 91.419144,43.779847 c 0,0 5.657432,2.634894 6.216191,6.152479 0.558758,3.517583 4.904135,1.185267 7.112965,-3.803041 3.81662,-8.619291 -0.33802,-13.415998 -0.33802,-13.415998 0,0 -0.29335,-6.495016 -7.235927,-0.73777 -6.942578,5.757245 -7.570375,10.677837 -7.570375,10.677837 z"
         id="path9016-0-6"
         sodipodi:nodetypes="csscscc"
         transform="translate(13.518943,4.828889)"
         inkscape:label="costeleta" /><path
         style="display:inline;opacity:1;fill:#666666;fill-opacity:1;stroke-width:0.264583"
         d="m 103.35192,26.933076 c 0,0 -4.193161,9.961238 15.19668,13.011629 19.38985,3.050392 27.01634,-0.582234 27.01634,-0.582234 0,0 -3.37705,-9.151173 -5.23442,-9.999207 -1.85737,-0.848034 -33.13722,-4.214856 -33.13722,-4.214856 z"
         id="path9842-8-3"
         transform="translate(13.518943,4.828889)"
         inkscape:label="preench" /><path
         style="display:inline;opacity:1;fill:#4d4d4d;fill-opacity:1;stroke-width:0.264583"
         d="m 109.5291,27.806426 c 8.59737,-4.505974 13.82293,6.21922 18.98178,7.214619 9.53053,1.838915 19.00993,-3.126336 19.00993,-3.126336 0,0 -7.75128,21.04711 -26.46757,16.707539 C 106.99402,45.342467 100.93171,32.312399 109.5291,27.806426 Z"
         id="path9432-3-1"
         sodipodi:nodetypes="zscsz"
         inkscape:label="franja"
         transform="translate(13.518943,4.828889)" /><path
         style="fill:#808080;fill-opacity:1;stroke-width:0.264583"
         d="m 118.615,91.083457 c 0,0 0.19159,-13.818571 -7.36753,-8.147002 -7.55911,5.671566 -3.76214,19.270795 -5.88705,29.188205 -2.12491,9.91741 -9.596933,19.08278 -9.283421,28.93752 0.31351,9.85474 -1.49789,19.77216 4.754921,22.27892 6.25281,2.50678 11.42575,-8.44468 11.42575,-8.44468 0,0 0.34235,-19.47718 2.4036,-26.05474 2.53079,-8.07512 3.95373,-37.758223 3.95373,-37.758223 z"
         id="path7940-1" /><path
         style="display:inline;fill:#808080;fill-opacity:1;stroke:none;stroke-width:0.244665;stroke-opacity:1"
         d="m 126.89306,79.478332 -1.32788,0.107913 c 0,0 -0.9165,0.227952 -1.63571,0.639483 -1.19583,0.684254 -1.77258,1.162743 -1.77258,1.162743 0,0 4.65264,13.340438 8.85362,14.088351 4.20099,0.747923 4.66243,-7.096945 4.66243,-7.096945 0,0 1.82882,4.798755 3.66938,5.45996 1.84058,0.661205 3.73768,-9.170005 2.96493,-10.644166 -0.77276,-1.474161 -1.6527,-2.583737 -3.38651,-3.002692 -1.11049,-0.268341 -1.13475,-0.404828 -1.13475,-0.404828 -1.30818,5.293844 -10.91037,3.313923 -10.89293,-0.309819 z"
         id="path17708-3"
         sodipodi:nodetypes="ccscscssscc" /><path
         style="fill:#1a1a1a;fill-opacity:1;stroke-width:0.264583"
         d="m 106.83745,268.74321 c -0.62317,10.55278 -6.2881,17.15255 -4.15123,19.51546 2.13686,2.36291 16.35993,4.11368 16.35993,4.11368 0,0 6.90057,-1.45692 7.43139,-3.75864 0.53081,-2.30169 -5.52591,-5.35021 -6.81892,-15.41401 -1.293,-10.06382 -12.198,-15.00927 -12.82117,-4.45649 z"
         id="path8004-4"
         sodipodi:nodetypes="zscssz" /><rect
         style="fill:#1a1a1a;fill-opacity:1;stroke-width:0.263066"
         id="rect10692-9"
         width="4.126565"
         height="11.658805"
         x="127.06329"
         y="53.592209"
         ry="1.8859754"
         transform="rotate(-0.91416517)" /><rect
         style="fill:#1a1a1a;fill-opacity:1;stroke-width:0.263066"
         id="rect10692-0-2"
         width="4.126565"
         height="11.658805"
         x="135.43291"
         y="53.698524"
         ry="1.8859754"
         transform="rotate(-0.91416517)" /></g><g
       inkscape:label="idle"
       id="layer1-3"
       transform="translate(-31.838991,-22.297292)"><path
         style="fill:#ececec;fill-opacity:1;stroke-width:0.264583"
         d="m 100.79141,161.93428 c 0,0 -1.855109,10.99594 -1.698889,16.56417 0.156218,5.56823 4.139809,14.91303 5.467679,14.98329 1.32786,0.0703 2.73384,1.45793 1.97226,-2.00246 -0.76156,-3.46038 -1.8551,-7.76391 -1.71841,-12.13769 0.1367,-4.37378 -0.2148,-8.41383 0.66394,-8.94079 0.87873,-0.52696 0.83968,3.61847 2.36281,6.34111 1.52314,2.72264 4.80375,-3.93465 2.92911,-9.7488 -1.87463,-5.81415 -1.09353,-12.22552 -5.2724,-10.08254 -4.17886,2.14298 -4.7061,5.02371 -4.7061,5.02371 z"
         id="path8060-8"
         inkscape:label="mãoe" /><path
         style="fill:#ececec;fill-opacity:1;stroke-width:0.264583"
         d="m 153.30062,154.59194 c 0,0 -2.71431,3.56577 -2.4214,7.13155 0.29291,3.56578 1.4255,7.79904 0.87874,11.54047 -0.54677,3.74143 -1.62078,12.01474 1.074,13.43753 2.69479,1.4228 4.74517,-6.11276 5.21382,-9.1867 0.46866,-3.07395 3.08534,-3.46038 2.89006,-7.60582 -0.19527,-4.14544 -1.36692,-12.24309 -3.51493,-13.57806 -2.14802,-1.33497 -4.12029,-1.73897 -4.12029,-1.73897 z"
         id="path8062-7"
         inkscape:label="mãod" /><path
         style="display:inline;opacity:1;fill:none;fill-opacity:1;stroke:#1a1a1a;stroke-width:13;stroke-dasharray:none;stroke-opacity:1"
         d="m 171.58683,98.566007 c 6.23844,51.427553 14.71681,102.535033 22.50603,153.739733"
         id="path21200-7"
         sodipodi:nodetypes="cc"
         inkscape:original-d="m 171.58683,98.566007 c 7.55113,60.805373 14.57171,101.124723 22.50603,153.739733"
         inkscape:path-effect="#path-effect21202-6"
         transform="rotate(12.594839,20.959668,-102.99388)"
         inkscape:label="perna" /><path
         style="display:inline;opacity:1;fill:#1a1a1a;fill-opacity:1;stroke:none;stroke-width:13;stroke-dasharray:none;stroke-opacity:1"
         d="m 137.8534,246.14366 c 0,0 -0.33257,17.40312 -1.17618,26.82577 -0.84363,9.42269 0.19217,17.07721 0.19217,17.07721 l 13.01919,0.36025 -0.0122,-5.03065 c 0,0 5.24998,5.31621 14.67919,6.0242 9.42923,0.70801 20.865,-1.37408 20.865,-1.37408 0,0 -15.14795,-4.68049 -22.79671,-11.61913 -5.46883,-4.9611 -8.82704,-8.01888 -8.82704,-8.01888 z"
         id="path21990-7"
         sodipodi:nodetypes="czccczcscc"
         inkscape:label="bota1" /><path
         style="display:inline;opacity:1;fill:none;fill-opacity:1;stroke:#1a1a1a;stroke-width:13;stroke-dasharray:none;stroke-opacity:1"
         d="m 187.46277,101.36958 c 6.19197,24.60463 13.41802,48.8647 19.72622,73.49241 5.08794,19.86373 11.3579,39.40498 17.19223,59.05675"
         id="path22211-3"
         inkscape:path-effect="#path-effect22213-0"
         inkscape:original-d="m 187.46277,101.36958 c 6.9756,28.03464 11.93305,37.12051 18.98062,70.23281 2.24485,10.54721 8.88426,32.30669 17.93783,62.31635"
         sodipodi:nodetypes="csc"
         inkscape:label="perna2"
         transform="rotate(12.594839,20.959668,-102.99388)" /><path
         style="fill:#808080;fill-opacity:1;stroke-width:0.246809"
         d="m 146.07546,128.2508 c 1.92278,6.13569 2.24213,24.30442 2.24213,24.30442 0,0 4.82543,10.21576 10.65819,7.87738 5.83276,-2.33836 4.14305,-11.58954 4.4355,-20.78225 0.29245,-9.19272 -6.67762,-17.74237 -8.65978,-26.99354 -1.98217,-9.25118 1.55973,-21.93684 -5.49157,-27.227398 -7.05131,-5.290561 -6.87259,7.599698 -6.87259,7.599698 0,0 1.32735,27.68905 3.68812,35.22169 z"
         id="path7969-7" /><path
         style="fill:#808080;fill-opacity:1;stroke-width:0.264583"
         d="m 115.88747,126.53526 c 0,0 -7.11023,10.42962 -4.98934,10.02217 0.10759,-0.0207 17.40643,5.90532 17.40643,5.90532 2.44227,-0.17782 3.95772,-14.69581 3.95772,-14.69581 0,0 0.56019,16.39389 3.45127,16.80485 0,0 9.05433,-3.77032 14.23651,-5.92219 1.58464,-0.65801 -2.88857,-4.52178 -4.40788,-11.05138 -1.51931,-6.52959 -29.65471,-1.06296 -29.65471,-1.06296 z"
         id="path7868-9"
         inkscape:label="roupa"
         sodipodi:nodetypes="csscsssc" /><path
         style="fill:#b3b3b3;fill-opacity:1;stroke-width:0.286195"
         d="m 113.55214,82.238132 c 0,0 -0.54396,-3.957402 2.42853,-4.330225 3.39024,-0.425224 4.50695,3.354767 4.50695,3.354767 l 18.48979,1.356557 c 0,0 3.70246,-3.24236 7.56469,-0.932942 4.04724,2.420053 1.4726,6.709119 0.66014,10.679426 0.51938,5.445232 3.30749,20.734775 3.30749,20.734775 0,0 2.57655,0.49088 2.80809,7.386 0.23154,6.89512 -0.90449,9.84364 -3.92454,10.65688 -3.02005,0.81323 -24.57456,1.76229 -30.42763,-0.12701 -5.85308,-1.8893 -7.5049,-3.93699 -7.65727,-8.92606 -0.3799,-12.43912 3.53897,-10.40334 3.53897,-10.40334 0,0 1.80011,-10.25405 1.61322,-14.243141 -0.18689,-3.989098 -2.90843,-15.205687 -2.90843,-15.205687 z"
         id="path7865-0"
         sodipodi:nodetypes="csccsccsssscsc"
         inkscape:label="colete" /><path
         style="display:inline;opacity:1;fill:#666666;fill-opacity:1;stroke-width:0.264583"
         d="m 99.138375,24.782204 c 0,0 0.110337,-1.476288 -0.0048,-3.360556 -0.213877,-3.502048 -1.20651,-8.413375 -5.133533,-7.875388 -6.039947,0.827449 5.138333,11.235944 5.138333,11.235944 z"
         id="path1811-7-9"
         sodipodi:nodetypes="cssc"
         inkscape:transform-center-x="1.0903215"
         inkscape:transform-center-y="0.75443982"
         transform="translate(13.518943,4.828889)"
         inkscape:label="gotinha" /><path
         style="display:inline;opacity:1;fill:#666666;fill-opacity:1;stroke-width:0.264583"
         d="m 100.17187,27.340876 c 0,0 -7.893834,-0.848034 -9.638636,6.860217 -1.744806,7.708249 0.126637,8.784114 0.126637,8.784114 l 5.797257,17.125227 c 0,0 -1.533742,2.936476 3.151904,6.58176 4.685648,3.64528 21.190928,5.240091 21.190928,5.240091 0,0 -10.55325,-0.02532 5.83947,-1.253067 16.39272,-1.227751 25.27153,-14.69504 25.27153,-14.69504 0,0 -13.56445,6.467843 -5.92389,2.316274 7.64055,-4.151572 15.74545,-22.124831 15.74545,-22.124831 0,0 -26.39721,10.290325 -15.91431,5.164148 10.4829,-5.126178 18.23603,-20.960367 18.23603,-20.960367 0,0 -6.62745,5.910924 -17.68726,4.873032 -11.05981,-1.037893 -18.68629,-5.29072 -28.92999,-5.556522 -10.24369,-0.265802 -16.36457,4.01234 -17.26512,7.644964 z"
         id="path1815-18"
         transform="translate(13.518943,4.828889)"
         inkscape:label="cabelo" /><path
         style="display:inline;opacity:1;fill:#666666;fill-opacity:1;stroke-width:0.264583"
         d="m 97.762725,25.318155 c 0,0 -9.653252,-6.451305 -9.16722,-0.496535 0.486029,5.95477 9.16722,0.496535 9.16722,0.496535 z"
         id="path1813-4-8"
         transform="translate(13.518943,4.828889)"
         inkscape:label="gotinha2" /><path
         id="path7707-4-3"
         style="display:inline;opacity:1;fill:#ececec;fill-opacity:1;stroke-width:0.264583"
         d="m 122.32164,28.206848 c -10.25238,-0.04385 -20.68659,3.156397 -20.68659,3.156397 l -2.372983,13.003857 c -1.748167,-1.378532 -3.933939,-2.131397 -6.18877,-2.131653 -5.412905,-2.65e-4 -9.801049,4.247207 -9.800952,9.48676 -9.6e-5,5.239553 4.388048,9.487024 9.800952,9.486759 1.370555,-0.0022 2.725395,-0.282642 3.977019,-0.823205 1.197863,2.864343 5.125874,9.479537 16.289444,11.299568 l 0.10128,10.319267 11.03137,1.974557 -0.28215,-12.042676 c 12.85047,-1.420326 18.663,-9.706365 17.74413,-29.675708 -0.51117,-11.109067 -9.98173,-14.012728 -19.61275,-14.053923 z"
         sodipodi:nodetypes="sccccccccccss"
         inkscape:label="cabeça"
         transform="translate(13.518943,4.828889)" /><path
         style="display:inline;opacity:1;fill:#666666;fill-opacity:1;stroke-width:0.268955"
         d="m 91.419144,43.779847 c 0,0 5.657432,2.634894 6.216191,6.152479 0.558758,3.517583 4.904135,1.185267 7.112965,-3.803041 3.81662,-8.619291 -0.33802,-13.415998 -0.33802,-13.415998 0,0 -0.29335,-6.495016 -7.235927,-0.73777 -6.942578,5.757245 -7.570375,10.677837 -7.570375,10.677837 z"
         id="path9016-0-69"
         sodipodi:nodetypes="csscscc"
         transform="translate(13.518943,4.828889)"
         inkscape:label="costeleta" /><path
         style="display:inline;opacity:1;fill:#666666;fill-opacity:1;stroke-width:0.264583"
         d="m 103.35192,26.933076 c 0,0 -4.193161,9.961238 15.19668,13.011629 19.38985,3.050392 27.01634,-0.582234 27.01634,-0.582234 0,0 -3.37705,-9.151173 -5.23442,-9.999207 -1.85737,-0.848034 -33.13722,-4.214856 -33.13722,-4.214856 z"
         id="path9842-8-31"
         transform="translate(13.518943,4.828889)"
         inkscape:label="preench" /><path
         style="display:inline;opacity:1;fill:#4d4d4d;fill-opacity:1;stroke-width:0.264583"
         d="m 109.5291,27.806426 c 8.59737,-4.505974 13.82293,6.21922 18.98178,7.214619 9.53053,1.838915 19.00993,-3.126336 19.00993,-3.126336 0,0 -7.75128,21.04711 -26.46757,16.707539 C 106.99402,45.342467 100.93171,32.312399 109.5291,27.806426 Z"
         id="path9432-3-8"
         sodipodi:nodetypes="zscsz"
         inkscape:label="franja"
         transform="translate(13.518943,4.828889)" /><path
         style="fill:#808080;fill-opacity:1;stroke-width:0.264583"
         d="m 118.615,91.083457 c 0,0 0.19159,-13.818571 -7.36753,-8.147002 -7.55911,5.671566 -3.76214,19.270795 -5.88705,29.188205 -2.12491,9.91741 -9.596933,19.08278 -9.283421,28.93752 0.31351,9.85474 -1.49789,19.77216 4.754921,22.27892 6.25281,2.50678 11.42575,-8.44468 11.42575,-8.44468 0,0 0.34235,-19.47718 2.4036,-26.05474 2.53079,-8.07512 3.95373,-37.758223 3.95373,-37.758223 z"
         id="path7940-6" /><path
         style="display:inline;fill:#808080;fill-opacity:1;stroke:none;stroke-width:0.244665;stroke-opacity:1"
         d="m 126.89306,79.478332 -1.32788,0.107913 c 0,0 -0.9165,0.227952 -1.63571,0.639483 -1.19583,0.684254 -1.77258,1.162743 -1.77258,1.162743 0,0 4.65264,13.340438 8.85362,14.088351 4.20099,0.747923 4.66243,-7.096945 4.66243,-7.096945 0,0 1.82882,4.798755 3.66938,5.45996 1.84058,0.661205 3.73768,-9.170005 2.96493,-10.644166 -0.77276,-1.474161 -1.6527,-2.583737 -3.38651,-3.002692 -1.11049,-0.268341 -1.13475,-0.404828 -1.13475,-0.404828 -1.30818,5.293844 -10.91037,3.313923 -10.89293,-0.309819 z"
         id="path17708-0"
         sodipodi:nodetypes="ccscscssscc" /><path
         style="fill:#1a1a1a;fill-opacity:1;stroke-width:0.264583"
         d="m 106.83745,268.74321 c -0.62317,10.55278 -6.2881,17.15255 -4.15123,19.51546 2.13686,2.36291 16.35993,4.11368 16.35993,4.11368 0,0 6.90057,-1.45692 7.43139,-3.75864 0.53081,-2.30169 -5.52591,-5.35021 -6.81892,-15.41401 -1.293,-10.06382 -12.198,-15.00927 -12.82117,-4.45649 z"
         id="path8004-9"
         sodipodi:nodetypes="zscssz" /><rect
         style="fill:#1a1a1a;fill-opacity:1;stroke-width:0.263066"
         id="rect10692-4"
         width="4.126565"
         height="11.658805"
         x="140.90715"
         y="52.986252"
         ry="1.8859754"
         transform="rotate(-0.91416517)" /><rect
         style="fill:#1a1a1a;fill-opacity:1;stroke-width:0.263066"
         id="rect10692-0-1"
         width="4.126565"
         height="11.658805"
         x="149.27676"
         y="53.092567"
         ry="1.8859754"
         transform="rotate(-0.91416517)" /></g><g
       inkscape:label="idle4"
       id="layer1-2"
       transform="translate(66.851909,-22.297292)"><path
         style="fill:#ececec;fill-opacity:1;stroke-width:0.264583"
         d="m 100.79141,161.93428 c 0,0 -1.855109,10.99594 -1.698889,16.56417 0.156218,5.56823 4.139809,14.91303 5.467679,14.98329 1.32786,0.0703 2.73384,1.45793 1.97226,-2.00246 -0.76156,-3.46038 -1.8551,-7.76391 -1.71841,-12.13769 0.1367,-4.37378 -0.2148,-8.41383 0.66394,-8.94079 0.87873,-0.52696 0.83968,3.61847 2.36281,6.34111 1.52314,2.72264 4.80375,-3.93465 2.92911,-9.7488 -1.87463,-5.81415 -1.09353,-12.22552 -5.2724,-10.08254 -4.17886,2.14298 -4.7061,5.02371 -4.7061,5.02371 z"
         id="path8060-81"
         inkscape:label="mãoe" /><path
         style="fill:#ececec;fill-opacity:1;stroke-width:0.264583"
         d="m 153.30062,154.59194 c 0,0 -2.71431,3.56577 -2.4214,7.13155 0.29291,3.56578 1.4255,7.79904 0.87874,11.54047 -0.54677,3.74143 -1.62078,12.01474 1.074,13.43753 2.69479,1.4228 4.74517,-6.11276 5.21382,-9.1867 0.46866,-3.07395 3.08534,-3.46038 2.89006,-7.60582 -0.19527,-4.14544 -1.36692,-12.24309 -3.51493,-13.57806 -2.14802,-1.33497 -4.12029,-1.73897 -4.12029,-1.73897 z"
         id="path8062-67"
         inkscape:label="mãod" /><path
         style="display:inline;opacity:1;fill:none;fill-opacity:1;stroke:#1a1a1a;stroke-width:13;stroke-dasharray:none;stroke-opacity:1"
         d="m 171.58683,98.566007 c 6.23844,51.427553 14.71681,102.535033 22.50603,153.739733"
         id="path21200-5"
         sodipodi:nodetypes="cc"
         inkscape:original-d="m 171.58683,98.566007 c 7.55113,60.805373 14.57171,101.124723 22.50603,153.739733"
         inkscape:path-effect="#path-effect21202-7"
         transform="rotate(12.594839,20.959668,-102.99388)"
         inkscape:label="perna" /><path
         style="display:inline;opacity:1;fill:#1a1a1a;fill-opacity:1;stroke:none;stroke-width:13;stroke-dasharray:none;stroke-opacity:1"
         d="m 137.8534,246.14366 c 0,0 -0.33257,17.40312 -1.17618,26.82577 -0.84363,9.42269 0.19217,17.07721 0.19217,17.07721 l 13.01919,0.36025 -0.0122,-5.03065 c 0,0 5.24998,5.31621 14.67919,6.0242 9.42923,0.70801 20.865,-1.37408 20.865,-1.37408 0,0 -15.14795,-4.68049 -22.79671,-11.61913 -5.46883,-4.9611 -8.82704,-8.01888 -8.82704,-8.01888 z"
         id="path21990-0"
         sodipodi:nodetypes="czccczcscc"
         inkscape:label="bota1" /><path
         style="display:inline;opacity:1;fill:none;fill-opacity:1;stroke:#1a1a1a;stroke-width:13;stroke-dasharray:none;stroke-opacity:1"
         d="m 187.46277,101.36958 c 6.19197,24.60463 13.41802,48.8647 19.72622,73.49241 5.08794,19.86373 11.3579,39.40498 17.19223,59.05675"
         id="path22211-7"
         inkscape:path-effect="#path-effect22213-5"
         inkscape:original-d="m 187.46277,101.36958 c 6.9756,28.03464 11.93305,37.12051 18.98062,70.23281 2.24485,10.54721 8.88426,32.30669 17.93783,62.31635"
         sodipodi:nodetypes="csc"
         inkscape:label="perna2"
         transform="rotate(12.594839,20.959668,-102.99388)" /><path
         style="fill:#808080;fill-opacity:1;stroke-width:0.246809"
         d="m 146.07546,128.2508 c 1.92278,6.13569 2.24213,24.30442 2.24213,24.30442 0,0 4.82543,10.21576 10.65819,7.87738 5.83276,-2.33836 4.14305,-11.58954 4.4355,-20.78225 0.29245,-9.19272 -6.67762,-17.74237 -8.65978,-26.99354 -1.98217,-9.25118 1.55973,-21.93684 -5.49157,-27.227398 -7.05131,-5.290561 -6.87259,7.599698 -6.87259,7.599698 0,0 1.32735,27.68905 3.68812,35.22169 z"
         id="path7969-2"
         inkscape:label="braçodir" /><path
         style="fill:#808080;fill-opacity:1;stroke-width:0.264583"
         d="m 115.88747,126.53526 c 0,0 -7.11023,10.42962 -4.98934,10.02217 0.10759,-0.0207 17.40643,5.90532 17.40643,5.90532 2.44227,-0.17782 3.95772,-14.69581 3.95772,-14.69581 0,0 0.56019,16.39389 3.45127,16.80485 0,0 9.05433,-3.77032 14.23651,-5.92219 1.58464,-0.65801 -2.88857,-4.52178 -4.40788,-11.05138 -1.51931,-6.52959 -29.65471,-1.06296 -29.65471,-1.06296 z"
         id="path7868-0"
         inkscape:label="roupa"
         sodipodi:nodetypes="csscsssc" /><path
         style="fill:#b3b3b3;fill-opacity:1;stroke-width:0.286195"
         d="m 113.55214,82.238132 c 0,0 -0.54396,-3.957402 2.42853,-4.330225 3.39024,-0.425224 4.50695,3.354767 4.50695,3.354767 l 18.48979,1.356557 c 0,0 3.70246,-3.24236 7.56469,-0.932942 4.04724,2.420053 1.4726,6.709119 0.66014,10.679426 0.51938,5.445232 3.30749,20.734775 3.30749,20.734775 0,0 2.57655,0.49088 2.80809,7.386 0.23154,6.89512 -0.90449,9.84364 -3.92454,10.65688 -3.02005,0.81323 -24.57456,1.76229 -30.42763,-0.12701 -5.85308,-1.8893 -7.5049,-3.93699 -7.65727,-8.92606 -0.3799,-12.43912 3.53897,-10.40334 3.53897,-10.40334 0,0 1.80011,-10.25405 1.61322,-14.243141 -0.18689,-3.989098 -2.90843,-15.205687 -2.90843,-15.205687 z"
         id="path7865-4"
         sodipodi:nodetypes="csccsccsssscsc"
         inkscape:label="colete" /><path
         style="display:inline;opacity:1;fill:#666666;fill-opacity:1;stroke-width:0.264583"
         d="m 119.16441,27.670788 c 0,0 0.29113,-1.451497 0.40869,-3.335615 0.21861,-3.501756 -0.16223,-8.497896 -4.12561,-8.447145 -6.09586,0.07806 3.71692,11.78276 3.71692,11.78276 z"
         id="path1811-7-6"
         sodipodi:nodetypes="cssc"
         inkscape:transform-center-x="15.085104"
         inkscape:transform-center-y="-59.550232"
         inkscape:label="gotinha" /><path
         style="display:inline;opacity:1;fill:#666666;fill-opacity:1;stroke-width:0.264583"
         d="m 119.87525,30.337174 c 0,0 -7.72952,-1.812785 -10.40943,5.622238 -2.67991,7.43502 -0.95505,8.732958 -0.95505,8.732958 l 3.64626,17.70837 c 0,0 -1.88337,2.725467 2.31819,6.919542 4.20156,4.19407 20.38524,7.807442 20.38524,7.807442 0,0 -10.46996,-1.323515 5.94927,-0.525106 16.41923,0.798406 26.88749,-11.474191 26.88749,-11.474191 0,0 -14.25715,4.749844 -6.16386,1.569849 8.09328,-3.179999 18.34789,-20.019548 18.34789,-20.019548 0,0 -27.4627,6.964445 -16.42876,3.166945 11.03394,-3.797501 20.67628,-18.55751 20.67628,-18.55751 0,0 -7.30433,5.050629 -18.15242,2.659912 -10.84809,-2.390719 -17.8934,-7.549537 -28.02657,-9.073622 -10.13316,-1.524084 -16.73389,1.968492 -18.07453,5.462721 z"
         id="path1815-5"
         inkscape:label="cabelo"
         inkscape:transform-center-x="-14.424916"
         inkscape:transform-center-y="-30.51197" /><path
         style="display:inline;opacity:1;fill:#666666;fill-opacity:1;stroke-width:0.264583"
         d="m 117.73327,28.033418 c 0,0 -8.7862,-7.589951 -9.03648,-1.620624 -0.2503,5.969327 9.03648,1.620624 9.03648,1.620624 z"
         id="path1813-4-56"
         inkscape:label="gotinha2"
         inkscape:transform-center-x="18.409146"
         inkscape:transform-center-y="-54.486466" /><path
         id="path7707-4-5"
         style="display:inline;opacity:1;fill:#ececec;fill-opacity:1;stroke-width:0.264583"
         d="m 141.7502,33.921697 c -10.16909,-1.304887 -20.91776,0.587305 -20.91776,0.587305 l -3.95485,12.61311 c -1.56528,-1.583139 -3.64182,-2.599204 -5.87949,-2.876875 -5.37175,-0.666223 -10.24913,3.009097 -10.89367,8.208856 -0.644723,5.199735 3.18751,9.954818 8.55932,10.620516 1.36041,0.166439 2.73946,0.05482 4.04809,-0.327651 0.83635,2.989958 3.92064,10.038165 14.77548,13.217845 l -1.16909,10.253329 10.70462,3.316767 1.20163,-11.985898 c 12.92759,0.171484 19.71541,-7.336477 21.26039,-27.267157 0.85948,-11.087558 -8.18189,-15.134341 -17.73467,-16.360147 z"
         sodipodi:nodetypes="sccccccccccss"
         inkscape:label="cabeça"
         inkscape:transform-center-x="1.8340515"
         inkscape:transform-center-y="-19.830635" /><path
         style="display:inline;opacity:1;fill:#666666;fill-opacity:1;stroke-width:0.268955"
         d="m 109.1665,45.574388 c 0,0 5.29028,3.310921 5.41202,6.870527 0.12174,3.559604 4.72105,1.779628 7.52682,-2.899026 4.84807,-8.084241 1.31514,-13.35566 1.31514,-13.35566 0,0 0.50798,-6.481763 -7.09018,-1.622415 -7.59816,4.859346 -8.82658,9.665316 -8.82658,9.665316 z"
         id="path9016-0-8"
         sodipodi:nodetypes="csscscc"
         inkscape:label="costeleta"
         inkscape:transform-center-x="15.538257"
         inkscape:transform-center-y="-37.785245" /><path
         style="display:inline;opacity:1;fill:#666666;fill-opacity:1;stroke-width:0.264583"
         d="m 123.08132,30.32372 c 0,0 -5.38686,9.369667 13.48037,14.782454 18.86725,5.412789 26.88273,2.746063 26.88273,2.746063 0,0 -2.22551,-9.497134 -3.96443,-10.567241 -1.73893,-1.070107 -32.36691,-8.259773 -32.36691,-8.259773 z"
         id="path9842-8-8"
         inkscape:label="preench"
         inkscape:transform-center-x="-11.285341"
         inkscape:transform-center-y="-42.562282" /><path
         style="display:inline;opacity:1;fill:#4d4d4d;fill-opacity:1;stroke-width:0.264583"
         d="m 129.10412,31.950426 c 9.08643,-3.41399 12.95275,7.872633 17.94994,9.495173 9.23187,2.997504 19.25014,-0.763755 19.25014,-0.763755 0,0 -10.28186,19.933554 -28.32205,13.32425 -13.55135,-4.96475 -17.96449,-18.641682 -8.87803,-22.055668 z"
         id="path9432-3-2"
         sodipodi:nodetypes="zscsz"
         inkscape:label="franja"
         inkscape:transform-center-x="-13.698215"
         inkscape:transform-center-y="-37.999516" /><path
         style="fill:#808080;fill-opacity:1;stroke-width:0.264583"
         d="m 118.615,91.083457 c 0,0 0.19159,-13.818571 -7.36753,-8.147002 -7.55911,5.671566 -3.76214,19.270795 -5.88705,29.188205 -2.12491,9.91741 -9.596933,19.08278 -9.283421,28.93752 0.31351,9.85474 -1.49789,19.77216 4.754921,22.27892 6.25281,2.50678 11.42575,-8.44468 11.42575,-8.44468 0,0 0.34235,-19.47718 2.4036,-26.05474 2.53079,-8.07512 3.95373,-37.758223 3.95373,-37.758223 z"
         id="path7940-5"
         inkscape:label="braçoesq" /><path
         style="display:inline;fill:#808080;fill-opacity:1;stroke:none;stroke-width:0.244665;stroke-opacity:1"
         d="m 126.89306,79.478332 -1.32788,0.107913 c 0,0 -0.9165,0.227952 -1.63571,0.639483 -1.19583,0.684254 -1.77258,1.162743 -1.77258,1.162743 0,0 4.65264,13.340438 8.85362,14.088351 4.20099,0.747923 4.66243,-7.096945 4.66243,-7.096945 0,0 1.82882,4.798755 3.66938,5.45996 1.84058,0.661205 3.73768,-9.170005 2.96493,-10.644166 -0.77276,-1.474161 -1.6527,-2.583737 -3.38651,-3.002692 -1.11049,-0.268341 -1.13475,-0.404828 -1.13475,-0.404828 -1.30818,5.293844 -10.91037,3.313923 -10.89293,-0.309819 z"
         id="path17708-4"
         sodipodi:nodetypes="ccscscssscc"
         inkscape:label="gola" /><path
         style="display:inline;fill:#1a1a1a;fill-opacity:1;stroke-width:0.264583"
         d="m 106.83745,268.74321 c -0.62317,10.55278 -6.2881,17.15255 -4.15123,19.51546 2.13686,2.36291 16.35993,4.11368 16.35993,4.11368 0,0 6.90057,-1.45692 7.43139,-3.75864 0.53081,-2.30169 -5.52591,-5.35021 -6.81892,-15.41401 -1.293,-10.06382 -12.198,-15.00927 -12.82117,-4.45649 z"
         id="path8004-7"
         sodipodi:nodetypes="zscssz"
         inkscape:label="botaesq" /><rect
         style="display:inline;fill:#1a1a1a;fill-opacity:1;stroke-width:0.263066"
         id="rect10692-7"
         width="4.126565"
         height="11.658805"
         x="144.5824"
         y="37.182079"
         ry="1.8859754"
         transform="rotate(6.1529543)"
         inkscape:transform-center-x="-9.5691079"
         inkscape:transform-center-y="-22.847816"
         inkscape:label="olho" /><rect
         style="fill:#1a1a1a;fill-opacity:1;stroke-width:0.263066"
         id="rect10692-0-6"
         width="4.126565"
         height="11.658805"
         x="152.95201"
         y="37.288395"
         ry="1.8859754"
         transform="rotate(6.1529543)"
         inkscape:transform-center-x="-17.879112"
         inkscape:transform-center-y="-21.845032"
         inkscape:label="olho2" /></g></g></svg>
