<?xml version="1.0" encoding="UTF-8" standalone="no"?>
<!-- Created with Inkscape (http://www.inkscape.org/) -->

<svg
   width="297mm"
   height="210mm"
   viewBox="0 0 297 210"
   version="1.1"
   id="svg34352"
   inkscape:version="1.2.2 (732a01da63, 2022-12-09)"
   sodipodi:docname="walking_sprite.svg"
   xmlns:inkscape="http://www.inkscape.org/namespaces/inkscape"
   xmlns:sodipodi="http://sodipodi.sourceforge.net/DTD/sodipodi-0.dtd"
   xmlns="http://www.w3.org/2000/svg"
   xmlns:svg="http://www.w3.org/2000/svg">
  <sodipodi:namedview
     id="namedview34354"
     pagecolor="#ffffff"
     bordercolor="#cccccc"
     borderopacity="1"
     inkscape:showpageshadow="true"
     inkscape:pageopacity="0"
     inkscape:pagecheckerboard="true"
     inkscape:deskcolor="#ffffff"
     inkscape:document-units="mm"
     showgrid="false"
     showborder="true"
     borderlayer="false"
     inkscape:zoom="0.68419388"
     inkscape:cx="659.16988"
     inkscape:cy="355.16249"
     inkscape:window-width="1366"
     inkscape:window-height="705"
     inkscape:window-x="-8"
     inkscape:window-y="-8"
     inkscape:window-maximized="1"
     inkscape:current-layer="layer1" />
  <defs
     id="defs34349">
    <inkscape:path-effect
       effect="simplify"
       id="path-effect21202"
       is_visible="true"
       lpeversion="1"
       steps="1"
       threshold="0.00961538"
       smooth_angles="360"
       helper_size="0"
       simplify_individual_paths="false"
       simplify_just_coalesce="false" />
    <inkscape:path-effect
       effect="simplify"
       id="path-effect22213"
       is_visible="true"
       lpeversion="1"
       steps="1"
       threshold="0.00961538"
       smooth_angles="360"
       helper_size="0"
       simplify_individual_paths="false"
       simplify_just_coalesce="false" />
    <inkscape:path-effect
       effect="simplify"
       id="path-effect21202-8"
       is_visible="true"
       lpeversion="1"
       steps="1"
       threshold="0.00961538"
       smooth_angles="360"
       helper_size="0"
       simplify_individual_paths="false"
       simplify_just_coalesce="false" />
    <inkscape:path-effect
       effect="simplify"
       id="path-effect22213-0"
       is_visible="true"
       lpeversion="1"
       steps="1"
       threshold="0.00961538"
       smooth_angles="360"
       helper_size="0"
       simplify_individual_paths="false"
       simplify_just_coalesce="false" />
    <inkscape:path-effect
       effect="simplify"
       id="path-effect21202-9"
       is_visible="true"
       lpeversion="1"
       steps="1"
       threshold="0.00961538"
       smooth_angles="360"
       helper_size="0"
       simplify_individual_paths="false"
       simplify_just_coalesce="false" />
    <inkscape:path-effect
       effect="simplify"
       id="path-effect22213-5"
       is_visible="true"
       lpeversion="1"
       steps="1"
       threshold="0.00961538"
       smooth_angles="360"
       helper_size="0"
       simplify_individual_paths="false"
       simplify_just_coalesce="false" />
    <inkscape:path-effect
       effect="simplify"
       id="path-effect21202-90"
       is_visible="true"
       lpeversion="1"
       steps="1"
       threshold="0.00961538"
       smooth_angles="360"
       helper_size="0"
       simplify_individual_paths="false"
       simplify_just_coalesce="false" />
    <inkscape:path-effect
       effect="simplify"
       id="path-effect22213-3"
       is_visible="true"
       lpeversion="1"
       steps="1"
       threshold="0.00961538"
       smooth_angles="360"
       helper_size="0"
       simplify_individual_paths="false"
       simplify_just_coalesce="false" />
    <inkscape:path-effect
       effect="simplify"
       id="path-effect21202-3"
       is_visible="true"
       lpeversion="1"
       steps="1"
       threshold="0.00961538"
       smooth_angles="360"
       helper_size="0"
       simplify_individual_paths="false"
       simplify_just_coalesce="false" />
    <inkscape:path-effect
       effect="simplify"
       id="path-effect22213-1"
       is_visible="true"
       lpeversion="1"
       steps="1"
       threshold="0.00961538"
       smooth_angles="360"
       helper_size="0"
       simplify_individual_paths="false"
       simplify_just_coalesce="false" />
    <inkscape:path-effect
       effect="simplify"
       id="path-effect21202-35"
       is_visible="true"
       lpeversion="1"
       steps="1"
       threshold="0.00961538"
       smooth_angles="360"
       helper_size="0"
       simplify_individual_paths="false"
       simplify_just_coalesce="false" />
    <inkscape:path-effect
       effect="simplify"
       id="path-effect22213-4"
       is_visible="true"
       lpeversion="1"
       steps="1"
       threshold="0.00961538"
       smooth_angles="360"
       helper_size="0"
       simplify_individual_paths="false"
       simplify_just_coalesce="false" />
    <inkscape:path-effect
       effect="simplify"
       id="path-effect21202-32"
       is_visible="true"
       lpeversion="1"
       steps="1"
       threshold="0.00961538"
       smooth_angles="360"
       helper_size="0"
       simplify_individual_paths="false"
       simplify_just_coalesce="false" />
    <inkscape:path-effect
       effect="simplify"
       id="path-effect22213-2"
       is_visible="true"
       lpeversion="1"
       steps="1"
       threshold="0.00961538"
       smooth_angles="360"
       helper_size="0"
       simplify_individual_paths="false"
       simplify_just_coalesce="false" />
    <inkscape:path-effect
       effect="simplify"
       id="path-effect21202-6"
       is_visible="true"
       lpeversion="1"
       steps="1"
       threshold="0.00961538"
       smooth_angles="360"
       helper_size="0"
       simplify_individual_paths="false"
       simplify_just_coalesce="false" />
    <inkscape:path-effect
       effect="simplify"
       id="path-effect22213-9"
       is_visible="true"
       lpeversion="1"
       steps="1"
       threshold="0.00961538"
       smooth_angles="360"
       helper_size="0"
       simplify_individual_paths="false"
       simplify_just_coalesce="false" />
  </defs>
  <g
     inkscape:label="Camada 1"
     inkscape:groupmode="layer"
     id="layer1"
     transform="matrix(0.25331625,0,0,0.25331625,128.41779,125.59789)">
    <g
       inkscape:groupmode="layer"
       id="layer11"
       inkscape:label="walk1"
       transform="translate(-505.07519,-266.23309)">
      <g
         inkscape:groupmode="layer"
         id="layer2"
         inkscape:label="cabelo"
         style="display:inline;opacity:1;fill:#666666;fill-opacity:1">
        <path
           style="opacity:1;fill:#666666;fill-opacity:1;stroke-width:0.264583"
           d="m 88.71533,17.937876 c 0,0 0.110337,-1.476288 -0.0048,-3.360556 C 88.496653,11.075272 87.50402,6.1639449 83.576997,6.7019319 77.53705,7.5293812 88.71533,17.937876 88.71533,17.937876 Z"
           id="path1811"
           sodipodi:nodetypes="cssc"
           inkscape:transform-center-x="1.0903215"
           inkscape:transform-center-y="0.75443982" />
        <path
           style="opacity:1;fill:#666666;fill-opacity:1;stroke-width:0.264583"
           d="m 87.33968,18.473827 c 0,0 -9.653252,-6.451305 -9.16722,-0.496535 0.486029,5.95477 9.16722,0.496535 9.16722,0.496535 z"
           id="path1813" />
        <path
           style="opacity:1;fill:#666666;fill-opacity:1;stroke-width:0.264583"
           d="m 89.748827,20.496548 c 0,0 -7.893836,-0.848034 -9.638638,6.860217 -1.744806,7.708249 0.126637,8.784114 0.126637,8.784114 l 5.797257,17.125227 c 0,0 -1.533742,2.936476 3.151904,6.58176 4.685646,3.64528 21.190933,5.240091 21.190933,5.240091 0,0 -10.553252,-0.02532 5.83947,-1.253067 16.39272,-1.227751 25.27153,-14.69504 25.27153,-14.69504 0,0 -13.56445,6.467843 -5.92389,2.316274 7.64055,-4.151572 15.74545,-22.124831 15.74545,-22.124831 0,0 -26.39721,10.290325 -15.91431,5.164148 10.4829,-5.126178 18.23603,-20.960367 18.23603,-20.960367 0,0 -6.62745,5.910924 -17.68726,4.873032 -11.05981,-1.037893 -18.68629,-5.29072 -28.92999,-5.556522 -10.24369,-0.265802 -16.364579,4.01234 -17.265123,7.644964 z"
           id="path1815" />
      </g>
      <g
         inkscape:groupmode="layer"
         id="layer4"
         inkscape:label="cabeça"
         style="display:inline">
        <path
           id="path7707"
           style="opacity:1;fill:#ececec;fill-opacity:1;stroke-width:0.264583"
           d="m 111.8986,21.36252 c -10.25238,-0.04385 -20.686596,3.156397 -20.686596,3.156397 l -2.372982,13.003857 c -1.748167,-1.378532 -3.933939,-2.131397 -6.18877,-2.131653 -5.412905,-2.65e-4 -9.801049,4.247207 -9.800952,9.48676 -9.6e-5,5.239553 4.388048,9.487024 9.800952,9.486759 1.370555,-0.0022 2.725395,-0.282642 3.977019,-0.823205 1.197863,2.864343 5.125877,9.479537 16.289449,11.299568 l 0.10128,10.319267 11.03137,1.974557 -0.28215,-12.042676 c 12.85047,-1.420326 18.663,-9.706365 17.74413,-29.675708 C 131.00018,24.307376 121.52962,21.403715 111.8986,21.36252 Z"
           sodipodi:nodetypes="sccccccccccss" />
      </g>
      <g
         inkscape:groupmode="layer"
         id="layer5"
         inkscape:label="franja"
         style="display:inline">
        <path
           style="opacity:1;fill:#666666;fill-opacity:1;stroke-width:0.268955"
           d="m 80.996099,36.935519 c 0,0 5.657432,2.634894 6.216191,6.152479 0.558758,3.517583 4.904134,1.185267 7.112961,-3.803041 3.816629,-8.619291 -0.338017,-13.415998 -0.338017,-13.415998 0,0 -0.293346,-6.495016 -7.235926,-0.73777 -6.942578,5.757245 -7.570375,10.677837 -7.570375,10.677837 z"
           id="path9016"
           sodipodi:nodetypes="csscscc" />
        <path
           style="opacity:1;fill:#666666;fill-opacity:1;stroke-width:0.264583"
           d="m 92.928875,20.088748 c 0,0 -4.193161,9.961238 15.196685,13.011629 19.38985,3.050392 27.01634,-0.582234 27.01634,-0.582234 0,0 -3.37705,-9.151173 -5.23442,-9.999207 C 128.05011,21.670902 96.77026,18.30408 96.77026,18.30408 Z"
           id="path9842" />
        <path
           style="opacity:1;fill:#4d4d4d;fill-opacity:1;stroke-width:0.264583"
           d="m 99.106051,20.962098 c 8.597379,-4.505974 13.822939,6.21922 18.981789,7.214619 9.53053,1.838915 19.00993,-3.126336 19.00993,-3.126336 0,0 -7.75128,21.04711 -26.46757,16.707539 C 96.570975,38.498139 90.508662,25.468071 99.106051,20.962098 Z"
           id="path9432"
           sodipodi:nodetypes="zscsz"
           inkscape:label="path9432" />
      </g>
      <g
         inkscape:groupmode="layer"
         id="layer6"
         inkscape:label="olhos">
        <rect
           style="opacity:1;fill:#1a1a1a;fill-opacity:1;stroke-width:0.264583"
           id="rect10692"
           width="3.968024"
           height="12.264852"
           x="107.84415"
           y="45.1105"
           ry="1.984012" />
        <rect
           style="fill:#1a1a1a;fill-opacity:1;stroke-width:0.264583"
           id="rect10692-0"
           width="3.968024"
           height="12.264852"
           x="115.8922"
           y="45.22234"
           ry="1.984012" />
      </g>
      <g
         inkscape:groupmode="layer"
         id="layer9"
         inkscape:label="mãos">
        <path
           style="opacity:1;fill:#ececec;fill-opacity:1;stroke:none;stroke-width:0.264583;stroke-opacity:1"
           d="m 127.01771,90.746132 c 0,0 -1.87446,-5.712693 2.14024,-9.839923 4.01471,-4.12723 9.12051,2.076198 9.12051,2.076198 0,0 5.81923,5.247119 2.65782,10.179664 -3.1614,4.932543 -8.3931,4.932543 -8.3931,4.932543 z"
           id="path17497" />
        <path
           style="opacity:1;fill:#ececec;fill-opacity:1;stroke:none;stroke-width:0.264583;stroke-opacity:1"
           d="m 126.58819,119.24292 c 0,0 4.32021,-4.20618 8.13216,-1.85925 3.81196,2.34692 5.3198,5.88255 4.1508,8.99146 -1.169,3.10892 -3.67642,5.95876 -7.014,5.69968 -3.33758,-0.25907 -8.7082,-6.72074 -8.7082,-6.72074 z"
           id="path17710" />
      </g>
      <g
         inkscape:groupmode="layer"
         id="layer10"
         inkscape:label="pernas">
        <path
           style="opacity:1;fill:none;fill-opacity:1;stroke:#1a1a1a;stroke-width:13;stroke-dasharray:none;stroke-opacity:1"
           d="m 119.23411,125.72169 c -13.05363,23.6999 28.7538,40.66211 39.2433,60.56395 13.03041,24.72274 -6.83824,58.96693 13.56806,80.63636"
           id="path21200"
           sodipodi:nodetypes="cssc"
           inkscape:original-d="m 119.23411,125.72169 c -8.63409,5.59996 -4.5059,6.48821 -2.08622,13.43105 5.86088,16.81678 35.45304,33.68166 42.98998,50.24133 8.3098,18.25775 -5.7825,65.41093 11.9076,77.52793"
           inkscape:path-effect="#path-effect21202" />
        <path
           style="opacity:1;fill:#1a1a1a;fill-opacity:1;stroke:none;stroke-width:13;stroke-dasharray:none;stroke-opacity:1"
           d="m 155.81702,243.51849 c 0,0 0.66154,20.83763 5.79495,28.7841 5.13342,7.94648 12.28621,9.89948 12.28621,9.89948 l 7.63159,-6.46041 -1.89693,-4.61598 c 0,0 3.23666,0.16659 12.43423,-0.85809 9.19757,-1.02468 14.90134,-19.01633 14.90134,-19.01633 0,0 -11.61186,6.88454 -19.01319,7.65387 -7.40133,0.76933 -19.96714,-4.5864 -19.96714,-4.5864 z"
           id="path21990"
           sodipodi:nodetypes="czccczcscc" />
        <path
           style="opacity:1;fill:none;fill-opacity:1;stroke:#1a1a1a;stroke-width:13;stroke-dasharray:none;stroke-opacity:1"
           d="m 101.95295,136.46556 c -3.84526,-11.14339 -6.250903,28.06299 -6.60831,37.38924 -1.145859,29.90029 -33.491508,39.83748 -58.683762,48.79152 -7.840429,2.78671 -27.8980553,9.28453 -23.282662,20.87217"
           id="path22211"
           inkscape:path-effect="#path-effect22213"
           inkscape:original-d="m 101.95295,136.46556 c -0.91858,-16.60953 -3.331789,4.75586 -5.14414,18.72665 0,0 -0.862713,12.42959 -1.46417,18.66259 -2.505924,25.96931 -17.28695,32.85762 -27.847038,39.68594 -15.247254,9.8591 -34.255777,5.04416 -48.17979,17.56916 -5.123962,4.60914 -9.3554075,5.3672 -5.939596,12.40859"
           sodipodi:nodetypes="ccsssc" />
        <path
           style="opacity:1;fill:#1a1a1a;fill-opacity:1;stroke:none;stroke-width:13;stroke-dasharray:none;stroke-opacity:1"
           d="m 0.81338406,235.60781 c 0,0 21.56115994,-15.42808 33.91960994,-18.77556 10.48387,-2.83972 -7.606561,10.48122 -7.606561,10.48122 0,0 -4.224114,11.6249 -6.786627,18.81892 -4.665995,13.09935 2.276353,34.90748 2.276353,34.90748 0,0 -13.8266812,-6.6985 -15.3156884,-18.57693 -1.489007,-11.87845 0.1105042,-15.33257 0.1105042,-15.33257 l -4.2242074,1.1163 z"
           id="path22341"
           sodipodi:nodetypes="cscscsccc" />
        <path
           style="opacity:1;fill:#1a1a1a;fill-opacity:1;stroke:none;stroke-width:13;stroke-dasharray:none;stroke-opacity:1"
           d="m 0.81338406,235.60781 c 0,0 21.56115994,-15.42808 33.91960994,-18.77556 10.48387,-2.83972 -7.606561,10.48122 -7.606561,10.48122 0,0 -4.224114,11.6249 -6.786627,18.81892 -4.665995,13.09935 2.276353,34.90748 2.276353,34.90748 0,0 -13.8266812,-6.6985 -15.3156884,-18.57693 -1.489007,-11.87845 0.1105042,-15.33257 0.1105042,-15.33257 l -4.2242074,1.1163 z"
           id="path22676"
           sodipodi:nodetypes="cscscsccc" />
      </g>
      <g
         inkscape:groupmode="layer"
         id="layer8"
         inkscape:label="colete"
         style="fill:#b3b3b3;fill-opacity:1">
        <path
           id="path15625"
           style="opacity:1;fill:#b3b3b3;fill-opacity:1;stroke:none;stroke-width:0.264583;stroke-opacity:1"
           d="m 90.490601,69.289827 c -0.145894,-0.0015 -0.293419,0.0025 -0.442867,0.0124 -3.754805,0.249746 -4.476014,3.869943 -4.613672,5.418274 l -0.03411,-0.04083 -2.593123,44.851009 c 0,0 -3.182425,-0.74198 -4.580082,0.31833 -1.39766,1.0603 -0.77463,3.60494 -0.77463,3.60494 0,0 4.327395,14.92018 24.500833,13.01161 16.57259,-1.56789 22.54764,-8.35111 24.16289,-11.05411 l 0.33846,-0.53329 c 0,0 2.69421,-5.78681 0.80822,-9.42217 -1.886,-3.63536 -3.46904,-1.66605 -3.46904,-1.66605 0,0 -0.40422,-19.343049 -0.37052,-25.068748 0.0337,-5.7257 -2.39107,-6.649724 -2.39107,-6.649724 0,0 2.66079,-1.211679 2.57659,-4.332035 -0.0842,-3.120355 -0.11782,-8.800771 -5.40536,-7.997962 -5.28753,0.802812 -3.30057,6.422347 -3.30057,6.422347 L 97.810567,74.709652 c 0,0 -2.797269,-5.37318 -7.319966,-5.419825 z"
           sodipodi:nodetypes="sccccscsccscscssccs" />
      </g>
      <g
         inkscape:groupmode="layer"
         id="layer7"
         inkscape:label="roupa"
         style="display:inline">
        <path
           id="path11782"
           style="opacity:1;fill:#808080;fill-opacity:1;stroke:none;stroke-width:0.264583;stroke-opacity:1"
           d="m 102.97666,67.189697 -1.3038,0.157613 c 0,0 -0.9918,0.139872 -1.63814,0.746725 -1.14938,1.079166 -3.363101,4.505668 -3.363101,4.505668 0,0 6.247431,12.429715 10.454661,13.303064 4.20722,0.873346 4.44675,-9.847461 4.44675,-9.847461 0,0 2.05414,7.163859 3.89744,7.93595 1.8433,0.77209 3.74323,-10.707836 2.96933,-12.429216 -0.77391,-1.72138 -1.65515,-3.017031 -3.39153,-3.506246 -1.11215,-0.313342 -1.23144,-0.578776 -1.23144,-0.578776 0,0 0.65549,4.987652 -3.80597,5.186247 -3.59358,0.159962 -6.07798,-1.106574 -6.60115,-2.67839 -0.5398,-1.621769 -0.43305,-2.795178 -0.43305,-2.795178 z m -18.016988,6.410978 c -2.866201,0.08537 -7.736116,12.165465 -8.919352,25.267709 -1.283512,14.212606 3.452646,32.761706 22.8446,35.375106 19.39196,2.61339 33.98815,-26.7202 36.33628,-32.72566 2.34813,-6.005446 -9.99929,-13.389529 -12.39717,-12.959928 -2.39787,0.429601 -12.84527,19.036618 -22.914366,21.444168 -10.069092,2.40755 -4.407479,-22.428554 -5.074109,-25.346255 -0.66663,-2.9177 -4.517397,-7.276493 -9.193754,-10.811744 -0.210654,-0.171731 -0.439231,-0.25063 -0.682129,-0.243396 z m 40.989088,52.067665 c 0,0 -2.61495,7.30943 -22.40703,10.35592 -16.340675,2.51524 -22.476001,-6.39271 -22.476001,-6.39271 l -6.537462,8.05772 c 0,0 2.88544,4.57368 16.735413,7.30343 13.84998,2.72975 25.35194,0.40256 25.35194,0.40256 l 1.06454,-12.48503 9.8304,9.61234 8.88473,-9.80044 z"
           sodipodi:nodetypes="ccscscssscsscssssssscscsccsccccc" />
        <path
           id="path17708"
           style="opacity:1;fill:#808080;fill-opacity:1;stroke:none;stroke-width:0.264583;stroke-opacity:1"
           d="m 102.97666,67.189697 -1.3038,0.157613 c 0,0 -0.9918,0.139872 -1.63814,0.746725 -1.14938,1.079166 -3.363101,4.505668 -3.363101,4.505668 0,0 6.247431,12.429715 10.454661,13.303064 4.20722,0.873346 4.44675,-9.847461 4.44675,-9.847461 0,0 2.05414,7.163859 3.89744,7.93595 1.8433,0.77209 3.74323,-10.707836 2.96933,-12.429216 -0.77391,-1.72138 -1.65515,-3.017031 -3.39153,-3.506246 -1.11215,-0.313342 -1.23144,-0.578776 -1.23144,-0.578776 0,0 0.65549,4.987652 -3.80597,5.186247 -3.59358,0.159962 -6.07798,-1.106574 -6.60115,-2.67839 -0.5398,-1.621769 -0.43305,-2.795178 -0.43305,-2.795178 z m -18.016988,6.410978 c -2.866201,0.08537 -7.736116,12.165465 -8.919352,25.267709 -1.283512,14.212606 3.452646,32.761706 22.8446,35.375106 19.39196,2.61339 33.98815,-26.7202 36.33628,-32.72566 2.34813,-6.005446 -9.99929,-13.389529 -12.39717,-12.959928 -2.39787,0.429601 -12.84527,19.036618 -22.914366,21.444168 -10.069092,2.40755 -4.407479,-22.428554 -5.074109,-25.346255 -0.66663,-2.9177 -4.517397,-7.276493 -9.193754,-10.811744 -0.210654,-0.171731 -0.439231,-0.25063 -0.682129,-0.243396 z m 40.989088,52.067665 c 0,0 -2.61495,7.30943 -22.40703,10.35592 -16.340675,2.51524 -22.476001,-6.39271 -22.476001,-6.39271 l -6.537462,8.05772 c 0,0 2.88544,4.57368 16.735413,7.30343 13.84998,2.72975 25.35194,0.40256 25.35194,0.40256 l 1.06454,-12.48503 9.8304,9.61234 8.88473,-9.80044 z"
           sodipodi:nodetypes="ccscscssscsscssssssscscsccsccccc" />
      </g>
    </g>
    <g
       inkscape:groupmode="layer"
       id="layer14"
       inkscape:label="walk2"
       transform="translate(-269.70237,-271.41953)">
      <g
         inkscape:groupmode="layer"
         id="layer10-8"
         inkscape:label="pernas"
         transform="translate(1.109103,7.2214031)">
        <path
           style="opacity:1;fill:none;fill-opacity:1;stroke:#1a1a1a;stroke-width:13;stroke-dasharray:none;stroke-opacity:1"
           d="m 121.01656,114.73009 c -12.78324,18.02589 -9.5053,53.02211 -5.36157,77.27357 4.1817,24.47365 2.62061,52.03263 17.95684,72.95269"
           id="path21200-8"
           sodipodi:nodetypes="cssc"
           inkscape:original-d="m 121.01656,114.73009 c -9.82807,3.05223 -6.09475,5.02536 -5.64588,12.36405 1.08723,17.77559 -2.0331,50.46422 0.73717,68.44626 3.05435,19.82597 3.75677,52.96068 17.50398,69.41595"
           inkscape:path-effect="#path-effect21202-8" />
        <path
           style="opacity:1;fill:#1a1a1a;fill-opacity:1;stroke:none;stroke-width:13;stroke-dasharray:none;stroke-opacity:1"
           d="m 124.32845,238.03228 c 0,0 -5.00679,20.23799 -2.21743,29.27778 2.78935,9.03981 9.14586,12.85704 9.14586,12.85704 l 9.09608,-4.15203 -0.57586,-4.95722 c 0,0 3.07058,1.03697 12.20191,2.54164 9.13134,1.50466 19.49473,-14.26977 19.49473,-14.26977 0,0 -13.04245,3.48232 -20.37552,2.21833 -7.33307,-1.26397 -17.97871,-9.82282 -17.97871,-9.82282 z"
           id="path21990-5"
           sodipodi:nodetypes="czccczcscc" />
        <path
           style="opacity:1;fill:none;fill-opacity:1;stroke:#1a1a1a;stroke-width:13;stroke-dasharray:none;stroke-opacity:1"
           d="m 101.95295,136.46556 c 0.0723,-26.47037 1.44815,18.30863 1.88888,27.74744 1.1104,23.78077 -6.037282,51.82413 -31.260298,60.67586 -9.610518,3.3727 -20.067338,1.64277 -30.010511,1.66452"
           id="path22211-9"
           inkscape:path-effect="#path-effect22213-0"
           inkscape:original-d="m 101.95295,136.46556 c -0.91858,-16.60953 1.81235,-13.97079 0,0 0,0 2.5394,29.76935 1.93795,36.00235 -2.50593,25.96931 -7.832438,38.10714 -18.392526,44.93546 -15.247254,9.8591 -14.990759,10.12757 -42.927353,9.15001"
           sodipodi:nodetypes="ccssc" />
        <path
           style="opacity:1;fill:#1a1a1a;fill-opacity:1;stroke:none;stroke-width:13;stroke-dasharray:none;stroke-opacity:1"
           d="m 30.533741,215.61926 c 0,0 26.362844,2.81242 37.81948,8.52928 9.718847,4.84969 -12.650564,2.77108 -12.650564,2.77108 0,0 -10.884555,5.87436 -17.581901,9.54395 -12.194977,6.68185 -21.509848,27.58696 -21.509848,27.58696 0,0 -5.873688,-14.19672 0.912141,-24.0591 6.78585,-9.86242 10.277226,-11.37887 10.277226,-11.37887 l -3.897413,-1.97489 z"
           id="path22676-6"
           sodipodi:nodetypes="cscscsccc" />
      </g>
      <g
         inkscape:groupmode="layer"
         id="layer11-7"
         inkscape:label="walk2"
         transform="translate(-0.952051,4.2236332)">
        <g
           inkscape:groupmode="layer"
           id="layer2-0"
           inkscape:label="cabelo"
           style="display:inline;opacity:1;fill:#666666;fill-opacity:1">
          <path
             style="opacity:1;fill:#666666;fill-opacity:1;stroke-width:0.251588"
             d="m 88.71533,17.937876 c 0,0 0.110337,-1.334837 -0.0048,-3.038564 C 88.496653,11.732813 87.50402,7.2920644 83.576997,7.7785042 77.53705,8.5266714 88.71533,17.937876 88.71533,17.937876 Z"
             id="path1811-6"
             sodipodi:nodetypes="cssc"
             inkscape:transform-center-x="1.0903215"
             inkscape:transform-center-y="0.68215316" />
          <path
             style="display:inline;opacity:1;fill:#666666;fill-opacity:1;stroke-width:0.264583"
             d="m 87.33968,18.473827 c 0,0 -9.653252,-6.451305 -9.16722,-0.496535 0.486029,5.95477 9.16722,0.496535 9.16722,0.496535 z"
             id="path1813-4" />
          <path
             style="display:inline;opacity:1;fill:#666666;fill-opacity:1;stroke-width:0.264583"
             d="m 89.748827,20.496548 c 0,0 -7.893836,-0.848034 -9.638638,6.860217 -1.744806,7.708249 0.126637,8.784114 0.126637,8.784114 l 5.797257,17.125227 c 0,0 -1.533742,2.936476 3.151904,6.58176 4.685646,3.64528 21.190933,5.240091 21.190933,5.240091 0,0 -10.553252,-0.02532 5.83947,-1.253067 16.39272,-1.227751 25.27153,-14.69504 25.27153,-14.69504 0,0 -13.56445,6.467843 -5.92389,2.316274 7.64055,-4.151572 13.52554,-22.464434 13.52554,-22.464434 0,0 -24.1773,10.629928 -13.6944,5.503751 10.4829,-5.126178 16.77119,-16.557565 16.77119,-16.557565 0,0 -5.16261,1.508122 -16.22242,0.47023 -11.05981,-1.037893 -18.68629,-5.29072 -28.92999,-5.556522 -10.24369,-0.265802 -16.364579,4.01234 -17.265123,7.644964 z"
             id="path1815-6"
             sodipodi:nodetypes="csccscscscscssc" />
        </g>
        <g
           inkscape:groupmode="layer"
           id="layer4-6"
           inkscape:label="cabeça"
           style="display:inline">
          <path
             id="path7707-4"
             style="opacity:1;fill:#ececec;fill-opacity:1;stroke-width:0.264583"
             d="m 111.8986,21.36252 c -10.25238,-0.04385 -20.686596,3.156397 -20.686596,3.156397 l -2.372982,13.003857 c -1.748167,-1.378532 -3.933939,-2.131397 -6.18877,-2.131653 -5.412905,-2.65e-4 -9.801049,4.247207 -9.800952,9.48676 -9.6e-5,5.239553 4.388048,9.487024 9.800952,9.486759 1.370555,-0.0022 2.725395,-0.282642 3.977019,-0.823205 1.197863,2.864343 5.125877,9.479537 16.289449,11.299568 l 0.10128,10.319267 11.03137,1.974557 -0.28215,-12.042676 c 12.85047,-1.420326 18.663,-9.706365 17.74413,-29.675708 C 131.00018,24.307376 121.52962,21.403715 111.8986,21.36252 Z"
             sodipodi:nodetypes="sccccccccccss" />
        </g>
        <g
           inkscape:groupmode="layer"
           id="layer5-0"
           inkscape:label="franja"
           style="display:inline">
          <path
             style="opacity:1;fill:#666666;fill-opacity:1;stroke-width:0.268955"
             d="m 80.996099,36.935519 c 0,0 5.657432,2.634894 6.216191,6.152479 0.558758,3.517583 4.904134,1.185267 7.112961,-3.803041 3.816629,-8.619291 -0.338017,-13.415998 -0.338017,-13.415998 0,0 -0.293346,-6.495016 -7.235926,-0.73777 -6.942578,5.757245 -7.570375,10.677837 -7.570375,10.677837 z"
             id="path9016-5"
             sodipodi:nodetypes="csscscc" />
          <path
             style="opacity:1;fill:#666666;fill-opacity:1;stroke-width:0.264583"
             d="m 92.928875,20.088748 c 0,0 -4.193161,9.961238 15.196685,13.011629 19.38985,3.050392 27.01634,-0.582234 27.01634,-0.582234 0,0 -3.37705,-9.151173 -5.23442,-9.999207 C 128.05011,21.670902 96.77026,18.30408 96.77026,18.30408 Z"
             id="path9842-5" />
          <path
             style="opacity:1;fill:#4d4d4d;fill-opacity:1;stroke-width:0.264583"
             d="m 99.106051,20.962098 c 8.597379,-4.505974 13.822939,6.21922 18.981789,7.214619 9.53053,1.838915 19.00993,-3.126336 19.00993,-3.126336 0,0 -7.75128,21.04711 -26.46757,16.707539 C 96.570975,38.498139 90.508662,25.468071 99.106051,20.962098 Z"
             id="path9432-2"
             sodipodi:nodetypes="zscsz"
             inkscape:label="path9432" />
        </g>
        <g
           inkscape:groupmode="layer"
           id="layer6-7"
           inkscape:label="olhos">
          <rect
             style="opacity:1;fill:#1a1a1a;fill-opacity:1;stroke-width:0.264583"
             id="rect10692-3"
             width="3.968024"
             height="12.264852"
             x="107.84415"
             y="45.1105"
             ry="1.984012" />
          <rect
             style="fill:#1a1a1a;fill-opacity:1;stroke-width:0.264583"
             id="rect10692-0-4"
             width="3.968024"
             height="12.264852"
             x="115.8922"
             y="45.22234"
             ry="1.984012" />
        </g>
        <g
           inkscape:groupmode="layer"
           id="layer8-6"
           inkscape:label="colete"
           style="fill:#b3b3b3;fill-opacity:1">
          <path
             id="path15625-1"
             style="opacity:1;fill:#b3b3b3;fill-opacity:1;stroke:none;stroke-width:0.264583;stroke-opacity:1"
             d="m 90.490601,69.289827 c -0.145894,-0.0015 -0.293419,0.0025 -0.442867,0.0124 -3.754805,0.249746 -4.476014,3.869943 -4.613672,5.418274 l -0.03411,-0.04083 -0.837077,34.957679 c 0,0 -3.798975,1.79844 -5.196632,2.85875 -1.39766,1.0603 -1.914126,10.95785 -1.914126,10.95785 0,0 4.327395,14.92018 24.500833,13.01161 16.57259,-1.56789 22.54764,-8.35111 24.16289,-11.05411 l 0.33846,-0.53329 c 0,0 2.69421,-5.78681 0.80822,-9.42217 -1.886,-3.63536 -3.46904,-1.66605 -3.46904,-1.66605 0,0 -0.40422,-19.343049 -0.37052,-25.068748 0.0337,-5.7257 -2.39107,-6.649724 -2.39107,-6.649724 0,0 2.66079,-1.211679 2.57659,-4.332035 -0.0842,-3.120355 -0.11782,-8.800771 -5.40536,-7.997962 -5.28753,0.802812 -3.30057,6.422347 -3.30057,6.422347 L 97.810567,74.709652 c 0,0 -2.797269,-5.37318 -7.319966,-5.419825 z"
             sodipodi:nodetypes="sccccscsccscscssccs" />
        </g>
        <g
           inkscape:groupmode="layer"
           id="layer9-6"
           inkscape:label="mãos">
          <path
             style="opacity:1;fill:#ececec;fill-opacity:1;stroke:none;stroke-width:0.264583;stroke-opacity:1"
             d="m 93.957615,122.62095 c 0,0 1.105409,-5.90988 6.610655,-7.59632 5.50525,-1.68645 6.99646,6.20837 6.99646,6.20837 0,0 2.57675,7.39973 -2.56794,10.2027 -5.144687,2.80298 -9.731006,0.28578 -9.731006,0.28578 z"
             id="path17497-7" />
          <path
             style="opacity:1;fill:#ececec;fill-opacity:1;stroke:none;stroke-width:0.264583;stroke-opacity:1"
             d="m 136.39529,132.72213 c 0,0 4.32021,-4.20618 8.13216,-1.85925 3.81196,2.34692 5.3198,5.88255 4.1508,8.99146 -1.169,3.10892 -3.67642,5.95876 -7.014,5.69968 -3.33758,-0.25907 -8.7082,-6.72074 -8.7082,-6.72074 z"
             id="path17710-5" />
        </g>
        <g
           inkscape:groupmode="layer"
           id="layer7-0"
           inkscape:label="roupa"
           style="display:inline">
          <path
             style="opacity:1;fill:#808080;fill-opacity:1;stroke:none;stroke-width:0.264583;stroke-opacity:1"
             d="m 125.94876,125.66834 c 0,0 -2.61495,7.30943 -22.40703,10.35592 -16.340675,2.51524 -22.476001,-6.39271 -22.476001,-6.39271 l -6.537462,8.05772 c 0,0 2.88544,4.57368 16.735413,7.30343 13.84998,2.72975 25.35194,0.40256 25.35194,0.40256 l 1.06454,-12.48503 9.8304,9.61234 8.88473,-9.80044 z"
             id="path32686" />
          <path
             style="opacity:1;fill:#808080;fill-opacity:1;stroke:none;stroke-width:0.264583;stroke-opacity:1"
             d="m 87.843033,77.021744 c -1.71251,-2.299938 -14.40301,0.631943 -25.818428,7.170837 -12.382827,7.093038 -24.869706,21.604349 -15.898364,38.993799 8.971353,17.38944 41.375032,12.54074 47.642182,11.02347 6.267127,-1.51727 5.24242,-15.86765 3.5162,-17.58653 -1.72622,-1.71887 -22.96187,0.38266 -30.705202,-6.4893 -7.743334,-6.87195 15.854462,-16.465174 17.863502,-18.683539 2.00903,-2.218365 3.3743,-7.871994 3.59155,-13.730246 0.02,-0.271046 -0.0463,-0.503581 -0.19144,-0.698491 z"
             id="path32684" />
          <path
             style="opacity:1;fill:#808080;fill-opacity:1;stroke:none;stroke-width:0.264583;stroke-opacity:1"
             d="m 102.97666,67.189697 -1.3038,0.157613 c 0,0 -0.9918,0.139872 -1.63814,0.746725 -1.14938,1.079166 -3.363101,4.505668 -3.363101,4.505668 0,0 6.247431,12.429715 10.454661,13.303064 4.20722,0.873346 4.44675,-9.847461 4.44675,-9.847461 0,0 2.05414,7.163859 3.89744,7.93595 1.8433,0.77209 3.74323,-10.707836 2.96933,-12.429216 -0.77391,-1.72138 -1.65515,-3.017031 -3.39153,-3.506246 -1.11215,-0.313342 -1.23144,-0.578776 -1.23144,-0.578776 0,0 0.65549,4.987652 -3.80597,5.186247 -3.59358,0.159962 -6.07798,-1.106574 -6.60115,-2.67839 -0.5398,-1.621769 -0.43305,-2.795178 -0.43305,-2.795178 z"
             id="path11782-7" />
          <path
             style="opacity:1;fill:#808080;fill-opacity:1;stroke:none;stroke-width:13;stroke-dasharray:none;stroke-opacity:1"
             d="m 127.63153,121.23201 c 0,0 13.60247,8.08911 11.18312,9.78961 -2.41936,1.70051 -1.32189,11.66448 -5.41666,11.13856 -4.09476,-0.52593 -14.55261,-10.5077 -14.55261,-10.5077 0,0 4.42382,-2.45384 5.88818,-4.19058 1.46436,-1.73675 2.89797,-6.22989 2.89797,-6.22989 z"
             id="path32691"
             sodipodi:nodetypes="cssczc" />
        </g>
      </g>
    </g>
    <g
       inkscape:groupmode="layer"
       id="layer14-5"
       inkscape:label="walk3"
       transform="translate(-88.464312,-271.41918)"
       style="display:inline">
      <g
         inkscape:groupmode="layer"
         id="layer10-7"
         inkscape:label="pernas"
         transform="translate(1.109103,7.2214031)">
        <path
           style="opacity:1;fill:none;fill-opacity:1;stroke:#1a1a1a;stroke-width:13;stroke-dasharray:none;stroke-opacity:1"
           d="m 121.01656,114.73009 c -21.363625,2.46449 -38.08395,15.9914 -19.20936,39.86366 14.71702,18.61384 57.70357,36.45556 38.47296,62.32718 -7.754,10.43173 -17.62957,19.28065 -23.57485,31.03206"
           id="path21200-1"
           sodipodi:nodetypes="cssc"
           inkscape:original-d="m 121.01656,114.73009 c -9.82807,3.05223 -31.204266,11.43384 -31.190281,18.78623 0.04021,21.13934 51.215341,48.12367 53.985611,66.10571 3.05435,19.82597 -13.06369,22.89822 -27.10658,48.33096"
           inkscape:path-effect="#path-effect21202-9" />
        <path
           style="opacity:1;fill:#1a1a1a;fill-opacity:1;stroke:none;stroke-width:13;stroke-dasharray:none;stroke-opacity:1"
           d="m 126.24416,224.50219 c 0,0 -16.32025,12.9728 -19.62948,21.83549 -3.30925,8.86271 -0.60494,15.76656 -0.60494,15.76656 l 9.73913,2.2643 2.57014,-4.27786 c 0,0 1.79898,2.69581 8.1128,9.46198 6.31384,6.76615 24.15186,0.5987 24.15186,0.5987 0,0 -12.45598,-5.20388 -17.49244,-10.68163 -5.03647,-5.47773 -8.24332,-18.75551 -8.24332,-18.75551 z"
           id="path21990-4"
           sodipodi:nodetypes="czccczcscc" />
        <path
           style="opacity:1;fill:none;fill-opacity:1;stroke:#1a1a1a;stroke-width:13;stroke-dasharray:none;stroke-opacity:1"
           d="m 101.95295,136.46556 c -0.27566,-26.7956 2.51465,29.14918 0.17527,38.87673 -6.643739,27.62585 -26.251878,50.58631 -19.621066,82.32344 0.940831,4.50311 2.087404,8.96062 3.318645,13.39212"
           id="path22211-6"
           inkscape:path-effect="#path-effect22213-5"
           inkscape:original-d="m 101.95295,136.46556 c -0.91858,-16.60953 1.81235,-13.97079 0,0 0,0 1.37651,27.96441 0.77506,34.19741 -2.50593,25.96931 -16.578258,35.32377 -19.202416,47.62236 -3.718527,17.42754 -5.207019,25.80132 2.300205,52.77252"
           sodipodi:nodetypes="ccssc" />
        <path
           style="opacity:1;fill:#1a1a1a;fill-opacity:1;stroke:none;stroke-width:11.3323;stroke-dasharray:none;stroke-opacity:1"
           d="m 78.418983,280.166 c 0,0 -5.301256,-33.23483 -2.17154,-44.21376 2.654976,-9.3136 4.140844,10.74161 4.140844,10.74161 0,0 6.481577,8.7113 10.51578,14.06305 7.345761,9.74483 33.364903,14.45982 33.364903,14.45982 0,0 -9.38789,4.66721 -22.83976,4.94928 -3.310799,0.0694 -12.481686,-4.67442 -12.481686,-4.67442 l -0.289303,4.67442 z"
           id="path22676-2"
           sodipodi:nodetypes="cscscsccc" />
      </g>
      <g
         inkscape:groupmode="layer"
         id="layer11-1"
         inkscape:label="CORPO"
         transform="matrix(1.0399547,0,0,1,-9.6882124,9.5799056)">
        <g
           inkscape:groupmode="layer"
           id="layer2-9"
           inkscape:label="cabelo"
           style="display:inline;opacity:1;fill:#666666;fill-opacity:1">
          <path
             style="opacity:1;fill:#666666;fill-opacity:1;stroke-width:0.251588"
             d="m 88.71533,17.937876 c 0,0 0.110337,-1.334837 -0.0048,-3.038564 C 88.496653,11.732813 87.50402,7.2920644 83.576997,7.7785042 77.53705,8.5266714 88.71533,17.937876 88.71533,17.937876 Z"
             id="path1811-7"
             sodipodi:nodetypes="cssc"
             inkscape:transform-center-x="1.0903215"
             inkscape:transform-center-y="0.68215316" />
          <path
             style="display:inline;opacity:1;fill:#666666;fill-opacity:1;stroke-width:0.264583"
             d="m 87.33968,18.473827 c 0,0 -9.653252,-6.451305 -9.16722,-0.496535 0.486029,5.95477 9.16722,0.496535 9.16722,0.496535 z"
             id="path1813-5" />
          <path
             style="display:inline;opacity:1;fill:#666666;fill-opacity:1;stroke-width:0.264583"
             d="m 89.748827,20.496548 c 0,0 -7.893836,-0.848034 -9.638638,6.860217 -1.744806,7.708249 0.126637,8.784114 0.126637,8.784114 l 5.797257,17.125227 c 0,0 -1.533742,2.936476 3.151904,6.58176 4.685646,3.64528 21.190933,5.240091 21.190933,5.240091 0,0 -10.553252,-0.02532 5.83947,-1.253067 16.39272,-1.227751 24.34892,-17.771884 24.34892,-17.771884 0,0 -12.64184,9.544687 -5.00128,5.393118 7.64055,-4.151572 14.72497,-28.70551 14.72497,-28.70551 0,0 -25.37673,16.871004 -14.89383,11.744827 10.4829,-5.126178 15.73354,-26.7537379 15.73354,-26.7537379 0,0 -6.33444,10.3225189 -17.39425,9.2846269 -11.05981,-1.037893 -16.47681,-3.908944 -26.72051,-4.174746 -10.24369,-0.265802 -16.364579,4.01234 -17.265123,7.644964 z"
             id="path1815-5"
             sodipodi:nodetypes="csccscscscscssc" />
        </g>
        <g
           inkscape:groupmode="layer"
           id="layer4-66"
           inkscape:label="cabeça"
           style="display:inline">
          <path
             id="path7707-2"
             style="opacity:1;fill:#ececec;fill-opacity:1;stroke-width:0.264583"
             d="m 111.8986,21.36252 c -10.25238,-0.04385 -20.686596,3.156397 -20.686596,3.156397 l -2.372982,13.003857 c -1.748167,-1.378532 -3.933939,-2.131397 -6.18877,-2.131653 -5.412905,-2.65e-4 -9.801049,4.247207 -9.800952,9.48676 -9.6e-5,5.239553 4.388048,9.487024 9.800952,9.486759 1.370555,-0.0022 2.725395,-0.282642 3.977019,-0.823205 1.197863,2.864343 5.125877,9.479537 16.289449,11.299568 l 0.10128,10.319267 11.03137,1.974557 -0.28215,-12.042676 c 12.85047,-1.420326 18.663,-9.706365 17.74413,-29.675708 C 131.00018,24.307376 121.52962,21.403715 111.8986,21.36252 Z"
             sodipodi:nodetypes="sccccccccccss" />
        </g>
        <g
           inkscape:groupmode="layer"
           id="layer5-9"
           inkscape:label="franja"
           style="display:inline">
          <path
             style="opacity:1;fill:#666666;fill-opacity:1;stroke-width:0.268955"
             d="m 80.996099,36.935519 c 0,0 5.657432,2.634894 6.216191,6.152479 0.558758,3.517583 4.904134,1.185267 7.112961,-3.803041 3.816629,-8.619291 -0.338017,-13.415998 -0.338017,-13.415998 0,0 -0.293346,-6.495016 -7.235926,-0.73777 -6.942578,5.757245 -7.570375,10.677837 -7.570375,10.677837 z"
             id="path9016-2"
             sodipodi:nodetypes="csscscc" />
          <path
             style="opacity:1;fill:#666666;fill-opacity:1;stroke-width:0.264583"
             d="m 92.928875,20.088748 c 0,0 -4.193161,9.961238 15.196685,13.011629 19.38985,3.050392 27.01634,-0.582234 27.01634,-0.582234 0,0 -3.37705,-9.151173 -5.23442,-9.999207 C 128.05011,21.670902 96.77026,18.30408 96.77026,18.30408 Z"
             id="path9842-0" />
          <path
             style="opacity:1;fill:#4d4d4d;fill-opacity:1;stroke-width:0.264583"
             d="m 99.106051,20.962098 c 8.597379,-4.505974 13.822939,6.21922 18.981789,7.214619 9.53053,1.838915 19.00993,-3.126336 19.00993,-3.126336 0,0 -7.75128,21.04711 -26.46757,16.707539 C 96.570975,38.498139 90.508662,25.468071 99.106051,20.962098 Z"
             id="path9432-9"
             sodipodi:nodetypes="zscsz"
             inkscape:label="path9432" />
        </g>
        <g
           inkscape:groupmode="layer"
           id="layer6-8"
           inkscape:label="olhos">
          <rect
             style="opacity:1;fill:#1a1a1a;fill-opacity:1;stroke-width:0.264583"
             id="rect10692-4"
             width="3.968024"
             height="12.264852"
             x="107.84415"
             y="45.1105"
             ry="1.984012" />
          <rect
             style="fill:#1a1a1a;fill-opacity:1;stroke-width:0.264583"
             id="rect10692-0-2"
             width="3.968024"
             height="12.264852"
             x="115.8922"
             y="45.22234"
             ry="1.984012" />
        </g>
        <g
           inkscape:groupmode="layer"
           id="layer8-8"
           inkscape:label="colete"
           style="fill:#b3b3b3;fill-opacity:1">
          <path
             id="path15625-8"
             style="opacity:1;fill:#b3b3b3;fill-opacity:1;stroke:none;stroke-width:0.264583;stroke-opacity:1"
             d="m 90.490601,69.289827 c -0.145894,-0.0015 -0.293419,0.0025 -0.442867,0.0124 -3.754805,0.249746 -4.476014,3.869943 -4.613672,5.418274 l -0.03411,-0.04083 -0.837077,34.957679 c 0,0 -3.798975,1.79844 -5.196632,2.85875 -1.39766,1.0603 -1.914126,10.95785 -1.914126,10.95785 0,0 4.327395,14.92018 24.500833,13.01161 16.57259,-1.56789 22.54764,-8.35111 24.16289,-11.05411 l 0.33846,-0.53329 c 0,0 2.69421,-5.78681 0.80822,-9.42217 -1.886,-3.63536 -3.46904,-1.66605 -3.46904,-1.66605 0,0 -0.40422,-19.343049 -0.37052,-25.068748 0.0337,-5.7257 -2.39107,-6.649724 -2.39107,-6.649724 0,0 2.66079,-1.211679 2.57659,-4.332035 -0.0842,-3.120355 -0.11782,-8.800771 -5.40536,-7.997962 -5.28753,0.802812 -3.30057,6.422347 -3.30057,6.422347 L 97.810567,74.709652 c 0,0 -2.797269,-5.37318 -7.319966,-5.419825 z"
             sodipodi:nodetypes="sccccscsccscscssccs" />
        </g>
        <g
           inkscape:groupmode="layer"
           id="layer7-5"
           inkscape:label="roupa"
           style="display:inline">
          <path
             style="opacity:1;fill:#808080;fill-opacity:1;stroke:none;stroke-width:0.264583;stroke-opacity:1"
             d="m 126.69444,124.29952 c 0,0 -3.36063,8.67825 -23.15271,11.72474 -16.340675,2.51524 -22.476001,-6.39271 -22.476001,-6.39271 l -6.537462,8.05772 c 0,0 2.88544,4.57368 16.735413,7.30343 13.84998,2.72975 25.35194,0.40256 25.35194,0.40256 l 1.06454,-12.48503 9.8304,9.61234 8.88473,-9.80044 z"
             id="path32686-5"
             sodipodi:nodetypes="csccsccccc" />
          <path
             style="opacity:1;fill:#808080;fill-opacity:1;stroke:none;stroke-width:0.264583;stroke-opacity:1"
             d="m 87.843033,77.021744 c -1.71251,-2.299938 -14.40301,0.631943 -25.818428,7.170837 -12.382827,7.093038 -24.869706,21.604349 -15.898364,38.993799 8.971353,17.38944 25.058726,19.42202 31.325876,17.90475 6.267127,-1.51727 9.164471,-15.598 7.438251,-17.31688 -1.72622,-1.71887 -12.807541,-2.11392 -20.550873,-8.98588 -7.743334,-6.87195 18.094388,-21.119524 20.103428,-23.337889 2.00903,-2.218365 3.3743,-7.871994 3.59155,-13.730246 0.02,-0.271046 -0.0463,-0.503581 -0.19144,-0.698491 z"
             id="path32684-4"
             sodipodi:nodetypes="csssssscc" />
          <path
             style="opacity:1;fill:#808080;fill-opacity:1;stroke:none;stroke-width:0.264583;stroke-opacity:1"
             d="m 102.97666,67.189697 -1.3038,0.157613 c 0,0 -0.9918,0.139872 -1.63814,0.746725 -1.14938,1.079166 -3.363101,4.505668 -3.363101,4.505668 0,0 6.247431,12.429715 10.454661,13.303064 4.20722,0.873346 4.44675,-9.847461 4.44675,-9.847461 0,0 2.05414,7.163859 3.89744,7.93595 1.8433,0.77209 3.74323,-10.707836 2.96933,-12.429216 -0.77391,-1.72138 -1.65515,-3.017031 -3.39153,-3.506246 -1.11215,-0.313342 -1.23144,-0.578776 -1.23144,-0.578776 0,0 0.65549,4.987652 -3.80597,5.186247 -3.59358,0.159962 -6.07798,-1.106574 -6.60115,-2.67839 -0.5398,-1.621769 -0.43305,-2.795178 -0.43305,-2.795178 z"
             id="path11782-6" />
          <path
             style="display:inline;opacity:1;fill:#ececec;fill-opacity:1;stroke:none;stroke-width:0.355536;stroke-opacity:1"
             d="m 151.26725,116.75868 c 0,0 5.50064,-5.96516 10.35415,-2.63677 4.85352,3.32838 6.77334,8.34258 5.28493,12.75161 -1.48841,4.40904 -4.68093,8.45067 -8.93045,8.08324 -4.24953,-0.36741 -11.08759,-9.53129 -11.08759,-9.53129 z"
             id="path17710-6" />
          <path
             id="path32691-4"
             style="display:inline;opacity:1;fill:#808080;fill-opacity:1;stroke:none;stroke-width:15.1869;stroke-dasharray:none;stroke-opacity:1"
             d="m 123.47894,95.862491 c 0.10389,7.777089 0.31454,17.927589 0.31454,17.927589 0,0 1.58293,-1.96931 3.46893,1.66605 1.54228,2.97284 0.0375,7.33417 -0.56797,8.84339 0.76025,0.52148 1.53019,1.00116 2.30119,1.41386 0.38015,0.2035 0.75276,0.35494 1.11805,0.46457 3.67544,1.50831 15.61078,6.22305 19.381,5.43895 4.47473,-0.93066 3.79765,-14.48676 5.65583,-17.38499 1.85819,-2.8982 -20.53929,-5.31492 -20.53929,-5.31492 0,0 -11.04618,-4.83373 -11.10744,-12.492259 -0.002,-0.214151 -0.0111,-0.397398 -0.0248,-0.56224 z" />
        </g>
        <g
           inkscape:groupmode="layer"
           id="layer9-3"
           inkscape:label="mãos">
          <path
             style="opacity:1;fill:#ececec;fill-opacity:1;stroke:none;stroke-width:0.264583;stroke-opacity:1"
             d="m 84.890368,123.77425 c 0,0 1.195079,-0.75889 6.933799,-0.68865 5.738727,0.0702 4.933504,8.07222 4.933504,8.07222 0,0 0.372283,7.86047 -5.337263,8.96765 -5.709545,1.10719 -9.382203,-2.70033 -9.382203,-2.70033 0,0 1.654369,-2.2316 2.776058,-7.21333 1.121689,-4.98173 0.0761,-6.43756 0.0761,-6.43756 z"
             id="path17497-8"
             sodipodi:nodetypes="cccsczc" />
        </g>
      </g>
    </g>
    <g
       inkscape:groupmode="layer"
       id="layer14-3"
       inkscape:label="walk4"
       transform="rotate(4.2508813,3752.2902,1572.9035)">
      <g
         inkscape:groupmode="layer"
         id="layer10-75"
         inkscape:label="pernas"
         transform="translate(-17.327525,12.445922)">
        <path
           style="opacity:1;fill:none;fill-opacity:1;stroke:#1a1a1a;stroke-width:13;stroke-dasharray:none;stroke-opacity:1"
           d="m 89.826279,133.51632 c 9.286778,29.92526 52.558051,17.58958 70.373241,40.0979 15.51606,19.60352 17.78685,46.00672 19.90644,70.03801"
           id="path21200-3"
           sodipodi:nodetypes="csc"
           inkscape:original-d="m 89.826279,133.51632 c 0.04021,21.13934 45.726431,22.53097 61.186331,32.12366 18.13852,11.25474 26.36857,38.28403 29.09335,78.01225"
           inkscape:path-effect="#path-effect21202-90" />
        <path
           style="opacity:1;fill:#1a1a1a;fill-opacity:1;stroke:none;stroke-width:13;stroke-dasharray:none;stroke-opacity:1"
           d="m 178.91125,222.80313 c 0,0 -6.88073,19.67994 -4.95051,28.94128 1.93021,9.26138 7.90116,13.65731 7.90116,13.65731 l 9.44504,-3.28162 -0.10891,-4.98937 c 0,0 2.95992,1.32006 11.91013,3.67358 8.95023,2.35349 18.69195,-16.70189 18.69195,-16.70189 0,0 -13.00829,4.80969 -20.19069,2.86427 -7.18241,-1.94539 -15.22857,-9.70726 -15.22857,-9.70726 z"
           id="path21990-2"
           sodipodi:nodetypes="czccczcscc" />
        <path
           style="opacity:1;fill:none;fill-opacity:1;stroke:#1a1a1a;stroke-width:13;stroke-dasharray:none;stroke-opacity:1"
           d="m 101.95295,136.46556 c -0.68384,-26.34821 4.12473,19.87422 5.83357,29.66186 4.06664,23.29234 -4.50797,52.96787 -25.147014,64.94681 -11.243429,6.52571 -24.698513,7.97185 -37.464023,7.24337"
           id="path22211-0"
           inkscape:path-effect="#path-effect22213-3"
           inkscape:original-d="m 101.95295,136.46556 c -0.91858,-16.60953 1.81235,-13.97079 0,0 0,0 4.28984,21.82203 6.86933,34.9243 2.22684,11.31099 -3.52348,30.08783 -13.108138,46.65821 -10.591803,18.31156 -33.954246,21.31632 -50.538659,20.26953"
           sodipodi:nodetypes="ccssc" />
        <path
           style="opacity:1;fill:#1a1a1a;fill-opacity:1;stroke:none;stroke-width:11.3323;stroke-dasharray:none;stroke-opacity:1"
           d="m 34.367801,231.45725 c 0,0 16.695935,-3.06138 32.737247,4.28355 8.805482,4.03182 -11.211454,2.61384 -11.211454,2.61384 0,0 8.846844,4.71485 -1.002331,6.63983 -2.307882,0.45107 -3.837483,7.98004 -4.690519,14.72449 -0.671703,5.31076 10.018521,15.22252 10.018521,15.22252 0,0 -17.274324,-0.96617 -20.864117,-14.43391 -0.852899,-3.1998 0.268323,-13.29292 0.268323,-13.29292 l -5.141521,0.45069 z"
           id="path22676-3"
           sodipodi:nodetypes="cscsscsccc"
           inkscape:transform-center-x="8.6077364"
           inkscape:transform-center-y="14.389366" />
      </g>
      <g
         inkscape:groupmode="layer"
         id="layer11-8"
         inkscape:label="CORPO"
         transform="matrix(1.0399547,0,0,0.95058668,-32.388087,14.156382)">
        <g
           inkscape:groupmode="layer"
           id="layer2-4"
           inkscape:label="cabelo"
           style="display:inline;opacity:1;fill:#666666;fill-opacity:1">
          <path
             style="opacity:1;fill:#666666;fill-opacity:1;stroke-width:0.251588"
             d="m 88.47424,18.182367 c 0,0 0.516515,-1.227364 0.933353,-2.879365 0.774831,-3.070325 1.205433,-7.6074319 -2.663917,-8.457667 -5.951247,-1.3077017 1.730564,11.337032 1.730564,11.337032 z"
             id="path1811-3"
             sodipodi:nodetypes="cssc"
             inkscape:transform-center-x="3.6644145"
             inkscape:transform-center-y="0.86083289" />
          <path
             style="display:inline;opacity:1;fill:#666666;fill-opacity:1;stroke-width:0.264583"
             d="m 87.344692,18.489654 c 0,0 -8.656117,-7.833536 -9.002153,-1.868197 -0.346038,5.965338 9.002153,1.868197 9.002153,1.868197 z"
             id="path1813-1" />
          <path
             style="display:inline;opacity:1;fill:#666666;fill-opacity:1;stroke-width:0.264583"
             d="m 89.748827,20.496548 c 0,0 -7.893836,-0.848034 -9.638638,6.860217 -1.744806,7.708249 0.126637,8.784114 0.126637,8.784114 l 5.797257,17.125227 c 0,0 -1.533742,2.936476 3.151904,6.58176 4.685646,3.64528 21.190933,5.240091 21.190933,5.240091 0,0 -10.553252,-0.02532 5.83947,-1.253067 16.39272,-1.227751 23.79554,-14.58644 23.79554,-14.58644 0,0 -12.08846,6.359243 -4.4479,2.207674 7.64055,-4.151572 12.85199,-28.70551 12.85199,-28.70551 0,0 -23.50375,16.871004 -13.02085,11.744827 10.4829,-5.126178 11.81732,-33.97452947 11.81732,-33.97452947 0,0 -6.07345,10.87157547 -17.20979,12.31887847 -11.01904,1.432058 -12.74505,0.277596 -22.98875,0.01179 -10.24369,-0.265802 -16.364579,4.01234 -17.265123,7.644964 z"
             id="path1815-7"
             sodipodi:nodetypes="csccscscscscsscc" />
        </g>
        <g
           inkscape:groupmode="layer"
           id="layer4-9"
           inkscape:label="cabeça"
           style="display:inline">
          <path
             id="path7707-5"
             style="opacity:1;fill:#ececec;fill-opacity:1;stroke-width:0.264583"
             d="m 111.8986,21.36252 c -10.25238,-0.04385 -20.686596,3.156397 -20.686596,3.156397 l -2.372982,13.003857 c -1.748167,-1.378532 -3.933939,-2.131397 -6.18877,-2.131653 -5.412905,-2.65e-4 -9.801049,4.247207 -9.800952,9.48676 -9.6e-5,5.239553 4.388048,9.487024 9.800952,9.486759 1.370555,-0.0022 2.725395,-0.282642 3.977019,-0.823205 1.197863,2.864343 5.125877,9.479537 16.289449,11.299568 l 0.10128,10.319267 11.03137,1.974557 -0.28215,-12.042676 c 12.85047,-1.420326 18.663,-9.706365 17.74413,-29.675708 C 131.00018,24.307376 121.52962,21.403715 111.8986,21.36252 Z"
             sodipodi:nodetypes="sccccccccccss" />
        </g>
        <g
           inkscape:groupmode="layer"
           id="layer5-90"
           inkscape:label="franja"
           style="display:inline">
          <path
             style="opacity:1;fill:#666666;fill-opacity:1;stroke-width:0.268955"
             d="m 80.996099,36.935519 c 0,0 5.657432,2.634894 6.216191,6.152479 0.558758,3.517583 4.904134,1.185267 7.112961,-3.803041 3.816629,-8.619291 -0.338017,-13.415998 -0.338017,-13.415998 0,0 -0.293346,-6.495016 -7.235926,-0.73777 -6.942578,5.757245 -7.570375,10.677837 -7.570375,10.677837 z"
             id="path9016-4"
             sodipodi:nodetypes="csscscc" />
          <path
             style="opacity:1;fill:#666666;fill-opacity:1;stroke-width:0.264583"
             d="m 92.928875,20.088748 c 0,0 -4.193161,9.961238 15.196685,13.011629 19.38985,3.050392 27.01634,-0.582234 27.01634,-0.582234 0,0 -3.37705,-9.151173 -5.23442,-9.999207 C 128.05011,21.670902 96.77026,18.30408 96.77026,18.30408 Z"
             id="path9842-3" />
          <path
             style="opacity:1;fill:#4d4d4d;fill-opacity:1;stroke-width:0.264583"
             d="m 99.106051,20.962098 c 8.597379,-4.505974 13.822939,6.21922 18.981789,7.214619 9.53053,1.838915 19.00993,-3.126336 19.00993,-3.126336 0,0 -7.75128,21.04711 -26.46757,16.707539 C 96.570975,38.498139 90.508662,25.468071 99.106051,20.962098 Z"
             id="path9432-5"
             sodipodi:nodetypes="zscsz"
             inkscape:label="path9432" />
        </g>
        <g
           inkscape:groupmode="layer"
           id="layer6-4"
           inkscape:label="olhos">
          <rect
             style="opacity:1;fill:#1a1a1a;fill-opacity:1;stroke-width:0.264583"
             id="rect10692-39"
             width="3.968024"
             height="12.264852"
             x="107.84415"
             y="45.1105"
             ry="1.984012" />
          <rect
             style="fill:#1a1a1a;fill-opacity:1;stroke-width:0.264583"
             id="rect10692-0-1"
             width="3.968024"
             height="12.264852"
             x="115.8922"
             y="45.22234"
             ry="1.984012" />
        </g>
        <g
           inkscape:groupmode="layer"
           id="layer8-2"
           inkscape:label="colete"
           style="fill:#b3b3b3;fill-opacity:1">
          <path
             id="path15625-5"
             style="opacity:1;fill:#b3b3b3;fill-opacity:1;stroke:none;stroke-width:0.264583;stroke-opacity:1"
             d="m 90.490601,69.289827 c -0.145894,-0.0015 -0.293419,0.0025 -0.442867,0.0124 -3.754805,0.249746 -4.476014,3.869943 -4.613672,5.418274 l -0.03411,-0.04083 -0.837077,34.957679 c 0,0 -3.798975,1.79844 -5.196632,2.85875 -1.39766,1.0603 -1.914126,10.95785 -1.914126,10.95785 0,0 4.327395,14.92018 24.500833,13.01161 16.57259,-1.56789 22.54764,-8.35111 24.16289,-11.05411 l 0.33846,-0.53329 c 0,0 2.69421,-5.78681 0.80822,-9.42217 -1.886,-3.63536 -3.46904,-1.66605 -3.46904,-1.66605 0,0 -0.40422,-19.343049 -0.37052,-25.068748 0.0337,-5.7257 -2.39107,-6.649724 -2.39107,-6.649724 0,0 2.66079,-1.211679 2.57659,-4.332035 -0.0842,-3.120355 -0.11782,-8.800771 -5.40536,-7.997962 -5.28753,0.802812 -3.30057,6.422347 -3.30057,6.422347 L 97.810567,74.709652 c 0,0 -2.797269,-5.37318 -7.319966,-5.419825 z"
             sodipodi:nodetypes="sccccscsccscscssccs" />
        </g>
        <g
           inkscape:groupmode="layer"
           id="layer7-2"
           inkscape:label="roupa"
           style="display:inline">
          <path
             style="opacity:1;fill:#808080;fill-opacity:1;stroke:none;stroke-width:0.264583;stroke-opacity:1"
             d="m 126.69444,124.29952 c 0,0 -3.36063,8.67825 -23.15271,11.72474 -16.340675,2.51524 -22.476001,-6.39271 -22.476001,-6.39271 l -6.537462,8.05772 c 0,0 2.88544,4.57368 16.735413,7.30343 13.84998,2.72975 25.35194,0.40256 25.35194,0.40256 l 1.06454,-12.48503 9.8304,9.61234 8.88473,-9.80044 z"
             id="path32686-6"
             sodipodi:nodetypes="csccsccccc" />
          <path
             style="opacity:1;fill:#808080;fill-opacity:1;stroke:none;stroke-width:0.264583;stroke-opacity:1"
             d="M 88.636854,74.249595 C 86.594689,71.196327 71.343705,68.047163 58.740741,71.498164 45.069728,75.241624 28.278866,88.283358 32.908019,107.42134 c 4.629166,19.13798 9.272372,22.53491 15.706144,22.65052 6.43375,0.1156 10.605229,-7.05795 10.217209,-9.51038 -1.19042,-7.5239 -10.864953,-23.173986 -4.091774,-31.105949 3.922832,-4.593967 33.653763,4.510379 34.627566,1.636221 1.825304,-5.255974 0.854547,-12.699677 -0.73031,-16.842157 z"
             id="path32684-6"
             sodipodi:nodetypes="cssssscc"
             inkscape:transform-center-x="21.860013"
             inkscape:transform-center-y="24.671625" />
          <path
             style="opacity:1;fill:#808080;fill-opacity:1;stroke:none;stroke-width:0.264583;stroke-opacity:1"
             d="m 102.97666,67.189697 -1.3038,0.157613 c 0,0 -0.9918,0.139872 -1.63814,0.746725 -1.14938,1.079166 -3.363101,4.505668 -3.363101,4.505668 0,0 6.247431,12.429715 10.454661,13.303064 4.20722,0.873346 4.44675,-9.847461 4.44675,-9.847461 0,0 2.05414,7.163859 3.89744,7.93595 1.8433,0.77209 3.74323,-10.707836 2.96933,-12.429216 -0.77391,-1.72138 -1.65515,-3.017031 -3.39153,-3.506246 -1.11215,-0.313342 -1.23144,-0.578776 -1.23144,-0.578776 0,0 0.65549,4.987652 -3.80597,5.186247 -3.59358,0.159962 -6.07798,-1.106574 -6.60115,-2.67839 -0.5398,-1.621769 -0.43305,-2.795178 -0.43305,-2.795178 z"
             id="path11782-4" />
          <path
             id="path32691-9"
             style="display:inline;opacity:1;fill:#808080;fill-opacity:1;stroke:none;stroke-width:15.1869;stroke-dasharray:none;stroke-opacity:1"
             d="m 139.792,77.69355 c -1.30686,-0.0153 -2.49522,0.472734 -3.39688,1.639176 -3.46747,4.485758 1.32407,12.489737 -4.78972,18.048511 -6.11379,5.558773 -8.04036,6.701993 -8.10162,-0.956531 -0.002,-0.214151 -0.0112,-0.397398 -0.0249,-0.56224 0.0452,3.386183 0.10993,7.130004 0.16945,10.382314 0.0172,0.93037 0.0337,1.84191 0.0492,2.64687 0.048,2.49807 0.0959,4.8984 0.0959,4.8984 0,0 1.04669,-1.30167 2.45175,0.16589 2.26977,-0.22539 2.4882,2.88887 9.46945,-0.72348 8.71002,-6.10237 15.05853,-19.888607 14.99842,-24.088447 -0.0705,-4.921035 -6.25374,-11.395837 -10.9211,-11.450463 z"
             sodipodi:nodetypes="csscccccccccc" />
        </g>
        <path
           style="display:inline;opacity:1;fill:#ececec;fill-opacity:1;stroke:none;stroke-width:0.277337;stroke-opacity:1"
           d="m 136.27015,77.072043 c 0,0 -0.74404,-7.906494 2.6499,-10.490939 3.39394,-2.584459 10.27756,3.489625 11.79651,7.057719 1.51895,3.568112 -0.52959,6.04654 -2.30054,9.611199 -1.77095,3.564675 -10.84346,-1.136044 -11.31829,-2.271424 -0.47482,-1.135381 -0.82758,-3.906555 -0.82758,-3.906555 z"
           id="path17710-53"
           sodipodi:nodetypes="cssszc" />
        <g
           inkscape:groupmode="layer"
           id="layer9-1"
           inkscape:label="mãos">
          <path
             style="opacity:1;fill:#ececec;fill-opacity:1;stroke:none;stroke-width:0.264583;stroke-opacity:1"
             d="m 58.179803,123.37406 c 0,0 1.323588,0.47524 4.925088,5.12218 3.601536,4.64693 -2.844772,9.09569 -2.844772,9.09569 0,0 -5.591683,5.30297 -10.047712,1.42901 -4.456016,-3.87393 -3.970883,-9.24333 -3.970883,-9.24333 0,0 2.708058,-0.094 7.116241,-2.36612 4.408183,-2.2721 4.82202,-4.03748 4.82202,-4.03748 z"
             id="path17497-9"
             sodipodi:nodetypes="cccsczcc"
             inkscape:transform-center-x="0.1526491"
             inkscape:transform-center-y="-0.34935424" />
        </g>
      </g>
    </g>
    <g
       inkscape:groupmode="layer"
       id="layer14-59"
       inkscape:label="walk5"
       transform="rotate(4.2508814,3991.9202,4889.2267)">
      <g
         inkscape:groupmode="layer"
         id="layer10-1"
         inkscape:label="pernas"
         transform="rotate(8.3439573,9.9907581,23.127385)"
         inkscape:transform-center-x="12.780255"
         inkscape:transform-center-y="62.796551">
        <path
           style="opacity:1;fill:none;fill-opacity:1;stroke:#1a1a1a;stroke-width:13;stroke-dasharray:none;stroke-opacity:1"
           d="m 99.218475,117.59364 c 1.709625,39.14031 22.023785,73.4436 41.509065,106.47453 4.73574,8.0279 9.44218,16.07303 14.14664,24.11928"
           id="path21200-9"
           sodipodi:nodetypes="csc"
           inkscape:original-d="m 99.218475,117.59364 c 0.04021,21.13934 12.815675,59.93817 22.461975,75.36469 10.25349,16.39755 8.5371,13.04687 33.19373,55.22912"
           inkscape:path-effect="#path-effect21202-3" />
        <path
           style="opacity:1;fill:#1a1a1a;fill-opacity:1;stroke:none;stroke-width:13;stroke-dasharray:none;stroke-opacity:1"
           d="m 143.87322,230.29194 c 0,0 4.73766,16.74912 6.66788,26.01046 1.93021,9.26138 5.5119,15.57212 5.5119,15.57212 l 12.19553,-2.72487 -1.47312,-4.81013 c 0,0 6.56799,3.5617 15.79621,1.49982 9.22822,-2.06188 18.58973,-5.5319 18.58973,-5.5319 0,0 -14.87822,-1.92244 -24.21288,-6.33972 -6.67424,-3.15834 -10.77594,-5.10863 -10.77594,-5.10863 z"
           id="path21990-7"
           sodipodi:nodetypes="czccczcscc" />
        <path
           style="opacity:1;fill:none;fill-opacity:1;stroke:#1a1a1a;stroke-width:13;stroke-dasharray:none;stroke-opacity:1"
           d="m 101.95295,136.46556 c -1.0253,-25.86858 4.90403,24.09142 6.86933,34.9243 3.94487,21.7444 -11.661112,43.54792 -34.657956,46.19586 -9.709455,1.11798 -19.436792,-0.32972 -29.123331,-0.959"
           id="path22211-68"
           inkscape:path-effect="#path-effect22213-1"
           inkscape:original-d="m 101.95295,136.46556 c -0.91858,-16.60953 1.81235,-13.97079 0,0 0,0 4.28984,21.82203 6.86933,34.9243 2.22684,11.31099 -2.79757,29.79364 -12.090271,37.11745 -16.614453,13.09425 -35.106603,9.1662 -51.691016,8.11941"
           sodipodi:nodetypes="ccssc" />
        <path
           style="opacity:1;fill:#1a1a1a;fill-opacity:1;stroke:none;stroke-width:11.3323;stroke-dasharray:none;stroke-opacity:1"
           d="m 36.782162,203.44014 c 0,0 16.708,2.99483 29.149753,15.5038 6.829592,6.8665 -11.415485,-1.48847 -11.415485,-1.48847 0,0 6.628533,7.52057 -3.269545,5.86533 -2.319343,-0.38786 -6.394744,6.12491 -9.561226,12.14061 -2.493371,4.73693 -0.529964,19.80785 -0.529964,19.80785 0,0 -11.26892,-9.00616 -9.902175,-22.87694 0.324725,-3.29556 4.917923,-12.35264 4.917923,-12.35264 l -4.97249,-1.38301 z"
           id="path22676-5"
           sodipodi:nodetypes="cscsscsccc"
           inkscape:transform-center-x="10.119851"
           inkscape:transform-center-y="8.633082" />
      </g>
      <g
         inkscape:groupmode="layer"
         id="layer11-77"
         inkscape:label="CORPO"
         transform="matrix(1.0377981,-0.06693837,0.06118605,0.94861547,-29.229758,18.392259)"
         inkscape:transform-center-x="4.1821177"
         inkscape:transform-center-y="-45.594509">
        <g
           inkscape:groupmode="layer"
           id="layer2-3"
           inkscape:label="cabelo"
           style="display:inline;opacity:1;fill:#666666;fill-opacity:1">
          <path
             style="opacity:1;fill:#666666;fill-opacity:1;stroke-width:0.278957"
             d="m 89.043472,18.245645 c 0,0 0.575042,-1.350021 1.038105,-3.167623 0.860757,-3.378103 1.334799,-8.3713229 -2.98829,-9.3142318 -6.649119,-1.4502382 1.950185,12.4818548 1.950185,12.4818548 z"
             id="path1811-4"
             sodipodi:nodetypes="cssc"
             inkscape:transform-center-x="4.0935158"
             inkscape:transform-center-y="0.94737523" />
          <path
             style="display:inline;opacity:1;fill:#666666;fill-opacity:1;stroke-width:0.284153"
             d="m 87.899885,18.655184 c 0,0 -8.559214,-8.8768557 -8.989919,-1.999913 -0.430707,6.876941 8.989919,1.999913 8.989919,1.999913 z"
             id="path1813-6" />
          <path
             style="display:inline;opacity:1;fill:#666666;fill-opacity:1;stroke-width:0.264583"
             d="m 89.748827,20.496548 c 0,0 -7.893836,-0.848034 -9.638638,6.860217 -1.744806,7.708249 0.126637,8.784114 0.126637,8.784114 l 5.797257,17.125227 c 0,0 -1.533742,2.936476 3.151904,6.58176 4.685646,3.64528 21.190933,5.240091 21.190933,5.240091 0,0 -10.553252,-0.02532 5.83947,-1.253067 16.39272,-1.227751 23.79554,-14.58644 23.79554,-14.58644 0,0 -12.08846,6.359243 -4.4479,2.207674 7.64055,-4.151572 10.48313,-22.652527 10.48313,-22.652527 0,0 -21.13489,10.818021 -10.65199,5.691844 10.4829,-5.126178 12.44972,-25.0474558 12.44972,-25.0474558 0,0 -0.21223,7.0402648 -11.34857,8.4875678 -11.01904,1.432058 -19.23867,-4.818167 -29.48237,-5.083973 -10.24369,-0.265802 -16.364579,4.01234 -17.265123,7.644964 z"
             id="path1815-0"
             sodipodi:nodetypes="csccscscscscsscc" />
        </g>
        <g
           inkscape:groupmode="layer"
           id="layer4-7"
           inkscape:label="cabeça"
           style="display:inline">
          <path
             id="path7707-20"
             style="opacity:1;fill:#ececec;fill-opacity:1;stroke-width:0.264583"
             d="m 111.8986,21.36252 c -10.25238,-0.04385 -20.686596,3.156397 -20.686596,3.156397 l -2.372982,13.003857 c -1.748167,-1.378532 -3.933939,-2.131397 -6.18877,-2.131653 -5.412905,-2.65e-4 -9.801049,4.247207 -9.800952,9.48676 -9.6e-5,5.239553 4.388048,9.487024 9.800952,9.486759 1.370555,-0.0022 2.725395,-0.282642 3.977019,-0.823205 1.197863,2.864343 5.125877,9.479537 16.289449,11.299568 l 0.10128,10.319267 11.03137,1.974557 -0.28215,-12.042676 c 12.85047,-1.420326 18.663,-9.706365 17.74413,-29.675708 C 131.00018,24.307376 121.52962,21.403715 111.8986,21.36252 Z"
             sodipodi:nodetypes="sccccccccccss" />
        </g>
        <g
           inkscape:groupmode="layer"
           id="layer5-4"
           inkscape:label="franja"
           style="display:inline">
          <path
             style="opacity:1;fill:#666666;fill-opacity:1;stroke-width:0.268955"
             d="m 80.996099,36.935519 c 0,0 5.657432,2.634894 6.216191,6.152479 0.558758,3.517583 4.904134,1.185267 7.112961,-3.803041 3.816629,-8.619291 -0.338017,-13.415998 -0.338017,-13.415998 0,0 -0.293346,-6.495016 -7.235926,-0.73777 -6.942578,5.757245 -7.570375,10.677837 -7.570375,10.677837 z"
             id="path9016-0"
             sodipodi:nodetypes="csscscc" />
          <path
             style="opacity:1;fill:#666666;fill-opacity:1;stroke-width:0.264583"
             d="m 92.928875,20.088748 c 0,0 -4.193161,9.961238 15.196685,13.011629 19.38985,3.050392 27.01634,-0.582234 27.01634,-0.582234 0,0 -3.37705,-9.151173 -5.23442,-9.999207 C 128.05011,21.670902 96.77026,18.30408 96.77026,18.30408 Z"
             id="path9842-4" />
          <path
             style="opacity:1;fill:#4d4d4d;fill-opacity:1;stroke-width:0.264583"
             d="m 99.106051,20.962098 c 8.597379,-4.505974 13.822939,6.21922 18.981789,7.214619 9.53053,1.838915 19.00993,-3.126336 19.00993,-3.126336 0,0 -7.75128,21.04711 -26.46757,16.707539 C 96.570975,38.498139 90.508662,25.468071 99.106051,20.962098 Z"
             id="path9432-59"
             sodipodi:nodetypes="zscsz"
             inkscape:label="path9432" />
        </g>
        <g
           inkscape:groupmode="layer"
           id="layer6-3"
           inkscape:label="olhos">
          <rect
             style="opacity:1;fill:#1a1a1a;fill-opacity:1;stroke-width:0.264583"
             id="rect10692-31"
             width="3.968024"
             height="12.264852"
             x="107.84415"
             y="45.1105"
             ry="1.984012" />
          <rect
             style="fill:#1a1a1a;fill-opacity:1;stroke-width:0.264583"
             id="rect10692-0-29"
             width="3.968024"
             height="12.264852"
             x="115.8922"
             y="45.22234"
             ry="1.984012" />
        </g>
        <g
           inkscape:groupmode="layer"
           id="layer8-3"
           inkscape:label="colete"
           style="fill:#b3b3b3;fill-opacity:1">
          <path
             id="path32691-8"
             style="display:inline;opacity:1;fill:#808080;fill-opacity:1;stroke:none;stroke-width:15.1869;stroke-dasharray:none;stroke-opacity:1"
             d="m 143.35699,84.257886 c -1.30686,-0.0153 -2.49522,0.472734 -3.39688,1.639176 -3.46747,4.485758 1.32407,12.489737 -4.78972,18.048508 -9.8547,7.04859 -8.16488,3.47404 -11.56882,-0.20062 0.0452,3.38619 0.13239,6.79268 0.19191,10.04499 -0.41686,12.1864 5.68021,10.98165 15.48614,6.00686 8.71002,-6.10237 15.05853,-19.888611 14.99842,-24.088451 -0.0705,-4.921035 -6.25374,-11.395837 -10.9211,-11.450463 z"
             sodipodi:nodetypes="csccccccc"
             inkscape:label="LEFT ARM" />
          <path
             id="path15625-7"
             style="opacity:1;fill:#b3b3b3;fill-opacity:1;stroke:none;stroke-width:0.264583;stroke-opacity:1"
             d="m 90.490601,69.289827 c -0.145894,-0.0015 -0.293419,0.0025 -0.442867,0.0124 -3.754805,0.249746 -4.476014,3.869943 -4.613672,5.418274 l -0.03411,-0.04083 -0.837077,34.957679 c 0,0 -3.798975,1.79844 -5.196632,2.85875 -1.39766,1.0603 -1.914126,10.95785 -1.914126,10.95785 0,0 4.327395,14.92018 24.500833,13.01161 16.57259,-1.56789 22.54764,-8.35111 24.16289,-11.05411 l 0.33846,-0.53329 c 0,0 2.69421,-5.78681 0.80822,-9.42217 -1.886,-3.63536 -3.46904,-1.66605 -3.46904,-1.66605 0,0 -0.40422,-19.343049 -0.37052,-25.068748 0.0337,-5.7257 -2.39107,-6.649724 -2.39107,-6.649724 0,0 2.66079,-1.211679 2.57659,-4.332035 -0.0842,-3.120355 -0.11782,-8.800771 -5.40536,-7.997962 -5.28753,0.802812 -3.30057,6.422347 -3.30057,6.422347 L 97.810567,74.709652 c 0,0 -2.797269,-5.37318 -7.319966,-5.419825 z"
             sodipodi:nodetypes="sccccscsccscscssccs" />
        </g>
        <g
           inkscape:groupmode="layer"
           id="layer7-50"
           inkscape:label="roupa"
           style="display:inline">
          <path
             style="opacity:1;fill:#808080;fill-opacity:1;stroke:none;stroke-width:0.264583;stroke-opacity:1"
             d="m 126.28913,125.13841 c 0,0 -4.28111,8.17884 -24.26395,8.62588 -16.498171,0.36909 -21.620501,-9.27458 -21.620501,-9.27458 l -7.367809,7.14895 c 0,0 2.367212,4.91695 15.821637,9.43115 13.454433,4.51421 25.127833,3.70161 25.127833,3.70161 l 2.41559,-12.25756 8.71447,10.82431 9.88804,-8.57358 z"
             id="path32686-8"
             sodipodi:nodetypes="csccsccccc"
             inkscape:transform-center-x="5.7853523"
             inkscape:transform-center-y="0.76464401" />
          <path
             style="opacity:1;fill:#808080;fill-opacity:1;stroke:none;stroke-width:0.264583;stroke-opacity:1"
             d="M 85.434062,74.720501 C 82.453115,72.802559 67.310028,76.523078 56.988921,85.155389 45.793143,94.519253 34.862041,104.6601 41.604827,123.03112 c 5.170443,14.08711 15.076418,29.37061 21.02533,26.68748 5.948888,-2.68313 10.914377,-8.8104 9.669789,-10.89383 C 68.48163,132.43295 56.474503,113.5962 59.81999,103.37721 61.7576,97.45867 89.895768,96.123598 89.748749,93.06257 93.845714,85.771462 88.389682,77.83674 85.434062,74.720501 Z"
             id="path32684-5"
             sodipodi:nodetypes="cssssscc"
             inkscape:transform-center-x="14.741353"
             inkscape:transform-center-y="23.645332" />
          <path
             style="opacity:1;fill:#808080;fill-opacity:1;stroke:none;stroke-width:0.264583;stroke-opacity:1"
             d="m 102.97666,67.189697 -1.3038,0.157613 c 0,0 -0.9918,0.139872 -1.63814,0.746725 -1.14938,1.079166 -3.363101,4.505668 -3.363101,4.505668 0,0 6.247431,12.429715 10.454661,13.303064 4.20722,0.873346 4.44675,-9.847461 4.44675,-9.847461 0,0 2.05414,7.163859 3.89744,7.93595 1.8433,0.77209 3.74323,-10.707836 2.96933,-12.429216 -0.77391,-1.72138 -1.65515,-3.017031 -3.39153,-3.506246 -1.11215,-0.313342 -1.23144,-0.578776 -1.23144,-0.578776 0,0 0.65549,4.987652 -3.80597,5.186247 -3.59358,0.159962 -6.07798,-1.106574 -6.60115,-2.67839 -0.5398,-1.621769 -0.43305,-2.795178 -0.43305,-2.795178 z"
             id="path11782-69" />
        </g>
        <path
           style="display:inline;opacity:1;fill:#ececec;fill-opacity:1;stroke:none;stroke-width:0.277337;stroke-opacity:1"
           d="m 140.43157,84.538426 c 0,0 -0.74404,-7.906494 2.6499,-10.490939 3.39394,-2.584459 10.27756,3.489625 11.79651,7.057719 1.51895,3.568112 -0.52959,6.04654 -2.30054,9.611199 -1.77095,3.564675 -10.84346,-1.136044 -11.31829,-2.271424 -0.47482,-1.135381 -0.82758,-3.906555 -0.82758,-3.906555 z"
           id="path17710-8"
           sodipodi:nodetypes="cssszc" />
        <g
           inkscape:groupmode="layer"
           id="layer9-4"
           inkscape:label="mãos">
          <path
             style="opacity:1;fill:#ececec;fill-opacity:1;stroke:none;stroke-width:0.264583;stroke-opacity:1"
             d="m 72.867362,140.4367 c 0,0 1.388491,0.12321 5.883927,3.71918 4.495468,3.59595 -0.820343,9.57142 -0.820343,9.57142 0,0 -4.302205,6.58719 -9.463115,3.96149 -5.160892,-2.62566 -5.837674,-7.97019 -5.837674,-7.97019 0,0 2.61277,-0.78463 6.412594,-4.12214 3.799828,-3.3375 3.824583,-5.1598 3.824583,-5.1598 z"
             id="path17497-83"
             sodipodi:nodetypes="cccsczcc"
             inkscape:transform-center-x="-1.8665088"
             inkscape:transform-center-y="1.5150734" />
        </g>
      </g>
    </g>
    <g
       inkscape:groupmode="layer"
       id="layer14-7"
       inkscape:label="walk6"
       transform="rotate(4.2508814,4043.23,6932.8457)">
      <g
         inkscape:groupmode="layer"
         id="layer10-4"
         inkscape:label="pernas"
         transform="rotate(8.3439573,9.9907581,23.127385)"
         inkscape:transform-center-x="12.780255"
         inkscape:transform-center-y="62.796551">
        <path
           style="opacity:1;fill:none;fill-opacity:1;stroke:#1a1a1a;stroke-width:13;stroke-dasharray:none;stroke-opacity:1"
           d="m 108.45496,109.72667 c 2.99337,35.96615 19.47262,68.63565 15.51073,106.9178 -1.32137,12.76788 -0.81168,25.64225 -0.21693,38.43675"
           id="path21200-6"
           sodipodi:nodetypes="csc"
           inkscape:original-d="m 108.45496,109.72667 c 0.0402,21.13934 18.60659,59.06488 18.37961,82.32266 -0.18874,19.33851 -5.43897,17.17024 -3.08581,63.03189"
           inkscape:path-effect="#path-effect21202-35" />
        <path
           style="opacity:1;fill:#1a1a1a;fill-opacity:1;stroke:none;stroke-width:13;stroke-dasharray:none;stroke-opacity:1"
           d="m 124.9617,208.86835 c 0,0 4.73766,16.74912 6.66788,26.01046 1.93021,9.26138 5.5119,15.57212 5.5119,15.57212 l 12.19553,-2.72487 -1.47312,-4.81013 c 0,0 6.56799,3.5617 15.79621,1.49982 9.22822,-2.06188 18.58973,-5.5319 18.58973,-5.5319 0,0 -14.87822,-1.92244 -24.21288,-6.33972 -6.67424,-3.15834 -10.77594,-5.10863 -10.77594,-5.10863 z"
           id="path21990-74"
           sodipodi:nodetypes="czccczcscc" />
        <path
           style="opacity:1;fill:none;fill-opacity:1;stroke:#1a1a1a;stroke-width:13;stroke-dasharray:none;stroke-opacity:1"
           d="m 101.95295,136.46556 c -3.807406,-7.8281 -1.30662,0.36299 10.8514,-10.86116 13.36032,-12.3341 21.35712,19.92762 28.20314,30.56675 15.63122,24.29187 -5.462,46.24436 -6.40448,70.64693"
           id="path22211-03"
           inkscape:path-effect="#path-effect22213-4"
           inkscape:original-d="m 101.95295,136.46556 c -0.91858,-16.60953 12.66375,-24.83195 10.8514,-10.86116 9.96353,-9.80858 3.05035,-6.97064 24.48878,24.59674 4.97089,7.31947 10.50463,16.61337 8.96319,34.93468 -0.90406,10.7455 -9.15983,14.82598 -11.65331,41.68226"
           sodipodi:nodetypes="ccssc" />
        <path
           style="opacity:1;fill:#1a1a1a;fill-opacity:1;stroke:none;stroke-width:11.3323;stroke-dasharray:none;stroke-opacity:1"
           d="m 121.87237,277.60704 c 0,0 -7.46184,-14.69233 -3.91518,-31.97507 1.94685,-9.48693 5.79157,9.44925 5.79157,9.44925 0,0 -1.74391,-15.6867 3.63776,-7.2162 3.27906,5.16107 6.29325,9.25976 14.50983,11.59536 5.14908,1.46365 27.37146,3.44628 27.37146,3.44628 0,0 -17.26547,10.66526 -24.70062,8.50744 l -8.52431,-2.47391 1.59616,4.90823 z"
           id="path22676-8"
           sodipodi:nodetypes="cscsscsccc"
           inkscape:transform-center-x="-18.03181"
           inkscape:transform-center-y="5.8958207" />
      </g>
      <g
         inkscape:groupmode="layer"
         id="layer11-4"
         inkscape:label="CORPO"
         transform="matrix(1.0248131,-0.17681547,0.16162092,0.93674635,-29.330793,32.175899)"
         inkscape:transform-center-x="13.374455"
         inkscape:transform-center-y="-41.311785">
        <g
           inkscape:groupmode="layer"
           id="layer2-02"
           inkscape:label="cabelo"
           style="display:inline;opacity:1;fill:#666666;fill-opacity:1">
          <path
             style="display:inline;fill:#666666;fill-opacity:1;stroke-width:0.264583"
             d="m 66.451476,29.616398 c 0,0 -7.93498,-0.26058 -9.10362,7.555796 -1.16864,7.81638 0.77741,8.75056 0.77741,8.75056 l 7.05069,16.64841 c 0,0 -1.31186,3.04208 3.6311,6.33002 4.94296,3.28793 21.52105,3.65492 21.52105,3.65492 0,0 -10.52609,0.757 5.73053,-1.68246 16.256624,-2.43947 20.538384,-10.796104 20.538384,-10.796104 0,0 -9.47334,1.723764 -2.16153,-2.982736 7.3118,-4.70649 13.29934,-16.405341 13.29934,-16.405341 0,0 -24.79901,5.392941 -14.72492,-0.496169 10.07409,-5.889104 19.77926,-12.182147 19.77926,-12.182147 0,0 -10.65429,2.42071 -21.26878,-0.854837 -6.04732,-1.866153 -18.51179,-8.212964 -28.74701,-7.718732 -10.23522,0.494231 -15.693104,6.489437 -16.321904,10.17882 z"
             id="path1815-8"
             sodipodi:nodetypes="csccscscscscssc"
             transform="matrix(0.95958638,0.06771253,-0.06189368,1.0498004,29.186843,-17.328981)" />
          <path
             style="opacity:1;fill:#666666;fill-opacity:1;stroke-width:0.278957"
             d="m 88.682651,17.110586 c 0,0 -2.636222,-16.68372934 -7.665138,-12.0498875 -2.993927,3.3708716 7.665138,12.0498875 7.665138,12.0498875 z"
             id="path1811-9"
             sodipodi:nodetypes="ccc"
             inkscape:transform-center-x="4.0935158"
             inkscape:transform-center-y="0.94737523" />
          <path
             style="display:inline;opacity:1;fill:#666666;fill-opacity:1;stroke-width:0.284153"
             d="m 87.064289,17.482683 c 0,0 -9.509736,-4.064415 -9.403063,0.241534 0.159515,6.43898 9.403063,-0.241534 9.403063,-0.241534 z"
             id="path1813-0"
             sodipodi:nodetypes="csc" />
        </g>
        <g
           inkscape:groupmode="layer"
           id="layer4-74"
           inkscape:label="cabeça"
           style="display:inline">
          <path
             id="path7707-41"
             style="opacity:1;fill:#ececec;fill-opacity:1;stroke-width:0.264583"
             d="m 111.8986,21.36252 c -10.25238,-0.04385 -20.686596,3.156397 -20.686596,3.156397 l -2.372982,13.003857 c -1.748167,-1.378532 -3.933939,-2.131397 -6.18877,-2.131653 -5.412905,-2.65e-4 -9.801049,4.247207 -9.800952,9.48676 -9.6e-5,5.239553 4.388048,9.487024 9.800952,9.486759 1.370555,-0.0022 2.725395,-0.282642 3.977019,-0.823205 1.197863,2.864343 5.125877,9.479537 16.289449,11.299568 l 0.10128,10.319267 11.03137,1.974557 -0.28215,-12.042676 c 12.85047,-1.420326 18.663,-9.706365 17.74413,-29.675708 C 131.00018,24.307376 121.52962,21.403715 111.8986,21.36252 Z"
             sodipodi:nodetypes="sccccccccccss" />
        </g>
        <g
           inkscape:groupmode="layer"
           id="layer5-2"
           inkscape:label="franja"
           style="display:inline">
          <path
             style="opacity:1;fill:#666666;fill-opacity:1;stroke-width:0.268955"
             d="m 80.996099,36.935519 c 0,0 5.657432,2.634894 6.216191,6.152479 0.558758,3.517583 4.904134,1.185267 7.112961,-3.803041 3.816629,-8.619291 -0.338017,-13.415998 -0.338017,-13.415998 0,0 -0.293346,-6.495016 -7.235926,-0.73777 -6.942578,5.757245 -7.570375,10.677837 -7.570375,10.677837 z"
             id="path9016-52"
             sodipodi:nodetypes="csscscc" />
          <path
             style="opacity:1;fill:#666666;fill-opacity:1;stroke-width:0.264583"
             d="m 92.928875,20.088748 c 0,0 -4.193161,9.961238 15.196685,13.011629 19.38985,3.050392 27.01634,-0.582234 27.01634,-0.582234 0,0 -3.37705,-9.151173 -5.23442,-9.999207 C 128.05011,21.670902 96.77026,18.30408 96.77026,18.30408 Z"
             id="path9842-9" />
          <path
             style="opacity:1;fill:#4d4d4d;fill-opacity:1;stroke-width:0.264583"
             d="m 99.106051,20.962098 c 8.597379,-4.505974 13.822939,6.21922 18.981789,7.214619 9.53053,1.838915 19.00993,-3.126336 19.00993,-3.126336 0,0 -7.75128,21.04711 -26.46757,16.707539 C 96.570975,38.498139 90.508662,25.468071 99.106051,20.962098 Z"
             id="path9432-0"
             sodipodi:nodetypes="zscsz"
             inkscape:label="path9432" />
        </g>
        <g
           inkscape:groupmode="layer"
           id="layer6-0"
           inkscape:label="olhos">
          <rect
             style="opacity:1;fill:#1a1a1a;fill-opacity:1;stroke-width:0.264583"
             id="rect10692-36"
             width="3.968024"
             height="12.264852"
             x="107.84415"
             y="45.1105"
             ry="1.984012" />
          <rect
             style="fill:#1a1a1a;fill-opacity:1;stroke-width:0.264583"
             id="rect10692-0-5"
             width="3.968024"
             height="12.264852"
             x="115.8922"
             y="45.22234"
             ry="1.984012" />
        </g>
        <g
           inkscape:groupmode="layer"
           id="layer8-4"
           inkscape:label="colete"
           style="fill:#b3b3b3;fill-opacity:1">
          <path
             id="path32691-84"
             style="display:inline;opacity:1;fill:#808080;fill-opacity:1;stroke:none;stroke-width:15.1869;stroke-dasharray:none;stroke-opacity:1"
             d="m 146.4889,122.25309 c -0.3275,-1.38418 -1.06823,-2.51188 -2.33278,-3.15976 -4.86302,-2.49153 -10.67542,4.65742 -17.17579,-0.34894 -8.79113,-8.56842 -5.19601,-7.71651 -2.84172,-12.27031 -2.97617,0.93132 -5.9593,1.91228 -8.8136,2.8238 -10.86204,2.73964 -8.20801,8.86446 -1.25952,17.92251 7.6575,7.60642 21.47902,10.7138 25.16926,9.55442 4.32392,-1.35855 8.42383,-9.57826 7.25414,-14.52177 z"
             sodipodi:nodetypes="csccccccc"
             inkscape:label="LEFT ARM"
             inkscape:transform-center-x="-11.441249"
             inkscape:transform-center-y="5.2805296" />
          <path
             id="path15625-15"
             style="opacity:1;fill:#b3b3b3;fill-opacity:1;stroke:none;stroke-width:0.264583;stroke-opacity:1"
             d="m 90.490601,69.289827 c -0.145894,-0.0015 -0.293419,0.0025 -0.442867,0.0124 -3.754805,0.249746 -4.476014,3.869943 -4.613672,5.418274 l -0.03411,-0.04083 -0.837077,34.957679 c 0,0 -3.798975,1.79844 -5.196632,2.85875 -1.39766,1.0603 -1.914126,10.95785 -1.914126,10.95785 0,0 4.327395,14.92018 24.500833,13.01161 16.57259,-1.56789 22.54764,-8.35111 24.16289,-11.05411 l 0.33846,-0.53329 c 0,0 2.69421,-5.78681 0.80822,-9.42217 -1.886,-3.63536 -3.46904,-1.66605 -3.46904,-1.66605 0,0 -0.40422,-19.343049 -0.37052,-25.068748 0.0337,-5.7257 -2.39107,-6.649724 -2.39107,-6.649724 0,0 2.66079,-1.211679 2.57659,-4.332035 -0.0842,-3.120355 -0.11782,-8.800771 -5.40536,-7.997962 -5.28753,0.802812 -3.30057,6.422347 -3.30057,6.422347 L 97.810567,74.709652 c 0,0 -2.797269,-5.37318 -7.319966,-5.419825 z"
             sodipodi:nodetypes="sccccscsccscscssccs" />
        </g>
        <g
           inkscape:groupmode="layer"
           id="layer7-3"
           inkscape:label="roupa"
           style="display:inline">
          <path
             style="opacity:1;fill:#808080;fill-opacity:1;stroke:none;stroke-width:0.264583;stroke-opacity:1"
             d="m 126.28913,125.13841 c 0,0 -4.28111,8.17884 -24.26395,8.62588 -16.498171,0.36909 -21.620501,-9.27458 -21.620501,-9.27458 l -7.367809,7.14895 c 0,0 2.367212,4.91695 15.821637,9.43115 13.454433,4.51421 25.127833,3.70161 25.127833,3.70161 l 2.41559,-12.25756 8.71447,10.82431 9.88804,-8.57358 z"
             id="path32686-9"
             sodipodi:nodetypes="csccsccccc"
             inkscape:transform-center-x="5.7853523"
             inkscape:transform-center-y="0.76464401" />
          <path
             style="opacity:1;fill:#808080;fill-opacity:1;stroke:none;stroke-width:0.275272;stroke-opacity:1"
             d="m 88.918095,75.090082 c -3.238269,-1.945239 -20.976854,15.138794 -30.731273,33.051988 -7.537134,13.84132 -4.08985,28.52048 -2.777618,36.58251 2.476462,15.21478 4.643562,24.58589 11.058874,21.95224 6.415286,-2.63366 12.289089,-2.85288 10.237177,-9.28194 -2.376792,-7.44697 -6.894259,-27.67371 -3.349526,-37.87156 2.053007,-5.9063 20.543355,-22.975057 20.362174,-26.039709 4.378772,-7.261214 -1.58026,-15.249293 -4.799808,-18.393529 z"
             id="path32684-3"
             sodipodi:nodetypes="cssssscc"
             inkscape:transform-center-x="15.95653"
             inkscape:transform-center-y="23.645334" />
          <path
             style="opacity:1;fill:#808080;fill-opacity:1;stroke:none;stroke-width:0.264583;stroke-opacity:1"
             d="m 102.97666,67.189697 -1.3038,0.157613 c 0,0 -0.9918,0.139872 -1.63814,0.746725 -1.14938,1.079166 -3.363101,4.505668 -3.363101,4.505668 0,0 6.247431,12.429715 10.454661,13.303064 4.20722,0.873346 4.44675,-9.847461 4.44675,-9.847461 0,0 2.05414,7.163859 3.89744,7.93595 1.8433,0.77209 3.74323,-10.707836 2.96933,-12.429216 -0.77391,-1.72138 -1.65515,-3.017031 -3.39153,-3.506246 -1.11215,-0.313342 -1.23144,-0.578776 -1.23144,-0.578776 0,0 0.65549,4.987652 -3.80597,5.186247 -3.59358,0.159962 -6.07798,-1.106574 -6.60115,-2.67839 -0.5398,-1.621769 -0.43305,-2.795178 -0.43305,-2.795178 z"
             id="path11782-60" />
        </g>
        <path
           style="display:inline;opacity:1;fill:#ececec;fill-opacity:1;stroke:none;stroke-width:0.277337;stroke-opacity:1"
           d="m 146.35912,121.78536 c 0,0 7.15347,-1.38888 9.75724,2.12561 2.60378,3.51448 -2.43113,11.46849 -5.57304,13.38623 -3.14192,1.91774 -5.55084,-0.13649 -8.92974,-1.80863 -3.37891,-1.6721 0.24424,-11.91416 1.24461,-12.51511 1.0004,-0.60094 3.50093,-1.1881 3.50093,-1.1881 z"
           id="path17710-4"
           sodipodi:nodetypes="cssszc" />
        <g
           inkscape:groupmode="layer"
           id="layer9-8"
           inkscape:label="mãos">
          <path
             style="opacity:1;fill:#ececec;fill-opacity:1;stroke:none;stroke-width:0.264583;stroke-opacity:1"
             d="m 76.398115,162.06075 c 0,0 0.867995,0.69667 3.715674,5.93238 2.847714,5.23571 -4.183421,8.45407 -4.183421,8.45407 0,0 -6.31774,4.21571 -10.125233,-0.41267 -3.80749,-4.62832 -2.580977,-9.02389 -2.580977,-9.02389 0,0 2.883787,-0.45906 7.575224,-1.90043 4.691439,-1.44137 5.598733,-3.04946 5.598733,-3.04946 z"
             id="path17497-6"
             sodipodi:nodetypes="cccsczc"
             inkscape:transform-center-x="-1.4004632"
             inkscape:transform-center-y="2.4037624" />
        </g>
      </g>
    </g>
  </g>
</svg>
